<?xml version="1.0" encoding="utf-8" standalone="no"?>
<!DOCTYPE svg PUBLIC "-//W3C//DTD SVG 1.1//EN"
  "http://www.w3.org/Graphics/SVG/1.1/DTD/svg11.dtd">
<svg xmlns:xlink="http://www.w3.org/1999/xlink" width="996.644375pt" height="313.395844pt" viewBox="0 0 996.644375 313.395844" xmlns="http://www.w3.org/2000/svg" version="1.1">
 <metadata>
  <rdf:RDF xmlns:dc="http://purl.org/dc/elements/1.1/" xmlns:cc="http://creativecommons.org/ns#" xmlns:rdf="http://www.w3.org/1999/02/22-rdf-syntax-ns#">
   <cc:Work>
    <dc:type rdf:resource="http://purl.org/dc/dcmitype/StillImage"/>
    <dc:date>2026-04-20T19:08:03.849552</dc:date>
    <dc:format>image/svg+xml</dc:format>
    <dc:creator>
     <cc:Agent>
      <dc:title>Matplotlib v3.10.8, https://matplotlib.org/</dc:title>
     </cc:Agent>
    </dc:creator>
   </cc:Work>
  </rdf:RDF>
 </metadata>
 <defs>
  <style type="text/css">*{stroke-linejoin: round; stroke-linecap: butt}</style>
 </defs>
 <g id="figure_1">
  <g id="patch_1">
   <path d="M 0 313.395844 
L 996.644375 313.395844 
L 996.644375 0 
L 0 0 
z
" style="fill: #ffffff"/>
  </g>
  <g id="axes_1">
   <g id="patch_2">
    <path d="M 46.964375 269.916 
L 321.944375 269.916 
L 321.944375 26.44 
L 46.964375 26.44 
z
" style="fill: #ffffff"/>
   </g>
   <g id="matplotlib.axis_1">
    <g id="xtick_1">
     <g id="line2d_1">
      <path d="M 59.325442 269.916 
L 59.325442 26.44 
" clip-path="url(#p6f782ca9cf)" style="fill: none; stroke: #cccccc; stroke-linecap: round"/>
     </g>
     <g id="text_1">
      <!-- 0.0 -->
      <g style="fill: #262626" transform="translate(51.680442 287.289594) scale(0.11 -0.11)">
       <defs>
        <path id="ArialMT-30" d="M 266 2259 
Q 266 3072 433 3567 
Q 600 4063 929 4331 
Q 1259 4600 1759 4600 
Q 2128 4600 2406 4451 
Q 2684 4303 2865 4023 
Q 3047 3744 3150 3342 
Q 3253 2941 3253 2259 
Q 3253 1453 3087 958 
Q 2922 463 2592 192 
Q 2263 -78 1759 -78 
Q 1097 -78 719 397 
Q 266 969 266 2259 
z
M 844 2259 
Q 844 1131 1108 757 
Q 1372 384 1759 384 
Q 2147 384 2411 759 
Q 2675 1134 2675 2259 
Q 2675 3391 2411 3762 
Q 2147 4134 1753 4134 
Q 1366 4134 1134 3806 
Q 844 3388 844 2259 
z
" transform="scale(0.015625)"/>
        <path id="ArialMT-2e" d="M 581 0 
L 581 641 
L 1222 641 
L 1222 0 
L 581 0 
z
" transform="scale(0.015625)"/>
       </defs>
       <use xlink:href="#ArialMT-30"/>
       <use xlink:href="#ArialMT-2e" transform="translate(55.615234 0)"/>
       <use xlink:href="#ArialMT-30" transform="translate(83.398438 0)"/>
      </g>
     </g>
    </g>
    <g id="xtick_2">
     <g id="line2d_2">
      <path d="M 95.82366 269.916 
L 95.82366 26.44 
" clip-path="url(#p6f782ca9cf)" style="fill: none; stroke: #cccccc; stroke-linecap: round"/>
     </g>
     <g id="text_2">
      <!-- 0.1 -->
      <g style="fill: #262626" transform="translate(88.17866 287.289594) scale(0.11 -0.11)">
       <defs>
        <path id="ArialMT-31" d="M 2384 0 
L 1822 0 
L 1822 3584 
Q 1619 3391 1289 3197 
Q 959 3003 697 2906 
L 697 3450 
Q 1169 3672 1522 3987 
Q 1875 4303 2022 4600 
L 2384 4600 
L 2384 0 
z
" transform="scale(0.015625)"/>
       </defs>
       <use xlink:href="#ArialMT-30"/>
       <use xlink:href="#ArialMT-2e" transform="translate(55.615234 0)"/>
       <use xlink:href="#ArialMT-31" transform="translate(83.398438 0)"/>
      </g>
     </g>
    </g>
    <g id="xtick_3">
     <g id="line2d_3">
      <path d="M 132.321877 269.916 
L 132.321877 26.44 
" clip-path="url(#p6f782ca9cf)" style="fill: none; stroke: #cccccc; stroke-linecap: round"/>
     </g>
     <g id="text_3">
      <!-- 0.2 -->
      <g style="fill: #262626" transform="translate(124.676877 287.289594) scale(0.11 -0.11)">
       <defs>
        <path id="ArialMT-32" d="M 3222 541 
L 3222 0 
L 194 0 
Q 188 203 259 391 
Q 375 700 629 1000 
Q 884 1300 1366 1694 
Q 2113 2306 2375 2664 
Q 2638 3022 2638 3341 
Q 2638 3675 2398 3904 
Q 2159 4134 1775 4134 
Q 1369 4134 1125 3890 
Q 881 3647 878 3216 
L 300 3275 
Q 359 3922 746 4261 
Q 1134 4600 1788 4600 
Q 2447 4600 2831 4234 
Q 3216 3869 3216 3328 
Q 3216 3053 3103 2787 
Q 2991 2522 2730 2228 
Q 2469 1934 1863 1422 
Q 1356 997 1212 845 
Q 1069 694 975 541 
L 3222 541 
z
" transform="scale(0.015625)"/>
       </defs>
       <use xlink:href="#ArialMT-30"/>
       <use xlink:href="#ArialMT-2e" transform="translate(55.615234 0)"/>
       <use xlink:href="#ArialMT-32" transform="translate(83.398438 0)"/>
      </g>
     </g>
    </g>
    <g id="xtick_4">
     <g id="line2d_4">
      <path d="M 168.820094 269.916 
L 168.820094 26.44 
" clip-path="url(#p6f782ca9cf)" style="fill: none; stroke: #cccccc; stroke-linecap: round"/>
     </g>
     <g id="text_4">
      <!-- 0.3 -->
      <g style="fill: #262626" transform="translate(161.175094 287.289594) scale(0.11 -0.11)">
       <defs>
        <path id="ArialMT-33" d="M 269 1209 
L 831 1284 
Q 928 806 1161 595 
Q 1394 384 1728 384 
Q 2125 384 2398 659 
Q 2672 934 2672 1341 
Q 2672 1728 2419 1979 
Q 2166 2231 1775 2231 
Q 1616 2231 1378 2169 
L 1441 2663 
Q 1497 2656 1531 2656 
Q 1891 2656 2178 2843 
Q 2466 3031 2466 3422 
Q 2466 3731 2256 3934 
Q 2047 4138 1716 4138 
Q 1388 4138 1169 3931 
Q 950 3725 888 3313 
L 325 3413 
Q 428 3978 793 4289 
Q 1159 4600 1703 4600 
Q 2078 4600 2393 4439 
Q 2709 4278 2876 4000 
Q 3044 3722 3044 3409 
Q 3044 3113 2884 2869 
Q 2725 2625 2413 2481 
Q 2819 2388 3044 2092 
Q 3269 1797 3269 1353 
Q 3269 753 2831 336 
Q 2394 -81 1725 -81 
Q 1122 -81 723 278 
Q 325 638 269 1209 
z
" transform="scale(0.015625)"/>
       </defs>
       <use xlink:href="#ArialMT-30"/>
       <use xlink:href="#ArialMT-2e" transform="translate(55.615234 0)"/>
       <use xlink:href="#ArialMT-33" transform="translate(83.398438 0)"/>
      </g>
     </g>
    </g>
    <g id="xtick_5">
     <g id="line2d_5">
      <path d="M 205.318311 269.916 
L 205.318311 26.44 
" clip-path="url(#p6f782ca9cf)" style="fill: none; stroke: #cccccc; stroke-linecap: round"/>
     </g>
     <g id="text_5">
      <!-- 0.4 -->
      <g style="fill: #262626" transform="translate(197.673311 287.289594) scale(0.11 -0.11)">
       <defs>
        <path id="ArialMT-34" d="M 2069 0 
L 2069 1097 
L 81 1097 
L 81 1613 
L 2172 4581 
L 2631 4581 
L 2631 1613 
L 3250 1613 
L 3250 1097 
L 2631 1097 
L 2631 0 
L 2069 0 
z
M 2069 1613 
L 2069 3678 
L 634 1613 
L 2069 1613 
z
" transform="scale(0.015625)"/>
       </defs>
       <use xlink:href="#ArialMT-30"/>
       <use xlink:href="#ArialMT-2e" transform="translate(55.615234 0)"/>
       <use xlink:href="#ArialMT-34" transform="translate(83.398438 0)"/>
      </g>
     </g>
    </g>
    <g id="xtick_6">
     <g id="line2d_6">
      <path d="M 241.816528 269.916 
L 241.816528 26.44 
" clip-path="url(#p6f782ca9cf)" style="fill: none; stroke: #cccccc; stroke-linecap: round"/>
     </g>
     <g id="text_6">
      <!-- 0.5 -->
      <g style="fill: #262626" transform="translate(234.171528 287.289594) scale(0.11 -0.11)">
       <defs>
        <path id="ArialMT-35" d="M 266 1200 
L 856 1250 
Q 922 819 1161 601 
Q 1400 384 1738 384 
Q 2144 384 2425 690 
Q 2706 997 2706 1503 
Q 2706 1984 2436 2262 
Q 2166 2541 1728 2541 
Q 1456 2541 1237 2417 
Q 1019 2294 894 2097 
L 366 2166 
L 809 4519 
L 3088 4519 
L 3088 3981 
L 1259 3981 
L 1013 2750 
Q 1425 3038 1878 3038 
Q 2478 3038 2890 2622 
Q 3303 2206 3303 1553 
Q 3303 931 2941 478 
Q 2500 -78 1738 -78 
Q 1113 -78 717 272 
Q 322 622 266 1200 
z
" transform="scale(0.015625)"/>
       </defs>
       <use xlink:href="#ArialMT-30"/>
       <use xlink:href="#ArialMT-2e" transform="translate(55.615234 0)"/>
       <use xlink:href="#ArialMT-35" transform="translate(83.398438 0)"/>
      </g>
     </g>
    </g>
    <g id="xtick_7">
     <g id="line2d_7">
      <path d="M 278.314745 269.916 
L 278.314745 26.44 
" clip-path="url(#p6f782ca9cf)" style="fill: none; stroke: #cccccc; stroke-linecap: round"/>
     </g>
     <g id="text_7">
      <!-- 0.6 -->
      <g style="fill: #262626" transform="translate(270.669745 287.289594) scale(0.11 -0.11)">
       <defs>
        <path id="ArialMT-36" d="M 3184 3459 
L 2625 3416 
Q 2550 3747 2413 3897 
Q 2184 4138 1850 4138 
Q 1581 4138 1378 3988 
Q 1113 3794 959 3422 
Q 806 3050 800 2363 
Q 1003 2672 1297 2822 
Q 1591 2972 1913 2972 
Q 2475 2972 2870 2558 
Q 3266 2144 3266 1488 
Q 3266 1056 3080 686 
Q 2894 316 2569 119 
Q 2244 -78 1831 -78 
Q 1128 -78 684 439 
Q 241 956 241 2144 
Q 241 3472 731 4075 
Q 1159 4600 1884 4600 
Q 2425 4600 2770 4297 
Q 3116 3994 3184 3459 
z
M 888 1484 
Q 888 1194 1011 928 
Q 1134 663 1356 523 
Q 1578 384 1822 384 
Q 2178 384 2434 671 
Q 2691 959 2691 1453 
Q 2691 1928 2437 2201 
Q 2184 2475 1800 2475 
Q 1419 2475 1153 2201 
Q 888 1928 888 1484 
z
" transform="scale(0.015625)"/>
       </defs>
       <use xlink:href="#ArialMT-30"/>
       <use xlink:href="#ArialMT-2e" transform="translate(55.615234 0)"/>
       <use xlink:href="#ArialMT-36" transform="translate(83.398438 0)"/>
      </g>
     </g>
    </g>
    <g id="xtick_8">
     <g id="line2d_8">
      <path d="M 314.812962 269.916 
L 314.812962 26.44 
" clip-path="url(#p6f782ca9cf)" style="fill: none; stroke: #cccccc; stroke-linecap: round"/>
     </g>
     <g id="text_8">
      <!-- 0.7 -->
      <g style="fill: #262626" transform="translate(307.167962 287.289594) scale(0.11 -0.11)">
       <defs>
        <path id="ArialMT-37" d="M 303 3981 
L 303 4522 
L 3269 4522 
L 3269 4084 
Q 2831 3619 2401 2847 
Q 1972 2075 1738 1259 
Q 1569 684 1522 0 
L 944 0 
Q 953 541 1156 1306 
Q 1359 2072 1739 2783 
Q 2119 3494 2547 3981 
L 303 3981 
z
" transform="scale(0.015625)"/>
       </defs>
       <use xlink:href="#ArialMT-30"/>
       <use xlink:href="#ArialMT-2e" transform="translate(55.615234 0)"/>
       <use xlink:href="#ArialMT-37" transform="translate(83.398438 0)"/>
      </g>
     </g>
    </g>
    <g id="text_9">
     <!-- $\theta_i$ -->
     <g style="fill: #262626" transform="translate(179.414375 302.370844) scale(0.12 -0.12)">
      <defs>
       <path id="DejaVuSans-Oblique-3b8" d="M 2913 2219 
L 925 2219 
Q 791 1284 928 888 
Q 1100 400 1566 400 
Q 2034 400 2391 891 
Q 2703 1322 2913 2219 
z
M 3009 2750 
Q 3094 3638 2984 3950 
Q 2813 4444 2353 4444 
Q 1875 4444 1525 3956 
Q 1250 3563 1034 2750 
L 3009 2750 
z
M 2444 4913 
Q 3194 4913 3494 4250 
Q 3794 3591 3566 2422 
Q 3341 1256 2781 594 
Q 2225 -72 1475 -72 
Q 722 -72 425 594 
Q 128 1256 353 2422 
Q 581 3591 1134 4250 
Q 1691 4913 2444 4913 
z
" transform="scale(0.015625)"/>
       <path id="DejaVuSans-Oblique-69" d="M 1172 4863 
L 1747 4863 
L 1606 4134 
L 1031 4134 
L 1172 4863 
z
M 909 3500 
L 1484 3500 
L 800 0 
L 225 0 
L 909 3500 
z
" transform="scale(0.015625)"/>
      </defs>
      <use xlink:href="#DejaVuSans-Oblique-3b8" transform="translate(0 0.234375)"/>
      <use xlink:href="#DejaVuSans-Oblique-69" transform="translate(61.181641 -16.171875) scale(0.7)"/>
     </g>
    </g>
   </g>
   <g id="matplotlib.axis_2">
    <g id="ytick_1">
     <g id="line2d_9">
      <path d="M 46.964375 269.916 
L 321.944375 269.916 
" clip-path="url(#p6f782ca9cf)" style="fill: none; stroke: #cccccc; stroke-linecap: round"/>
     </g>
     <g id="text_10">
      <!-- 0.0 -->
      <g style="fill: #262626" transform="translate(22.174375 273.852797) scale(0.11 -0.11)">
       <use xlink:href="#ArialMT-30"/>
       <use xlink:href="#ArialMT-2e" transform="translate(55.615234 0)"/>
       <use xlink:href="#ArialMT-30" transform="translate(83.398438 0)"/>
      </g>
     </g>
    </g>
    <g id="ytick_2">
     <g id="line2d_10">
      <path d="M 46.964375 240.930762 
L 321.944375 240.930762 
" clip-path="url(#p6f782ca9cf)" style="fill: none; stroke: #cccccc; stroke-linecap: round"/>
     </g>
     <g id="text_11">
      <!-- 0.5 -->
      <g style="fill: #262626" transform="translate(22.174375 244.867559) scale(0.11 -0.11)">
       <use xlink:href="#ArialMT-30"/>
       <use xlink:href="#ArialMT-2e" transform="translate(55.615234 0)"/>
       <use xlink:href="#ArialMT-35" transform="translate(83.398438 0)"/>
      </g>
     </g>
    </g>
    <g id="ytick_3">
     <g id="line2d_11">
      <path d="M 46.964375 211.945524 
L 321.944375 211.945524 
" clip-path="url(#p6f782ca9cf)" style="fill: none; stroke: #cccccc; stroke-linecap: round"/>
     </g>
     <g id="text_12">
      <!-- 1.0 -->
      <g style="fill: #262626" transform="translate(22.174375 215.882321) scale(0.11 -0.11)">
       <use xlink:href="#ArialMT-31"/>
       <use xlink:href="#ArialMT-2e" transform="translate(55.615234 0)"/>
       <use xlink:href="#ArialMT-30" transform="translate(83.398438 0)"/>
      </g>
     </g>
    </g>
    <g id="ytick_4">
     <g id="line2d_12">
      <path d="M 46.964375 182.960286 
L 321.944375 182.960286 
" clip-path="url(#p6f782ca9cf)" style="fill: none; stroke: #cccccc; stroke-linecap: round"/>
     </g>
     <g id="text_13">
      <!-- 1.5 -->
      <g style="fill: #262626" transform="translate(22.174375 186.897083) scale(0.11 -0.11)">
       <use xlink:href="#ArialMT-31"/>
       <use xlink:href="#ArialMT-2e" transform="translate(55.615234 0)"/>
       <use xlink:href="#ArialMT-35" transform="translate(83.398438 0)"/>
      </g>
     </g>
    </g>
    <g id="ytick_5">
     <g id="line2d_13">
      <path d="M 46.964375 153.975048 
L 321.944375 153.975048 
" clip-path="url(#p6f782ca9cf)" style="fill: none; stroke: #cccccc; stroke-linecap: round"/>
     </g>
     <g id="text_14">
      <!-- 2.0 -->
      <g style="fill: #262626" transform="translate(22.174375 157.911844) scale(0.11 -0.11)">
       <use xlink:href="#ArialMT-32"/>
       <use xlink:href="#ArialMT-2e" transform="translate(55.615234 0)"/>
       <use xlink:href="#ArialMT-30" transform="translate(83.398438 0)"/>
      </g>
     </g>
    </g>
    <g id="ytick_6">
     <g id="line2d_14">
      <path d="M 46.964375 124.98981 
L 321.944375 124.98981 
" clip-path="url(#p6f782ca9cf)" style="fill: none; stroke: #cccccc; stroke-linecap: round"/>
     </g>
     <g id="text_15">
      <!-- 2.5 -->
      <g style="fill: #262626" transform="translate(22.174375 128.926606) scale(0.11 -0.11)">
       <use xlink:href="#ArialMT-32"/>
       <use xlink:href="#ArialMT-2e" transform="translate(55.615234 0)"/>
       <use xlink:href="#ArialMT-35" transform="translate(83.398438 0)"/>
      </g>
     </g>
    </g>
    <g id="ytick_7">
     <g id="line2d_15">
      <path d="M 46.964375 96.004571 
L 321.944375 96.004571 
" clip-path="url(#p6f782ca9cf)" style="fill: none; stroke: #cccccc; stroke-linecap: round"/>
     </g>
     <g id="text_16">
      <!-- 3.0 -->
      <g style="fill: #262626" transform="translate(22.174375 99.941368) scale(0.11 -0.11)">
       <use xlink:href="#ArialMT-33"/>
       <use xlink:href="#ArialMT-2e" transform="translate(55.615234 0)"/>
       <use xlink:href="#ArialMT-30" transform="translate(83.398438 0)"/>
      </g>
     </g>
    </g>
    <g id="ytick_8">
     <g id="line2d_16">
      <path d="M 46.964375 67.019333 
L 321.944375 67.019333 
" clip-path="url(#p6f782ca9cf)" style="fill: none; stroke: #cccccc; stroke-linecap: round"/>
     </g>
     <g id="text_17">
      <!-- 3.5 -->
      <g style="fill: #262626" transform="translate(22.174375 70.95613) scale(0.11 -0.11)">
       <use xlink:href="#ArialMT-33"/>
       <use xlink:href="#ArialMT-2e" transform="translate(55.615234 0)"/>
       <use xlink:href="#ArialMT-35" transform="translate(83.398438 0)"/>
      </g>
     </g>
    </g>
    <g id="ytick_9">
     <g id="line2d_17">
      <path d="M 46.964375 38.034095 
L 321.944375 38.034095 
" clip-path="url(#p6f782ca9cf)" style="fill: none; stroke: #cccccc; stroke-linecap: round"/>
     </g>
     <g id="text_18">
      <!-- 4.0 -->
      <g style="fill: #262626" transform="translate(22.174375 41.970892) scale(0.11 -0.11)">
       <use xlink:href="#ArialMT-34"/>
       <use xlink:href="#ArialMT-2e" transform="translate(55.615234 0)"/>
       <use xlink:href="#ArialMT-30" transform="translate(83.398438 0)"/>
      </g>
     </g>
    </g>
    <g id="text_19">
     <!-- count -->
     <g style="fill: #262626" transform="translate(15.789375 162.854562) rotate(-90) scale(0.12 -0.12)">
      <defs>
       <path id="ArialMT-63" d="M 2588 1216 
L 3141 1144 
Q 3050 572 2676 248 
Q 2303 -75 1759 -75 
Q 1078 -75 664 370 
Q 250 816 250 1647 
Q 250 2184 428 2587 
Q 606 2991 970 3192 
Q 1334 3394 1763 3394 
Q 2303 3394 2647 3120 
Q 2991 2847 3088 2344 
L 2541 2259 
Q 2463 2594 2264 2762 
Q 2066 2931 1784 2931 
Q 1359 2931 1093 2626 
Q 828 2322 828 1663 
Q 828 994 1084 691 
Q 1341 388 1753 388 
Q 2084 388 2306 591 
Q 2528 794 2588 1216 
z
" transform="scale(0.015625)"/>
       <path id="ArialMT-6f" d="M 213 1659 
Q 213 2581 725 3025 
Q 1153 3394 1769 3394 
Q 2453 3394 2887 2945 
Q 3322 2497 3322 1706 
Q 3322 1066 3130 698 
Q 2938 331 2570 128 
Q 2203 -75 1769 -75 
Q 1072 -75 642 372 
Q 213 819 213 1659 
z
M 791 1659 
Q 791 1022 1069 705 
Q 1347 388 1769 388 
Q 2188 388 2466 706 
Q 2744 1025 2744 1678 
Q 2744 2294 2464 2611 
Q 2184 2928 1769 2928 
Q 1347 2928 1069 2612 
Q 791 2297 791 1659 
z
" transform="scale(0.015625)"/>
       <path id="ArialMT-75" d="M 2597 0 
L 2597 488 
Q 2209 -75 1544 -75 
Q 1250 -75 995 37 
Q 741 150 617 320 
Q 494 491 444 738 
Q 409 903 409 1263 
L 409 3319 
L 972 3319 
L 972 1478 
Q 972 1038 1006 884 
Q 1059 663 1231 536 
Q 1403 409 1656 409 
Q 1909 409 2131 539 
Q 2353 669 2445 892 
Q 2538 1116 2538 1541 
L 2538 3319 
L 3100 3319 
L 3100 0 
L 2597 0 
z
" transform="scale(0.015625)"/>
       <path id="ArialMT-6e" d="M 422 0 
L 422 3319 
L 928 3319 
L 928 2847 
Q 1294 3394 1984 3394 
Q 2284 3394 2536 3286 
Q 2788 3178 2913 3003 
Q 3038 2828 3088 2588 
Q 3119 2431 3119 2041 
L 3119 0 
L 2556 0 
L 2556 2019 
Q 2556 2363 2490 2533 
Q 2425 2703 2258 2804 
Q 2091 2906 1866 2906 
Q 1506 2906 1245 2678 
Q 984 2450 984 1813 
L 984 0 
L 422 0 
z
" transform="scale(0.015625)"/>
       <path id="ArialMT-74" d="M 1650 503 
L 1731 6 
Q 1494 -44 1306 -44 
Q 1000 -44 831 53 
Q 663 150 594 308 
Q 525 466 525 972 
L 525 2881 
L 113 2881 
L 113 3319 
L 525 3319 
L 525 4141 
L 1084 4478 
L 1084 3319 
L 1650 3319 
L 1650 2881 
L 1084 2881 
L 1084 941 
Q 1084 700 1114 631 
Q 1144 563 1211 522 
Q 1278 481 1403 481 
Q 1497 481 1650 503 
z
" transform="scale(0.015625)"/>
      </defs>
      <use xlink:href="#ArialMT-63"/>
      <use xlink:href="#ArialMT-6f" transform="translate(50 0)"/>
      <use xlink:href="#ArialMT-75" transform="translate(105.615234 0)"/>
      <use xlink:href="#ArialMT-6e" transform="translate(161.230469 0)"/>
      <use xlink:href="#ArialMT-74" transform="translate(216.845703 0)"/>
     </g>
    </g>
   </g>
   <g id="patch_3">
    <path d="M 59.463466 269.916 
L 90.711193 269.916 
L 90.711193 96.004571 
L 59.463466 96.004571 
z
" clip-path="url(#p6f782ca9cf)" style="fill: #2368a2; fill-opacity: 0.5; stroke: #ffffff; stroke-linejoin: miter"/>
   </g>
   <g id="patch_4">
    <path d="M 90.711193 269.916 
L 121.95892 269.916 
L 121.95892 269.916 
L 90.711193 269.916 
z
" clip-path="url(#p6f782ca9cf)" style="fill: #2368a2; fill-opacity: 0.5; stroke: #ffffff; stroke-linejoin: miter"/>
   </g>
   <g id="patch_5">
    <path d="M 121.95892 269.916 
L 153.206648 269.916 
L 153.206648 211.945524 
L 121.95892 211.945524 
z
" clip-path="url(#p6f782ca9cf)" style="fill: #2368a2; fill-opacity: 0.5; stroke: #ffffff; stroke-linejoin: miter"/>
   </g>
   <g id="patch_6">
    <path d="M 153.206648 269.916 
L 184.454375 269.916 
L 184.454375 269.916 
L 153.206648 269.916 
z
" clip-path="url(#p6f782ca9cf)" style="fill: #2368a2; fill-opacity: 0.5; stroke: #ffffff; stroke-linejoin: miter"/>
   </g>
   <g id="patch_7">
    <path d="M 184.454375 269.916 
L 215.702102 269.916 
L 215.702102 38.034095 
L 184.454375 38.034095 
z
" clip-path="url(#p6f782ca9cf)" style="fill: #2368a2; fill-opacity: 0.5; stroke: #ffffff; stroke-linejoin: miter"/>
   </g>
   <g id="patch_8">
    <path d="M 215.702102 269.916 
L 246.94983 269.916 
L 246.94983 269.916 
L 215.702102 269.916 
z
" clip-path="url(#p6f782ca9cf)" style="fill: #2368a2; fill-opacity: 0.5; stroke: #ffffff; stroke-linejoin: miter"/>
   </g>
   <g id="patch_9">
    <path d="M 246.94983 269.916 
L 278.197557 269.916 
L 278.197557 269.916 
L 246.94983 269.916 
z
" clip-path="url(#p6f782ca9cf)" style="fill: #2368a2; fill-opacity: 0.5; stroke: #ffffff; stroke-linejoin: miter"/>
   </g>
   <g id="patch_10">
    <path d="M 278.197557 269.916 
L 309.445284 269.916 
L 309.445284 153.975048 
L 278.197557 153.975048 
z
" clip-path="url(#p6f782ca9cf)" style="fill: #2368a2; fill-opacity: 0.5; stroke: #ffffff; stroke-linejoin: miter"/>
   </g>
   <g id="line2d_18">
    <path d="M 59.463466 223.98436 
L 64.488226 222.540758 
L 69.512986 221.289812 
L 74.537746 220.229022 
L 80.818697 219.156532 
L 87.099647 218.337132 
L 93.380597 217.728556 
L 102.173927 217.131089 
L 131.066298 215.433629 
L 138.603438 214.673867 
L 146.140579 213.709566 
L 154.933909 212.348941 
L 167.495809 210.127208 
L 181.3139 207.730341 
L 188.85104 206.655999 
L 195.13199 205.97672 
L 201.412941 205.544055 
L 206.437701 205.400302 
L 211.462461 205.450955 
L 216.487221 205.703858 
L 221.511981 206.161624 
L 226.536741 206.821908 
L 231.561502 207.677888 
L 237.842452 209.00659 
L 244.123402 210.59716 
L 250.404352 212.417819 
L 257.941492 214.858639 
L 266.734823 217.986665 
L 276.784343 221.830802 
L 289.346243 226.894601 
L 309.445284 235.265302 
L 309.445284 235.265302 
" clip-path="url(#p6f782ca9cf)" style="fill: none; stroke: #2368a2; stroke-width: 1.5; stroke-linecap: round"/>
   </g>
   <g id="patch_11">
    <path d="M 46.964375 269.916 
L 46.964375 26.44 
" style="fill: none; stroke: #cccccc; stroke-width: 1.25; stroke-linejoin: miter; stroke-linecap: square"/>
   </g>
   <g id="patch_12">
    <path d="M 46.964375 269.916 
L 321.944375 269.916 
" style="fill: none; stroke: #cccccc; stroke-width: 1.25; stroke-linejoin: miter; stroke-linecap: square"/>
   </g>
   <g id="text_20">
    <!-- Sampled $\theta_i$ values -->
    <g style="fill: #262626" transform="translate(135.074375 16.44) scale(0.12 -0.12)">
     <defs>
      <path id="ArialMT-53" d="M 288 1472 
L 859 1522 
Q 900 1178 1048 958 
Q 1197 738 1509 602 
Q 1822 466 2213 466 
Q 2559 466 2825 569 
Q 3091 672 3220 851 
Q 3350 1031 3350 1244 
Q 3350 1459 3225 1620 
Q 3100 1781 2813 1891 
Q 2628 1963 1997 2114 
Q 1366 2266 1113 2400 
Q 784 2572 623 2826 
Q 463 3081 463 3397 
Q 463 3744 659 4045 
Q 856 4347 1234 4503 
Q 1613 4659 2075 4659 
Q 2584 4659 2973 4495 
Q 3363 4331 3572 4012 
Q 3781 3694 3797 3291 
L 3216 3247 
Q 3169 3681 2898 3903 
Q 2628 4125 2100 4125 
Q 1550 4125 1298 3923 
Q 1047 3722 1047 3438 
Q 1047 3191 1225 3031 
Q 1400 2872 2139 2705 
Q 2878 2538 3153 2413 
Q 3553 2228 3743 1945 
Q 3934 1663 3934 1294 
Q 3934 928 3725 604 
Q 3516 281 3123 101 
Q 2731 -78 2241 -78 
Q 1619 -78 1198 103 
Q 778 284 539 648 
Q 300 1013 288 1472 
z
" transform="scale(0.015625)"/>
      <path id="ArialMT-61" d="M 2588 409 
Q 2275 144 1986 34 
Q 1697 -75 1366 -75 
Q 819 -75 525 192 
Q 231 459 231 875 
Q 231 1119 342 1320 
Q 453 1522 633 1644 
Q 813 1766 1038 1828 
Q 1203 1872 1538 1913 
Q 2219 1994 2541 2106 
Q 2544 2222 2544 2253 
Q 2544 2597 2384 2738 
Q 2169 2928 1744 2928 
Q 1347 2928 1158 2789 
Q 969 2650 878 2297 
L 328 2372 
Q 403 2725 575 2942 
Q 747 3159 1072 3276 
Q 1397 3394 1825 3394 
Q 2250 3394 2515 3294 
Q 2781 3194 2906 3042 
Q 3031 2891 3081 2659 
Q 3109 2516 3109 2141 
L 3109 1391 
Q 3109 606 3145 398 
Q 3181 191 3288 0 
L 2700 0 
Q 2613 175 2588 409 
z
M 2541 1666 
Q 2234 1541 1622 1453 
Q 1275 1403 1131 1340 
Q 988 1278 909 1158 
Q 831 1038 831 891 
Q 831 666 1001 516 
Q 1172 366 1500 366 
Q 1825 366 2078 508 
Q 2331 650 2450 897 
Q 2541 1088 2541 1459 
L 2541 1666 
z
" transform="scale(0.015625)"/>
      <path id="ArialMT-6d" d="M 422 0 
L 422 3319 
L 925 3319 
L 925 2853 
Q 1081 3097 1340 3245 
Q 1600 3394 1931 3394 
Q 2300 3394 2536 3241 
Q 2772 3088 2869 2813 
Q 3263 3394 3894 3394 
Q 4388 3394 4653 3120 
Q 4919 2847 4919 2278 
L 4919 0 
L 4359 0 
L 4359 2091 
Q 4359 2428 4304 2576 
Q 4250 2725 4106 2815 
Q 3963 2906 3769 2906 
Q 3419 2906 3187 2673 
Q 2956 2441 2956 1928 
L 2956 0 
L 2394 0 
L 2394 2156 
Q 2394 2531 2256 2718 
Q 2119 2906 1806 2906 
Q 1569 2906 1367 2781 
Q 1166 2656 1075 2415 
Q 984 2175 984 1722 
L 984 0 
L 422 0 
z
" transform="scale(0.015625)"/>
      <path id="ArialMT-70" d="M 422 -1272 
L 422 3319 
L 934 3319 
L 934 2888 
Q 1116 3141 1344 3267 
Q 1572 3394 1897 3394 
Q 2322 3394 2647 3175 
Q 2972 2956 3137 2557 
Q 3303 2159 3303 1684 
Q 3303 1175 3120 767 
Q 2938 359 2589 142 
Q 2241 -75 1856 -75 
Q 1575 -75 1351 44 
Q 1128 163 984 344 
L 984 -1272 
L 422 -1272 
z
M 931 1641 
Q 931 1000 1190 694 
Q 1450 388 1819 388 
Q 2194 388 2461 705 
Q 2728 1022 2728 1688 
Q 2728 2322 2467 2637 
Q 2206 2953 1844 2953 
Q 1484 2953 1207 2617 
Q 931 2281 931 1641 
z
" transform="scale(0.015625)"/>
      <path id="ArialMT-6c" d="M 409 0 
L 409 4581 
L 972 4581 
L 972 0 
L 409 0 
z
" transform="scale(0.015625)"/>
      <path id="ArialMT-65" d="M 2694 1069 
L 3275 997 
Q 3138 488 2766 206 
Q 2394 -75 1816 -75 
Q 1088 -75 661 373 
Q 234 822 234 1631 
Q 234 2469 665 2931 
Q 1097 3394 1784 3394 
Q 2450 3394 2872 2941 
Q 3294 2488 3294 1666 
Q 3294 1616 3291 1516 
L 816 1516 
Q 847 969 1125 678 
Q 1403 388 1819 388 
Q 2128 388 2347 550 
Q 2566 713 2694 1069 
z
M 847 1978 
L 2700 1978 
Q 2663 2397 2488 2606 
Q 2219 2931 1791 2931 
Q 1403 2931 1139 2672 
Q 875 2413 847 1978 
z
" transform="scale(0.015625)"/>
      <path id="ArialMT-64" d="M 2575 0 
L 2575 419 
Q 2259 -75 1647 -75 
Q 1250 -75 917 144 
Q 584 363 401 755 
Q 219 1147 219 1656 
Q 219 2153 384 2558 
Q 550 2963 881 3178 
Q 1213 3394 1622 3394 
Q 1922 3394 2156 3267 
Q 2391 3141 2538 2938 
L 2538 4581 
L 3097 4581 
L 3097 0 
L 2575 0 
z
M 797 1656 
Q 797 1019 1065 703 
Q 1334 388 1700 388 
Q 2069 388 2326 689 
Q 2584 991 2584 1609 
Q 2584 2291 2321 2609 
Q 2059 2928 1675 2928 
Q 1300 2928 1048 2622 
Q 797 2316 797 1656 
z
" transform="scale(0.015625)"/>
      <path id="ArialMT-20" transform="scale(0.015625)"/>
      <path id="ArialMT-76" d="M 1344 0 
L 81 3319 
L 675 3319 
L 1388 1331 
Q 1503 1009 1600 663 
Q 1675 925 1809 1294 
L 2547 3319 
L 3125 3319 
L 1869 0 
L 1344 0 
z
" transform="scale(0.015625)"/>
      <path id="ArialMT-73" d="M 197 991 
L 753 1078 
Q 800 744 1014 566 
Q 1228 388 1613 388 
Q 2000 388 2187 545 
Q 2375 703 2375 916 
Q 2375 1106 2209 1216 
Q 2094 1291 1634 1406 
Q 1016 1563 777 1677 
Q 538 1791 414 1992 
Q 291 2194 291 2438 
Q 291 2659 392 2848 
Q 494 3038 669 3163 
Q 800 3259 1026 3326 
Q 1253 3394 1513 3394 
Q 1903 3394 2198 3281 
Q 2494 3169 2634 2976 
Q 2775 2784 2828 2463 
L 2278 2388 
Q 2241 2644 2061 2787 
Q 1881 2931 1553 2931 
Q 1166 2931 1000 2803 
Q 834 2675 834 2503 
Q 834 2394 903 2306 
Q 972 2216 1119 2156 
Q 1203 2125 1616 2013 
Q 2213 1853 2448 1751 
Q 2684 1650 2818 1456 
Q 2953 1263 2953 975 
Q 2953 694 2789 445 
Q 2625 197 2315 61 
Q 2006 -75 1616 -75 
Q 969 -75 630 194 
Q 291 463 197 991 
z
" transform="scale(0.015625)"/>
     </defs>
     <use xlink:href="#ArialMT-53" transform="translate(0 0.234375)"/>
     <use xlink:href="#ArialMT-61" transform="translate(66.699219 0.234375)"/>
     <use xlink:href="#ArialMT-6d" transform="translate(122.314453 0.234375)"/>
     <use xlink:href="#ArialMT-70" transform="translate(205.615234 0.234375)"/>
     <use xlink:href="#ArialMT-6c" transform="translate(261.230469 0.234375)"/>
     <use xlink:href="#ArialMT-65" transform="translate(283.447266 0.234375)"/>
     <use xlink:href="#ArialMT-64" transform="translate(339.0625 0.234375)"/>
     <use xlink:href="#ArialMT-20" transform="translate(394.677734 0.234375)"/>
     <use xlink:href="#DejaVuSans-Oblique-3b8" transform="translate(422.460938 0.234375)"/>
     <use xlink:href="#DejaVuSans-Oblique-69" transform="translate(483.642578 -16.171875) scale(0.7)"/>
     <use xlink:href="#ArialMT-20" transform="translate(505.825195 0.234375)"/>
     <use xlink:href="#ArialMT-76" transform="translate(533.608398 0.234375)"/>
     <use xlink:href="#ArialMT-61" transform="translate(583.608398 0.234375)"/>
     <use xlink:href="#ArialMT-6c" transform="translate(639.223633 0.234375)"/>
     <use xlink:href="#ArialMT-75" transform="translate(661.44043 0.234375)"/>
     <use xlink:href="#ArialMT-65" transform="translate(717.055664 0.234375)"/>
     <use xlink:href="#ArialMT-73" transform="translate(772.670898 0.234375)"/>
    </g>
   </g>
  </g>
  <g id="axes_2">
   <g id="patch_13">
    <path d="M 380.714375 269.916 
L 655.694375 269.916 
L 655.694375 26.44 
L 380.714375 26.44 
z
" style="fill: #ffffff"/>
   </g>
   <g id="matplotlib.axis_3">
    <g id="xtick_9">
     <g id="line2d_19">
      <path d="M 393.110321 269.916 
L 393.110321 26.44 
" clip-path="url(#p274453f354)" style="fill: none; stroke: #cccccc; stroke-linecap: round"/>
     </g>
     <g id="text_21">
      <!-- 0.0 -->
      <g style="fill: #262626" transform="translate(385.465321 287.289594) scale(0.11 -0.11)">
       <use xlink:href="#ArialMT-30"/>
       <use xlink:href="#ArialMT-2e" transform="translate(55.615234 0)"/>
       <use xlink:href="#ArialMT-30" transform="translate(83.398438 0)"/>
      </g>
     </g>
    </g>
    <g id="xtick_10">
     <g id="line2d_20">
      <path d="M 443.250944 269.916 
L 443.250944 26.44 
" clip-path="url(#p274453f354)" style="fill: none; stroke: #cccccc; stroke-linecap: round"/>
     </g>
     <g id="text_22">
      <!-- 0.2 -->
      <g style="fill: #262626" transform="translate(435.605944 287.289594) scale(0.11 -0.11)">
       <use xlink:href="#ArialMT-30"/>
       <use xlink:href="#ArialMT-2e" transform="translate(55.615234 0)"/>
       <use xlink:href="#ArialMT-32" transform="translate(83.398438 0)"/>
      </g>
     </g>
    </g>
    <g id="xtick_11">
     <g id="line2d_21">
      <path d="M 493.391567 269.916 
L 493.391567 26.44 
" clip-path="url(#p274453f354)" style="fill: none; stroke: #cccccc; stroke-linecap: round"/>
     </g>
     <g id="text_23">
      <!-- 0.4 -->
      <g style="fill: #262626" transform="translate(485.746567 287.289594) scale(0.11 -0.11)">
       <use xlink:href="#ArialMT-30"/>
       <use xlink:href="#ArialMT-2e" transform="translate(55.615234 0)"/>
       <use xlink:href="#ArialMT-34" transform="translate(83.398438 0)"/>
      </g>
     </g>
    </g>
    <g id="xtick_12">
     <g id="line2d_22">
      <path d="M 543.53219 269.916 
L 543.53219 26.44 
" clip-path="url(#p274453f354)" style="fill: none; stroke: #cccccc; stroke-linecap: round"/>
     </g>
     <g id="text_24">
      <!-- 0.6 -->
      <g style="fill: #262626" transform="translate(535.88719 287.289594) scale(0.11 -0.11)">
       <use xlink:href="#ArialMT-30"/>
       <use xlink:href="#ArialMT-2e" transform="translate(55.615234 0)"/>
       <use xlink:href="#ArialMT-36" transform="translate(83.398438 0)"/>
      </g>
     </g>
    </g>
    <g id="xtick_13">
     <g id="line2d_23">
      <path d="M 593.672813 269.916 
L 593.672813 26.44 
" clip-path="url(#p274453f354)" style="fill: none; stroke: #cccccc; stroke-linecap: round"/>
     </g>
     <g id="text_25">
      <!-- 0.8 -->
      <g style="fill: #262626" transform="translate(586.027813 287.289594) scale(0.11 -0.11)">
       <defs>
        <path id="ArialMT-38" d="M 1131 2484 
Q 781 2613 612 2850 
Q 444 3088 444 3419 
Q 444 3919 803 4259 
Q 1163 4600 1759 4600 
Q 2359 4600 2725 4251 
Q 3091 3903 3091 3403 
Q 3091 3084 2923 2848 
Q 2756 2613 2416 2484 
Q 2838 2347 3058 2040 
Q 3278 1734 3278 1309 
Q 3278 722 2862 322 
Q 2447 -78 1769 -78 
Q 1091 -78 675 323 
Q 259 725 259 1325 
Q 259 1772 486 2073 
Q 713 2375 1131 2484 
z
M 1019 3438 
Q 1019 3113 1228 2906 
Q 1438 2700 1772 2700 
Q 2097 2700 2305 2904 
Q 2513 3109 2513 3406 
Q 2513 3716 2298 3927 
Q 2084 4138 1766 4138 
Q 1444 4138 1231 3931 
Q 1019 3725 1019 3438 
z
M 838 1322 
Q 838 1081 952 856 
Q 1066 631 1291 507 
Q 1516 384 1775 384 
Q 2178 384 2440 643 
Q 2703 903 2703 1303 
Q 2703 1709 2433 1975 
Q 2163 2241 1756 2241 
Q 1359 2241 1098 1978 
Q 838 1716 838 1322 
z
" transform="scale(0.015625)"/>
       </defs>
       <use xlink:href="#ArialMT-30"/>
       <use xlink:href="#ArialMT-2e" transform="translate(55.615234 0)"/>
       <use xlink:href="#ArialMT-38" transform="translate(83.398438 0)"/>
      </g>
     </g>
    </g>
    <g id="xtick_14">
     <g id="line2d_24">
      <path d="M 643.813436 269.916 
L 643.813436 26.44 
" clip-path="url(#p274453f354)" style="fill: none; stroke: #cccccc; stroke-linecap: round"/>
     </g>
     <g id="text_26">
      <!-- 1.0 -->
      <g style="fill: #262626" transform="translate(636.168436 287.289594) scale(0.11 -0.11)">
       <use xlink:href="#ArialMT-31"/>
       <use xlink:href="#ArialMT-2e" transform="translate(55.615234 0)"/>
       <use xlink:href="#ArialMT-30" transform="translate(83.398438 0)"/>
      </g>
     </g>
    </g>
    <g id="text_27">
     <!-- $\delta_j$ -->
     <g style="fill: #262626" transform="translate(513.164375 302.475844) scale(0.12 -0.12)">
      <defs>
       <path id="DejaVuSans-Oblique-3b4" d="M 3472 4053 
Q 3197 4272 2450 4272 
Q 1659 4272 1588 3906 
Q 1531 3619 2328 3469 
Q 2953 3353 3253 3003 
Q 3616 2581 3447 1716 
Q 3284 888 2763 400 
Q 2238 -91 1488 -91 
Q 741 -91 406 400 
Q 72 888 241 1747 
Q 363 2384 891 2900 
Q 1097 3100 1353 3213 
Q 913 3459 1000 3900 
Q 1166 4750 2544 4750 
Q 3234 4750 3566 4531 
L 3472 4053 
z
M 1753 3056 
Q 1525 2966 1306 2738 
Q 969 2384 847 1747 
Q 722 1113 919 756 
Q 1119 397 1584 397 
Q 2044 397 2381 759 
Q 2722 1122 2838 1716 
Q 2956 2338 2731 2638 
Q 2491 2959 2103 2994 
Q 1906 3013 1753 3056 
z
" transform="scale(0.015625)"/>
       <path id="DejaVuSans-Oblique-6a" d="M 928 3500 
L 1503 3500 
L 813 -63 
L 809 -78 
Q 694 -675 544 -897 
Q 403 -1106 132 -1218 
Q -138 -1331 -506 -1331 
L -722 -1331 
L -628 -844 
L -481 -844 
Q -144 -844 -1 -703 
Q 141 -563 238 -63 
L 928 3500 
z
M 1197 4863 
L 1772 4863 
L 1631 4134 
L 1056 4134 
L 1197 4863 
z
" transform="scale(0.015625)"/>
      </defs>
      <use xlink:href="#DejaVuSans-Oblique-3b4" transform="translate(0 0.78125)"/>
      <use xlink:href="#DejaVuSans-Oblique-6a" transform="translate(61.181641 -15.625) scale(0.7)"/>
     </g>
    </g>
   </g>
   <g id="matplotlib.axis_4">
    <g id="ytick_10">
     <g id="line2d_25">
      <path d="M 380.714375 269.916 
L 655.694375 269.916 
" clip-path="url(#p274453f354)" style="fill: none; stroke: #cccccc; stroke-linecap: round"/>
     </g>
     <g id="text_28">
      <!-- 0.0 -->
      <g style="fill: #262626" transform="translate(355.924375 273.852797) scale(0.11 -0.11)">
       <use xlink:href="#ArialMT-30"/>
       <use xlink:href="#ArialMT-2e" transform="translate(55.615234 0)"/>
       <use xlink:href="#ArialMT-30" transform="translate(83.398438 0)"/>
      </g>
     </g>
    </g>
    <g id="ytick_11">
     <g id="line2d_26">
      <path d="M 380.714375 240.930762 
L 655.694375 240.930762 
" clip-path="url(#p274453f354)" style="fill: none; stroke: #cccccc; stroke-linecap: round"/>
     </g>
     <g id="text_29">
      <!-- 2.5 -->
      <g style="fill: #262626" transform="translate(355.924375 244.867559) scale(0.11 -0.11)">
       <use xlink:href="#ArialMT-32"/>
       <use xlink:href="#ArialMT-2e" transform="translate(55.615234 0)"/>
       <use xlink:href="#ArialMT-35" transform="translate(83.398438 0)"/>
      </g>
     </g>
    </g>
    <g id="ytick_12">
     <g id="line2d_27">
      <path d="M 380.714375 211.945524 
L 655.694375 211.945524 
" clip-path="url(#p274453f354)" style="fill: none; stroke: #cccccc; stroke-linecap: round"/>
     </g>
     <g id="text_30">
      <!-- 5.0 -->
      <g style="fill: #262626" transform="translate(355.924375 215.882321) scale(0.11 -0.11)">
       <use xlink:href="#ArialMT-35"/>
       <use xlink:href="#ArialMT-2e" transform="translate(55.615234 0)"/>
       <use xlink:href="#ArialMT-30" transform="translate(83.398438 0)"/>
      </g>
     </g>
    </g>
    <g id="ytick_13">
     <g id="line2d_28">
      <path d="M 380.714375 182.960286 
L 655.694375 182.960286 
" clip-path="url(#p274453f354)" style="fill: none; stroke: #cccccc; stroke-linecap: round"/>
     </g>
     <g id="text_31">
      <!-- 7.5 -->
      <g style="fill: #262626" transform="translate(355.924375 186.897083) scale(0.11 -0.11)">
       <use xlink:href="#ArialMT-37"/>
       <use xlink:href="#ArialMT-2e" transform="translate(55.615234 0)"/>
       <use xlink:href="#ArialMT-35" transform="translate(83.398438 0)"/>
      </g>
     </g>
    </g>
    <g id="ytick_14">
     <g id="line2d_29">
      <path d="M 380.714375 153.975048 
L 655.694375 153.975048 
" clip-path="url(#p274453f354)" style="fill: none; stroke: #cccccc; stroke-linecap: round"/>
     </g>
     <g id="text_32">
      <!-- 10.0 -->
      <g style="fill: #262626" transform="translate(349.807344 157.911844) scale(0.11 -0.11)">
       <use xlink:href="#ArialMT-31"/>
       <use xlink:href="#ArialMT-30" transform="translate(55.615234 0)"/>
       <use xlink:href="#ArialMT-2e" transform="translate(111.230469 0)"/>
       <use xlink:href="#ArialMT-30" transform="translate(139.013672 0)"/>
      </g>
     </g>
    </g>
    <g id="ytick_15">
     <g id="line2d_30">
      <path d="M 380.714375 124.98981 
L 655.694375 124.98981 
" clip-path="url(#p274453f354)" style="fill: none; stroke: #cccccc; stroke-linecap: round"/>
     </g>
     <g id="text_33">
      <!-- 12.5 -->
      <g style="fill: #262626" transform="translate(349.807344 128.926606) scale(0.11 -0.11)">
       <use xlink:href="#ArialMT-31"/>
       <use xlink:href="#ArialMT-32" transform="translate(55.615234 0)"/>
       <use xlink:href="#ArialMT-2e" transform="translate(111.230469 0)"/>
       <use xlink:href="#ArialMT-35" transform="translate(139.013672 0)"/>
      </g>
     </g>
    </g>
    <g id="ytick_16">
     <g id="line2d_31">
      <path d="M 380.714375 96.004571 
L 655.694375 96.004571 
" clip-path="url(#p274453f354)" style="fill: none; stroke: #cccccc; stroke-linecap: round"/>
     </g>
     <g id="text_34">
      <!-- 15.0 -->
      <g style="fill: #262626" transform="translate(349.807344 99.941368) scale(0.11 -0.11)">
       <use xlink:href="#ArialMT-31"/>
       <use xlink:href="#ArialMT-35" transform="translate(55.615234 0)"/>
       <use xlink:href="#ArialMT-2e" transform="translate(111.230469 0)"/>
       <use xlink:href="#ArialMT-30" transform="translate(139.013672 0)"/>
      </g>
     </g>
    </g>
    <g id="ytick_17">
     <g id="line2d_32">
      <path d="M 380.714375 67.019333 
L 655.694375 67.019333 
" clip-path="url(#p274453f354)" style="fill: none; stroke: #cccccc; stroke-linecap: round"/>
     </g>
     <g id="text_35">
      <!-- 17.5 -->
      <g style="fill: #262626" transform="translate(349.807344 70.95613) scale(0.11 -0.11)">
       <use xlink:href="#ArialMT-31"/>
       <use xlink:href="#ArialMT-37" transform="translate(55.615234 0)"/>
       <use xlink:href="#ArialMT-2e" transform="translate(111.230469 0)"/>
       <use xlink:href="#ArialMT-35" transform="translate(139.013672 0)"/>
      </g>
     </g>
    </g>
    <g id="ytick_18">
     <g id="line2d_33">
      <path d="M 380.714375 38.034095 
L 655.694375 38.034095 
" clip-path="url(#p274453f354)" style="fill: none; stroke: #cccccc; stroke-linecap: round"/>
     </g>
     <g id="text_36">
      <!-- 20.0 -->
      <g style="fill: #262626" transform="translate(349.807344 41.970892) scale(0.11 -0.11)">
       <use xlink:href="#ArialMT-32"/>
       <use xlink:href="#ArialMT-30" transform="translate(55.615234 0)"/>
       <use xlink:href="#ArialMT-2e" transform="translate(111.230469 0)"/>
       <use xlink:href="#ArialMT-30" transform="translate(139.013672 0)"/>
      </g>
     </g>
    </g>
    <g id="text_37">
     <!-- count -->
     <g style="fill: #262626" transform="translate(343.422344 162.854562) rotate(-90) scale(0.12 -0.12)">
      <use xlink:href="#ArialMT-63"/>
      <use xlink:href="#ArialMT-6f" transform="translate(50 0)"/>
      <use xlink:href="#ArialMT-75" transform="translate(105.615234 0)"/>
      <use xlink:href="#ArialMT-6e" transform="translate(161.230469 0)"/>
      <use xlink:href="#ArialMT-74" transform="translate(216.845703 0)"/>
     </g>
    </g>
   </g>
   <g id="patch_14">
    <path d="M 393.213466 269.916 
L 404.576276 269.916 
L 404.576276 72.816381 
L 393.213466 72.816381 
z
" clip-path="url(#p274453f354)" style="fill: #d6632f; fill-opacity: 0.5; stroke: #ffffff; stroke-width: 0.949441; stroke-linejoin: miter"/>
   </g>
   <g id="patch_15">
    <path d="M 404.576276 269.916 
L 415.939086 269.916 
L 415.939086 119.192762 
L 404.576276 119.192762 
z
" clip-path="url(#p274453f354)" style="fill: #d6632f; fill-opacity: 0.5; stroke: #ffffff; stroke-width: 0.949441; stroke-linejoin: miter"/>
   </g>
   <g id="patch_16">
    <path d="M 415.939086 269.916 
L 427.301896 269.916 
L 427.301896 142.380952 
L 415.939086 142.380952 
z
" clip-path="url(#p274453f354)" style="fill: #d6632f; fill-opacity: 0.5; stroke: #ffffff; stroke-width: 0.949441; stroke-linejoin: miter"/>
   </g>
   <g id="patch_17">
    <path d="M 427.301896 269.916 
L 438.664706 269.916 
L 438.664706 72.816381 
L 427.301896 72.816381 
z
" clip-path="url(#p274453f354)" style="fill: #d6632f; fill-opacity: 0.5; stroke: #ffffff; stroke-width: 0.949441; stroke-linejoin: miter"/>
   </g>
   <g id="patch_18">
    <path d="M 438.664706 269.916 
L 450.027515 269.916 
L 450.027515 72.816381 
L 438.664706 72.816381 
z
" clip-path="url(#p274453f354)" style="fill: #d6632f; fill-opacity: 0.5; stroke: #ffffff; stroke-width: 0.949441; stroke-linejoin: miter"/>
   </g>
   <g id="patch_19">
    <path d="M 450.027515 269.916 
L 461.390325 269.916 
L 461.390325 153.975048 
L 450.027515 153.975048 
z
" clip-path="url(#p274453f354)" style="fill: #d6632f; fill-opacity: 0.5; stroke: #ffffff; stroke-width: 0.949441; stroke-linejoin: miter"/>
   </g>
   <g id="patch_20">
    <path d="M 461.390325 269.916 
L 472.753135 269.916 
L 472.753135 38.034095 
L 461.390325 38.034095 
z
" clip-path="url(#p274453f354)" style="fill: #d6632f; fill-opacity: 0.5; stroke: #ffffff; stroke-width: 0.949441; stroke-linejoin: miter"/>
   </g>
   <g id="patch_21">
    <path d="M 472.753135 269.916 
L 484.115945 269.916 
L 484.115945 72.816381 
L 472.753135 72.816381 
z
" clip-path="url(#p274453f354)" style="fill: #d6632f; fill-opacity: 0.5; stroke: #ffffff; stroke-width: 0.949441; stroke-linejoin: miter"/>
   </g>
   <g id="patch_22">
    <path d="M 484.115945 269.916 
L 495.478755 269.916 
L 495.478755 177.163238 
L 484.115945 177.163238 
z
" clip-path="url(#p274453f354)" style="fill: #d6632f; fill-opacity: 0.5; stroke: #ffffff; stroke-width: 0.949441; stroke-linejoin: miter"/>
   </g>
   <g id="patch_23">
    <path d="M 495.478755 269.916 
L 506.841565 269.916 
L 506.841565 153.975048 
L 495.478755 153.975048 
z
" clip-path="url(#p274453f354)" style="fill: #d6632f; fill-opacity: 0.5; stroke: #ffffff; stroke-width: 0.949441; stroke-linejoin: miter"/>
   </g>
   <g id="patch_24">
    <path d="M 506.841565 269.916 
L 518.204375 269.916 
L 518.204375 177.163238 
L 506.841565 177.163238 
z
" clip-path="url(#p274453f354)" style="fill: #d6632f; fill-opacity: 0.5; stroke: #ffffff; stroke-width: 0.949441; stroke-linejoin: miter"/>
   </g>
   <g id="patch_25">
    <path d="M 518.204375 269.916 
L 529.567185 269.916 
L 529.567185 107.598667 
L 518.204375 107.598667 
z
" clip-path="url(#p274453f354)" style="fill: #d6632f; fill-opacity: 0.5; stroke: #ffffff; stroke-width: 0.949441; stroke-linejoin: miter"/>
   </g>
   <g id="patch_26">
    <path d="M 529.567185 269.916 
L 540.929995 269.916 
L 540.929995 142.380952 
L 529.567185 142.380952 
z
" clip-path="url(#p274453f354)" style="fill: #d6632f; fill-opacity: 0.5; stroke: #ffffff; stroke-width: 0.949441; stroke-linejoin: miter"/>
   </g>
   <g id="patch_27">
    <path d="M 540.929995 269.916 
L 552.292805 269.916 
L 552.292805 96.004571 
L 540.929995 96.004571 
z
" clip-path="url(#p274453f354)" style="fill: #d6632f; fill-opacity: 0.5; stroke: #ffffff; stroke-width: 0.949441; stroke-linejoin: miter"/>
   </g>
   <g id="patch_28">
    <path d="M 552.292805 269.916 
L 563.655615 269.916 
L 563.655615 107.598667 
L 552.292805 107.598667 
z
" clip-path="url(#p274453f354)" style="fill: #d6632f; fill-opacity: 0.5; stroke: #ffffff; stroke-width: 0.949441; stroke-linejoin: miter"/>
   </g>
   <g id="patch_29">
    <path d="M 563.655615 269.916 
L 575.018425 269.916 
L 575.018425 142.380952 
L 563.655615 142.380952 
z
" clip-path="url(#p274453f354)" style="fill: #d6632f; fill-opacity: 0.5; stroke: #ffffff; stroke-width: 0.949441; stroke-linejoin: miter"/>
   </g>
   <g id="patch_30">
    <path d="M 575.018425 269.916 
L 586.381235 269.916 
L 586.381235 96.004571 
L 575.018425 96.004571 
z
" clip-path="url(#p274453f354)" style="fill: #d6632f; fill-opacity: 0.5; stroke: #ffffff; stroke-width: 0.949441; stroke-linejoin: miter"/>
   </g>
   <g id="patch_31">
    <path d="M 586.381235 269.916 
L 597.744044 269.916 
L 597.744044 49.62819 
L 586.381235 49.62819 
z
" clip-path="url(#p274453f354)" style="fill: #d6632f; fill-opacity: 0.5; stroke: #ffffff; stroke-width: 0.949441; stroke-linejoin: miter"/>
   </g>
   <g id="patch_32">
    <path d="M 597.744044 269.916 
L 609.106854 269.916 
L 609.106854 130.786857 
L 597.744044 130.786857 
z
" clip-path="url(#p274453f354)" style="fill: #d6632f; fill-opacity: 0.5; stroke: #ffffff; stroke-width: 0.949441; stroke-linejoin: miter"/>
   </g>
   <g id="patch_33">
    <path d="M 609.106854 269.916 
L 620.469664 269.916 
L 620.469664 200.351429 
L 609.106854 200.351429 
z
" clip-path="url(#p274453f354)" style="fill: #d6632f; fill-opacity: 0.5; stroke: #ffffff; stroke-width: 0.949441; stroke-linejoin: miter"/>
   </g>
   <g id="patch_34">
    <path d="M 620.469664 269.916 
L 631.832474 269.916 
L 631.832474 72.816381 
L 620.469664 72.816381 
z
" clip-path="url(#p274453f354)" style="fill: #d6632f; fill-opacity: 0.5; stroke: #ffffff; stroke-width: 0.949441; stroke-linejoin: miter"/>
   </g>
   <g id="patch_35">
    <path d="M 631.832474 269.916 
L 643.195284 269.916 
L 643.195284 61.222286 
L 631.832474 61.222286 
z
" clip-path="url(#p274453f354)" style="fill: #d6632f; fill-opacity: 0.5; stroke: #ffffff; stroke-width: 0.949441; stroke-linejoin: miter"/>
   </g>
   <g id="line2d_34">
    <path d="M 393.213466 186.964049 
L 402.006796 162.890844 
L 405.775366 153.138489 
L 409.543936 143.979101 
L 413.312507 135.54051 
L 415.824887 130.360535 
L 418.337267 125.558044 
L 420.849647 121.143432 
L 423.362027 117.121399 
L 425.874407 113.491978 
L 428.386787 110.251608 
L 430.899167 107.394195 
L 433.411547 104.9121 
L 435.923927 102.797009 
L 438.436307 101.040643 
L 440.948687 99.635286 
L 443.461068 98.574091 
L 445.973448 97.851175 
L 448.485828 97.461463 
L 450.998208 97.40032 
L 453.510588 97.662953 
L 456.022968 98.243639 
L 458.535348 99.134818 
L 461.047728 100.326114 
L 463.560108 101.803367 
L 466.072488 103.547757 
L 468.584868 105.535129 
L 472.353438 108.904752 
L 476.122009 112.627267 
L 489.940099 126.700775 
L 492.452479 128.893627 
L 494.964859 130.860788 
L 497.477239 132.568944 
L 499.989619 133.992695 
L 502.501999 135.115123 
L 505.01438 135.927934 
L 507.52676 136.431191 
L 510.03914 136.632697 
L 512.55152 136.547084 
L 515.0639 136.194711 
L 517.57628 135.600432 
L 520.08866 134.792349 
L 522.60104 133.800591 
L 526.36961 132.036472 
L 531.39437 129.328267 
L 548.981031 119.418032 
L 554.005791 117.038544 
L 557.774361 115.481754 
L 561.542931 114.144434 
L 565.311502 113.047228 
L 569.080072 112.212173 
L 572.848642 111.663448 
L 576.617212 111.426453 
L 579.129592 111.453793 
L 581.641972 111.636956 
L 584.154352 111.981214 
L 586.666732 112.490545 
L 589.179112 113.167626 
L 591.691492 114.01407 
L 594.203872 115.030906 
L 596.716253 116.219293 
L 599.228633 117.581393 
L 601.741013 119.121323 
L 604.253393 120.846044 
L 606.765773 122.766082 
L 609.278153 124.895928 
L 611.790533 127.254016 
L 614.302913 129.862204 
L 616.815293 132.744736 
L 619.327673 135.9267 
L 621.840053 139.432079 
L 624.352433 143.281534 
L 626.864814 147.490071 
L 629.377194 152.064819 
L 631.889574 157.003104 
L 635.658144 165.058413 
L 639.426714 173.799555 
L 643.195284 183.069162 
L 643.195284 183.069162 
" clip-path="url(#p274453f354)" style="fill: none; stroke: #d6632f; stroke-width: 1.5; stroke-linecap: round"/>
   </g>
   <g id="patch_36">
    <path d="M 380.714375 269.916 
L 380.714375 26.44 
" style="fill: none; stroke: #cccccc; stroke-width: 1.25; stroke-linejoin: miter; stroke-linecap: square"/>
   </g>
   <g id="patch_37">
    <path d="M 380.714375 269.916 
L 655.694375 269.916 
" style="fill: none; stroke: #cccccc; stroke-width: 1.25; stroke-linejoin: miter; stroke-linecap: square"/>
   </g>
   <g id="text_38">
    <!-- Sampled $\delta_j$ values -->
    <g style="fill: #262626" transform="translate(468.824375 16.44) scale(0.12 -0.12)">
     <use xlink:href="#ArialMT-53" transform="translate(0 0.78125)"/>
     <use xlink:href="#ArialMT-61" transform="translate(66.699219 0.78125)"/>
     <use xlink:href="#ArialMT-6d" transform="translate(122.314453 0.78125)"/>
     <use xlink:href="#ArialMT-70" transform="translate(205.615234 0.78125)"/>
     <use xlink:href="#ArialMT-6c" transform="translate(261.230469 0.78125)"/>
     <use xlink:href="#ArialMT-65" transform="translate(283.447266 0.78125)"/>
     <use xlink:href="#ArialMT-64" transform="translate(339.0625 0.78125)"/>
     <use xlink:href="#ArialMT-20" transform="translate(394.677734 0.78125)"/>
     <use xlink:href="#DejaVuSans-Oblique-3b4" transform="translate(422.460938 0.78125)"/>
     <use xlink:href="#DejaVuSans-Oblique-6a" transform="translate(483.642578 -15.625) scale(0.7)"/>
     <use xlink:href="#ArialMT-20" transform="translate(505.825195 0.78125)"/>
     <use xlink:href="#ArialMT-76" transform="translate(533.608398 0.78125)"/>
     <use xlink:href="#ArialMT-61" transform="translate(583.608398 0.78125)"/>
     <use xlink:href="#ArialMT-6c" transform="translate(639.223633 0.78125)"/>
     <use xlink:href="#ArialMT-75" transform="translate(661.44043 0.78125)"/>
     <use xlink:href="#ArialMT-65" transform="translate(717.055664 0.78125)"/>
     <use xlink:href="#ArialMT-73" transform="translate(772.670898 0.78125)"/>
    </g>
   </g>
  </g>
  <g id="axes_3">
   <g id="patch_38">
    <path d="M 714.464375 269.916 
L 989.444375 269.916 
L 989.444375 26.44 
L 714.464375 26.44 
z
" style="fill: #ffffff"/>
   </g>
   <g id="matplotlib.axis_5">
    <g id="xtick_15">
     <g id="line2d_35">
      <path d="M 750.659391 269.916 
L 750.659391 26.44 
" clip-path="url(#pf8bf2227e9)" style="fill: none; stroke: #cccccc; stroke-linecap: round"/>
     </g>
     <g id="text_39">
      <!-- −1 -->
      <g style="fill: #262626" transform="translate(744.388531 287.289594) scale(0.11 -0.11)">
       <defs>
        <path id="ArialMT-2212" d="M 3381 1997 
L 356 1997 
L 356 2522 
L 3381 2522 
L 3381 1997 
z
" transform="scale(0.015625)"/>
       </defs>
       <use xlink:href="#ArialMT-2212"/>
       <use xlink:href="#ArialMT-31" transform="translate(58.398438 0)"/>
      </g>
     </g>
    </g>
    <g id="xtick_16">
     <g id="line2d_36">
      <path d="M 796.67763 269.916 
L 796.67763 26.44 
" clip-path="url(#pf8bf2227e9)" style="fill: none; stroke: #cccccc; stroke-linecap: round"/>
     </g>
     <g id="text_40">
      <!-- 0 -->
      <g style="fill: #262626" transform="translate(793.619115 287.289594) scale(0.11 -0.11)">
       <use xlink:href="#ArialMT-30"/>
      </g>
     </g>
    </g>
    <g id="xtick_17">
     <g id="line2d_37">
      <path d="M 842.69587 269.916 
L 842.69587 26.44 
" clip-path="url(#pf8bf2227e9)" style="fill: none; stroke: #cccccc; stroke-linecap: round"/>
     </g>
     <g id="text_41">
      <!-- 1 -->
      <g style="fill: #262626" transform="translate(839.637355 287.289594) scale(0.11 -0.11)">
       <use xlink:href="#ArialMT-31"/>
      </g>
     </g>
    </g>
    <g id="xtick_18">
     <g id="line2d_38">
      <path d="M 888.71411 269.916 
L 888.71411 26.44 
" clip-path="url(#pf8bf2227e9)" style="fill: none; stroke: #cccccc; stroke-linecap: round"/>
     </g>
     <g id="text_42">
      <!-- 2 -->
      <g style="fill: #262626" transform="translate(885.655594 287.289594) scale(0.11 -0.11)">
       <use xlink:href="#ArialMT-32"/>
      </g>
     </g>
    </g>
    <g id="xtick_19">
     <g id="line2d_39">
      <path d="M 934.73235 269.916 
L 934.73235 26.44 
" clip-path="url(#pf8bf2227e9)" style="fill: none; stroke: #cccccc; stroke-linecap: round"/>
     </g>
     <g id="text_43">
      <!-- 3 -->
      <g style="fill: #262626" transform="translate(931.673834 287.289594) scale(0.11 -0.11)">
       <use xlink:href="#ArialMT-33"/>
      </g>
     </g>
    </g>
    <g id="xtick_20">
     <g id="line2d_40">
      <path d="M 980.750589 269.916 
L 980.750589 26.44 
" clip-path="url(#pf8bf2227e9)" style="fill: none; stroke: #cccccc; stroke-linecap: round"/>
     </g>
     <g id="text_44">
      <!-- 4 -->
      <g style="fill: #262626" transform="translate(977.692074 287.289594) scale(0.11 -0.11)">
       <use xlink:href="#ArialMT-34"/>
      </g>
     </g>
    </g>
    <g id="text_45">
     <!-- $a_j$ -->
     <g style="fill: #262626" transform="translate(846.914375 300.730219) scale(0.12 -0.12)">
      <defs>
       <path id="DejaVuSans-Oblique-61" d="M 3438 1997 
L 3047 0 
L 2472 0 
L 2578 531 
Q 2325 219 2001 64 
Q 1678 -91 1281 -91 
Q 834 -91 548 182 
Q 263 456 263 884 
Q 263 1497 752 1853 
Q 1241 2209 2100 2209 
L 2900 2209 
L 2931 2363 
Q 2938 2388 2941 2417 
Q 2944 2447 2944 2509 
Q 2944 2788 2717 2942 
Q 2491 3097 2081 3097 
Q 1800 3097 1504 3025 
Q 1209 2953 897 2809 
L 997 3341 
Q 1322 3463 1633 3523 
Q 1944 3584 2234 3584 
Q 2853 3584 3176 3315 
Q 3500 3047 3500 2534 
Q 3500 2431 3484 2292 
Q 3469 2153 3438 1997 
z
M 2816 1759 
L 2241 1759 
Q 1534 1759 1195 1570 
Q 856 1381 856 984 
Q 856 709 1029 553 
Q 1203 397 1509 397 
Q 1978 397 2328 733 
Q 2678 1069 2791 1631 
L 2816 1759 
z
" transform="scale(0.015625)"/>
      </defs>
      <use xlink:href="#DejaVuSans-Oblique-61"/>
      <use xlink:href="#DejaVuSans-Oblique-6a" transform="translate(61.279297 -16.40625) scale(0.7)"/>
     </g>
    </g>
   </g>
   <g id="matplotlib.axis_6">
    <g id="ytick_19">
     <g id="line2d_41">
      <path d="M 714.464375 269.916 
L 989.444375 269.916 
" clip-path="url(#pf8bf2227e9)" style="fill: none; stroke: #cccccc; stroke-linecap: round"/>
     </g>
     <g id="text_46">
      <!-- 0 -->
      <g style="fill: #262626" transform="translate(698.847344 273.852797) scale(0.11 -0.11)">
       <use xlink:href="#ArialMT-30"/>
      </g>
     </g>
    </g>
    <g id="ytick_20">
     <g id="line2d_42">
      <path d="M 714.464375 237.71018 
L 989.444375 237.71018 
" clip-path="url(#pf8bf2227e9)" style="fill: none; stroke: #cccccc; stroke-linecap: round"/>
     </g>
     <g id="text_47">
      <!-- 5 -->
      <g style="fill: #262626" transform="translate(698.847344 241.646977) scale(0.11 -0.11)">
       <use xlink:href="#ArialMT-35"/>
      </g>
     </g>
    </g>
    <g id="ytick_21">
     <g id="line2d_43">
      <path d="M 714.464375 205.50436 
L 989.444375 205.50436 
" clip-path="url(#pf8bf2227e9)" style="fill: none; stroke: #cccccc; stroke-linecap: round"/>
     </g>
     <g id="text_48">
      <!-- 10 -->
      <g style="fill: #262626" transform="translate(692.730312 209.441157) scale(0.11 -0.11)">
       <use xlink:href="#ArialMT-31"/>
       <use xlink:href="#ArialMT-30" transform="translate(55.615234 0)"/>
      </g>
     </g>
    </g>
    <g id="ytick_22">
     <g id="line2d_44">
      <path d="M 714.464375 173.29854 
L 989.444375 173.29854 
" clip-path="url(#pf8bf2227e9)" style="fill: none; stroke: #cccccc; stroke-linecap: round"/>
     </g>
     <g id="text_49">
      <!-- 15 -->
      <g style="fill: #262626" transform="translate(692.730312 177.235337) scale(0.11 -0.11)">
       <use xlink:href="#ArialMT-31"/>
       <use xlink:href="#ArialMT-35" transform="translate(55.615234 0)"/>
      </g>
     </g>
    </g>
    <g id="ytick_23">
     <g id="line2d_45">
      <path d="M 714.464375 141.09272 
L 989.444375 141.09272 
" clip-path="url(#pf8bf2227e9)" style="fill: none; stroke: #cccccc; stroke-linecap: round"/>
     </g>
     <g id="text_50">
      <!-- 20 -->
      <g style="fill: #262626" transform="translate(692.730312 145.029516) scale(0.11 -0.11)">
       <use xlink:href="#ArialMT-32"/>
       <use xlink:href="#ArialMT-30" transform="translate(55.615234 0)"/>
      </g>
     </g>
    </g>
    <g id="ytick_24">
     <g id="line2d_46">
      <path d="M 714.464375 108.886899 
L 989.444375 108.886899 
" clip-path="url(#pf8bf2227e9)" style="fill: none; stroke: #cccccc; stroke-linecap: round"/>
     </g>
     <g id="text_51">
      <!-- 25 -->
      <g style="fill: #262626" transform="translate(692.730312 112.823696) scale(0.11 -0.11)">
       <use xlink:href="#ArialMT-32"/>
       <use xlink:href="#ArialMT-35" transform="translate(55.615234 0)"/>
      </g>
     </g>
    </g>
    <g id="ytick_25">
     <g id="line2d_47">
      <path d="M 714.464375 76.681079 
L 989.444375 76.681079 
" clip-path="url(#pf8bf2227e9)" style="fill: none; stroke: #cccccc; stroke-linecap: round"/>
     </g>
     <g id="text_52">
      <!-- 30 -->
      <g style="fill: #262626" transform="translate(692.730312 80.617876) scale(0.11 -0.11)">
       <use xlink:href="#ArialMT-33"/>
       <use xlink:href="#ArialMT-30" transform="translate(55.615234 0)"/>
      </g>
     </g>
    </g>
    <g id="ytick_26">
     <g id="line2d_48">
      <path d="M 714.464375 44.475259 
L 989.444375 44.475259 
" clip-path="url(#pf8bf2227e9)" style="fill: none; stroke: #cccccc; stroke-linecap: round"/>
     </g>
     <g id="text_53">
      <!-- 35 -->
      <g style="fill: #262626" transform="translate(692.730312 48.412056) scale(0.11 -0.11)">
       <use xlink:href="#ArialMT-33"/>
       <use xlink:href="#ArialMT-35" transform="translate(55.615234 0)"/>
      </g>
     </g>
    </g>
    <g id="text_54">
     <!-- count -->
     <g style="fill: #262626" transform="translate(686.345312 162.854562) rotate(-90) scale(0.12 -0.12)">
      <use xlink:href="#ArialMT-63"/>
      <use xlink:href="#ArialMT-6f" transform="translate(50 0)"/>
      <use xlink:href="#ArialMT-75" transform="translate(105.615234 0)"/>
      <use xlink:href="#ArialMT-6e" transform="translate(161.230469 0)"/>
      <use xlink:href="#ArialMT-74" transform="translate(216.845703 0)"/>
     </g>
    </g>
   </g>
   <g id="patch_39">
    <path d="M 726.963466 269.916 
L 738.326276 269.916 
L 738.326276 257.033672 
L 726.963466 257.033672 
z
" clip-path="url(#pf8bf2227e9)" style="fill: #805ad5; fill-opacity: 0.5; stroke: #ffffff; stroke-width: 0.949441; stroke-linejoin: miter"/>
   </g>
   <g id="patch_40">
    <path d="M 738.326276 269.916 
L 749.689086 269.916 
L 749.689086 250.592508 
L 738.326276 250.592508 
z
" clip-path="url(#pf8bf2227e9)" style="fill: #805ad5; fill-opacity: 0.5; stroke: #ffffff; stroke-width: 0.949441; stroke-linejoin: miter"/>
   </g>
   <g id="patch_41">
    <path d="M 749.689086 269.916 
L 761.051896 269.916 
L 761.051896 237.71018 
L 749.689086 237.71018 
z
" clip-path="url(#pf8bf2227e9)" style="fill: #805ad5; fill-opacity: 0.5; stroke: #ffffff; stroke-width: 0.949441; stroke-linejoin: miter"/>
   </g>
   <g id="patch_42">
    <path d="M 761.051896 269.916 
L 772.414706 269.916 
L 772.414706 237.71018 
L 761.051896 237.71018 
z
" clip-path="url(#pf8bf2227e9)" style="fill: #805ad5; fill-opacity: 0.5; stroke: #ffffff; stroke-width: 0.949441; stroke-linejoin: miter"/>
   </g>
   <g id="patch_43">
    <path d="M 772.414706 269.916 
L 783.777515 269.916 
L 783.777515 205.50436 
L 772.414706 205.50436 
z
" clip-path="url(#pf8bf2227e9)" style="fill: #805ad5; fill-opacity: 0.5; stroke: #ffffff; stroke-width: 0.949441; stroke-linejoin: miter"/>
   </g>
   <g id="patch_44">
    <path d="M 783.777515 269.916 
L 795.140325 269.916 
L 795.140325 192.622032 
L 783.777515 192.622032 
z
" clip-path="url(#pf8bf2227e9)" style="fill: #805ad5; fill-opacity: 0.5; stroke: #ffffff; stroke-width: 0.949441; stroke-linejoin: miter"/>
   </g>
   <g id="patch_45">
    <path d="M 795.140325 269.916 
L 806.503135 269.916 
L 806.503135 153.975048 
L 795.140325 153.975048 
z
" clip-path="url(#pf8bf2227e9)" style="fill: #805ad5; fill-opacity: 0.5; stroke: #ffffff; stroke-width: 0.949441; stroke-linejoin: miter"/>
   </g>
   <g id="patch_46">
    <path d="M 806.503135 269.916 
L 817.865945 269.916 
L 817.865945 121.769228 
L 806.503135 121.769228 
z
" clip-path="url(#pf8bf2227e9)" style="fill: #805ad5; fill-opacity: 0.5; stroke: #ffffff; stroke-width: 0.949441; stroke-linejoin: miter"/>
   </g>
   <g id="patch_47">
    <path d="M 817.865945 269.916 
L 829.228755 269.916 
L 829.228755 115.328063 
L 817.865945 115.328063 
z
" clip-path="url(#pf8bf2227e9)" style="fill: #805ad5; fill-opacity: 0.5; stroke: #ffffff; stroke-width: 0.949441; stroke-linejoin: miter"/>
   </g>
   <g id="patch_48">
    <path d="M 829.228755 269.916 
L 840.591565 269.916 
L 840.591565 70.239915 
L 829.228755 70.239915 
z
" clip-path="url(#pf8bf2227e9)" style="fill: #805ad5; fill-opacity: 0.5; stroke: #ffffff; stroke-width: 0.949441; stroke-linejoin: miter"/>
   </g>
   <g id="patch_49">
    <path d="M 840.591565 269.916 
L 851.954375 269.916 
L 851.954375 38.034095 
L 840.591565 38.034095 
z
" clip-path="url(#pf8bf2227e9)" style="fill: #805ad5; fill-opacity: 0.5; stroke: #ffffff; stroke-width: 0.949441; stroke-linejoin: miter"/>
   </g>
   <g id="patch_50">
    <path d="M 851.954375 269.916 
L 863.317185 269.916 
L 863.317185 83.122243 
L 851.954375 83.122243 
z
" clip-path="url(#pf8bf2227e9)" style="fill: #805ad5; fill-opacity: 0.5; stroke: #ffffff; stroke-width: 0.949441; stroke-linejoin: miter"/>
   </g>
   <g id="patch_51">
    <path d="M 863.317185 269.916 
L 874.679995 269.916 
L 874.679995 83.122243 
L 863.317185 83.122243 
z
" clip-path="url(#pf8bf2227e9)" style="fill: #805ad5; fill-opacity: 0.5; stroke: #ffffff; stroke-width: 0.949441; stroke-linejoin: miter"/>
   </g>
   <g id="patch_52">
    <path d="M 874.679995 269.916 
L 886.042805 269.916 
L 886.042805 153.975048 
L 874.679995 153.975048 
z
" clip-path="url(#pf8bf2227e9)" style="fill: #805ad5; fill-opacity: 0.5; stroke: #ffffff; stroke-width: 0.949441; stroke-linejoin: miter"/>
   </g>
   <g id="patch_53">
    <path d="M 886.042805 269.916 
L 897.405615 269.916 
L 897.405615 147.533884 
L 886.042805 147.533884 
z
" clip-path="url(#pf8bf2227e9)" style="fill: #805ad5; fill-opacity: 0.5; stroke: #ffffff; stroke-width: 0.949441; stroke-linejoin: miter"/>
   </g>
   <g id="patch_54">
    <path d="M 897.405615 269.916 
L 908.768425 269.916 
L 908.768425 211.945524 
L 897.405615 211.945524 
z
" clip-path="url(#pf8bf2227e9)" style="fill: #805ad5; fill-opacity: 0.5; stroke: #ffffff; stroke-width: 0.949441; stroke-linejoin: miter"/>
   </g>
   <g id="patch_55">
    <path d="M 908.768425 269.916 
L 920.131235 269.916 
L 920.131235 199.063196 
L 908.768425 199.063196 
z
" clip-path="url(#pf8bf2227e9)" style="fill: #805ad5; fill-opacity: 0.5; stroke: #ffffff; stroke-width: 0.949441; stroke-linejoin: miter"/>
   </g>
   <g id="patch_56">
    <path d="M 920.131235 269.916 
L 931.494044 269.916 
L 931.494044 211.945524 
L 920.131235 211.945524 
z
" clip-path="url(#pf8bf2227e9)" style="fill: #805ad5; fill-opacity: 0.5; stroke: #ffffff; stroke-width: 0.949441; stroke-linejoin: miter"/>
   </g>
   <g id="patch_57">
    <path d="M 931.494044 269.916 
L 942.856854 269.916 
L 942.856854 257.033672 
L 931.494044 257.033672 
z
" clip-path="url(#pf8bf2227e9)" style="fill: #805ad5; fill-opacity: 0.5; stroke: #ffffff; stroke-width: 0.949441; stroke-linejoin: miter"/>
   </g>
   <g id="patch_58">
    <path d="M 942.856854 269.916 
L 954.219664 269.916 
L 954.219664 250.592508 
L 942.856854 250.592508 
z
" clip-path="url(#pf8bf2227e9)" style="fill: #805ad5; fill-opacity: 0.5; stroke: #ffffff; stroke-width: 0.949441; stroke-linejoin: miter"/>
   </g>
   <g id="patch_59">
    <path d="M 954.219664 269.916 
L 965.582474 269.916 
L 965.582474 263.474836 
L 954.219664 263.474836 
z
" clip-path="url(#pf8bf2227e9)" style="fill: #805ad5; fill-opacity: 0.5; stroke: #ffffff; stroke-width: 0.949441; stroke-linejoin: miter"/>
   </g>
   <g id="patch_60">
    <path d="M 965.582474 269.916 
L 976.945284 269.916 
L 976.945284 263.474836 
L 965.582474 263.474836 
z
" clip-path="url(#pf8bf2227e9)" style="fill: #805ad5; fill-opacity: 0.5; stroke: #ffffff; stroke-width: 0.949441; stroke-linejoin: miter"/>
   </g>
   <g id="line2d_49">
    <path d="M 726.963466 262.084137 
L 730.732036 259.874677 
L 734.500606 257.362703 
L 738.269176 254.581792 
L 743.293936 250.529104 
L 748.318697 246.141042 
L 752.087267 242.602567 
L 755.855837 238.760415 
L 759.624407 234.487264 
L 762.136787 231.33413 
L 764.649167 227.903061 
L 767.161547 224.180788 
L 770.930117 218.066334 
L 774.698687 211.396567 
L 779.723448 201.879388 
L 786.004398 189.38822 
L 792.285348 176.401231 
L 797.310108 165.511751 
L 802.334868 154.013708 
L 807.359629 141.872521 
L 814.896769 122.874014 
L 819.921529 110.347531 
L 823.690099 101.503292 
L 826.202479 96.049038 
L 828.714859 91.056211 
L 831.227239 86.607331 
L 833.739619 82.772638 
L 836.251999 79.609203 
L 837.50819 78.293638 
L 838.76438 77.161833 
L 840.02057 76.217798 
L 841.27676 75.465031 
L 842.53295 74.906566 
L 843.78914 74.545001 
L 845.04533 74.382504 
L 846.30152 74.420796 
L 847.55771 74.661105 
L 848.8139 75.104111 
L 850.07009 75.749867 
L 851.32628 76.597713 
L 852.58247 77.646187 
L 853.83866 78.892933 
L 855.09485 80.334623 
L 856.35104 81.966883 
L 858.86342 85.780083 
L 861.3758 90.275025 
L 863.88818 95.376028 
L 866.40056 100.990611 
L 870.169131 110.140326 
L 876.450081 126.360777 
L 881.474841 139.242505 
L 885.243411 148.442034 
L 889.011981 157.111125 
L 892.780551 165.232587 
L 896.549121 172.838647 
L 900.317692 179.968312 
L 904.086262 186.650469 
L 907.854832 192.91814 
L 912.879592 200.751456 
L 930.466253 227.406043 
L 936.747203 236.986156 
L 940.515773 242.305253 
L 943.028153 245.561392 
L 945.540533 248.543359 
L 948.052913 251.232214 
L 950.565293 253.623902 
L 953.077673 255.726941 
L 955.590053 257.559221 
L 958.102433 259.144708 
L 960.614814 260.510606 
L 963.127194 261.685245 
L 966.895764 263.149621 
L 970.664334 264.335258 
L 975.689094 265.614108 
L 976.945284 265.894974 
L 976.945284 265.894974 
" clip-path="url(#pf8bf2227e9)" style="fill: none; stroke: #805ad5; stroke-width: 1.5; stroke-linecap: round"/>
   </g>
   <g id="line2d_50">
    <path d="M 842.69587 269.916 
L 842.69587 26.44 
" clip-path="url(#pf8bf2227e9)" style="fill: none; stroke-dasharray: 3.7,1.6; stroke-dashoffset: 0; stroke: #000000"/>
   </g>
   <g id="patch_61">
    <path d="M 714.464375 269.916 
L 714.464375 26.44 
" style="fill: none; stroke: #cccccc; stroke-width: 1.25; stroke-linejoin: miter; stroke-linecap: square"/>
   </g>
   <g id="patch_62">
    <path d="M 714.464375 269.916 
L 989.444375 269.916 
" style="fill: none; stroke: #cccccc; stroke-width: 1.25; stroke-linejoin: miter; stroke-linecap: square"/>
   </g>
   <g id="text_55">
    <!-- Sampled $a_j$ values -->
    <g style="fill: #262626" transform="translate(802.574375 16.44) scale(0.12 -0.12)">
     <use xlink:href="#ArialMT-53" transform="translate(0 0.203125)"/>
     <use xlink:href="#ArialMT-61" transform="translate(66.699219 0.203125)"/>
     <use xlink:href="#ArialMT-6d" transform="translate(122.314453 0.203125)"/>
     <use xlink:href="#ArialMT-70" transform="translate(205.615234 0.203125)"/>
     <use xlink:href="#ArialMT-6c" transform="translate(261.230469 0.203125)"/>
     <use xlink:href="#ArialMT-65" transform="translate(283.447266 0.203125)"/>
     <use xlink:href="#ArialMT-64" transform="translate(339.0625 0.203125)"/>
     <use xlink:href="#ArialMT-20" transform="translate(394.677734 0.203125)"/>
     <use xlink:href="#DejaVuSans-Oblique-61" transform="translate(422.460938 0.203125)"/>
     <use xlink:href="#DejaVuSans-Oblique-6a" transform="translate(483.740234 -16.203125) scale(0.7)"/>
     <use xlink:href="#ArialMT-20" transform="translate(505.922852 0.203125)"/>
     <use xlink:href="#ArialMT-76" transform="translate(533.706055 0.203125)"/>
     <use xlink:href="#ArialMT-61" transform="translate(583.706055 0.203125)"/>
     <use xlink:href="#ArialMT-6c" transform="translate(639.321289 0.203125)"/>
     <use xlink:href="#ArialMT-75" transform="translate(661.538086 0.203125)"/>
     <use xlink:href="#ArialMT-65" transform="translate(717.15332 0.203125)"/>
     <use xlink:href="#ArialMT-73" transform="translate(772.768555 0.203125)"/>
    </g>
   </g>
  </g>
 </g>
 <defs>
  <clipPath id="p6f782ca9cf">
   <rect x="46.964375" y="26.44" width="274.98" height="243.476"/>
  </clipPath>
  <clipPath id="p274453f354">
   <rect x="380.714375" y="26.44" width="274.98" height="243.476"/>
  </clipPath>
  <clipPath id="pf8bf2227e9">
   <rect x="714.464375" y="26.44" width="274.98" height="243.476"/>
  </clipPath>
 </defs>
</svg>
