<svg xmlns="http://www.w3.org/2000/svg" width="720" height="520" viewBox="0 0 720 520" role="img" aria-labelledby="title desc">
  <title id="title">Easy toy clustering problem</title>
  <desc id="desc">Scatter plot with two clearly separated groups.</desc>
  <rect width="720" height="520" fill="#ffffff"/>
  <text x="360" y="42" text-anchor="middle" font-family="Arial, sans-serif" font-size="22" fill="#222">Easy toy clustering problem</text>
  <rect x="82" y="76" width="585" height="377" fill="#fff" stroke="#222" stroke-width="1.4"/>
  <line x1="82" y1="453" x2="667" y2="453" stroke="#222" stroke-width="1.1"/>
  <line x1="82" y1="76" x2="82" y2="453" stroke="#222" stroke-width="1.1"/>
  <g stroke="#d3d3d3" stroke-width="1">
    <line x1="165" y1="76" x2="165" y2="453"/>
    <line x1="290" y1="76" x2="290" y2="453"/>
    <line x1="415" y1="76" x2="415" y2="453"/>
    <line x1="540" y1="76" x2="540" y2="453"/>
    <line x1="82" y1="390" x2="667" y2="390"/>
    <line x1="82" y1="327" x2="667" y2="327"/>
    <line x1="82" y1="264" x2="667" y2="264"/>
    <line x1="82" y1="201" x2="667" y2="201"/>
    <line x1="82" y1="138" x2="667" y2="138"/>
  </g>
  <g font-family="Arial, sans-serif" font-size="16" fill="#222">
    <text x="157" y="478">-4</text>
    <text x="282" y="478">-2</text>
    <text x="411" y="478">0</text>
    <text x="535" y="478">2</text>
    <text x="660" y="478">4</text>
    <text x="56" y="396">-3</text>
    <text x="56" y="333">-2</text>
    <text x="56" y="270">-1</text>
    <text x="62" y="207">0</text>
    <text x="62" y="144">1</text>
    <text x="62" y="81">4</text>
  </g>
  <text x="374" y="510" text-anchor="middle" font-family="Arial, sans-serif" font-size="20" fill="#222">feature_1</text>
  <text x="28" y="270" text-anchor="middle" font-family="Arial, sans-serif" font-size="20" fill="#222" transform="rotate(-90 28,270)">feature_2</text>
  <g font-family="Arial, sans-serif" font-size="14">
    <rect x="104" y="94" width="120" height="58" rx="6" fill="#fff" stroke="#cccccc"/>
    <circle cx="128" cy="114" r="6" fill="#1f77b4" fill-opacity="0.75"/>
    <text x="154" y="119" fill="#222">group 0</text>
    <circle cx="128" cy="138" r="6" fill="#ff7f0e" fill-opacity="0.75"/>
    <text x="154" y="143" fill="#222">group 1</text>
  </g>
  <g fill="#1f77b4" fill-opacity="0.75" stroke="#1f77b4" stroke-opacity="0.95" stroke-width="1">
    <circle cx="145" cy="377" r="6"/><circle cx="172" cy="344" r="6"/><circle cx="184" cy="360" r="6"/><circle cx="196" cy="390" r="6"/>
    <circle cx="208" cy="370" r="6"/><circle cx="217" cy="349" r="6"/><circle cx="229" cy="333" r="6"/><circle cx="241" cy="364" r="6"/>
    <circle cx="253" cy="381" r="6"/><circle cx="265" cy="357" r="6"/><circle cx="276" cy="338" r="6"/><circle cx="287" cy="320" r="6"/>
    <circle cx="298" cy="350" r="6"/><circle cx="210" cy="409" r="6"/><circle cx="224" cy="420" r="6"/><circle cx="240" cy="405" r="6"/>
    <circle cx="255" cy="428" r="6"/><circle cx="273" cy="412" r="6"/><circle cx="286" cy="395" r="6"/><circle cx="304" cy="418" r="6"/>
    <circle cx="321" cy="403" r="6"/><circle cx="179" cy="396" r="6"/><circle cx="192" cy="420" r="6"/><circle cx="206" cy="439" r="6"/>
    <circle cx="228" cy="441" r="6"/><circle cx="246" cy="452" r="6"/><circle cx="264" cy="444" r="6"/><circle cx="288" cy="436" r="6"/>
    <circle cx="311" cy="446" r="6"/><circle cx="165" cy="414" r="6"/><circle cx="333" cy="430" r="6"/><circle cx="344" cy="390" r="6"/>
    <circle cx="326" cy="340" r="6"/><circle cx="304" cy="302" r="6"/><circle cx="285" cy="280" r="6"/><circle cx="255" cy="292" r="6"/>
    <circle cx="234" cy="308" r="6"/><circle cx="214" cy="322" r="6"/><circle cx="194" cy="301" r="6"/><circle cx="173" cy="325" r="6"/>
  </g>
  <g fill="#ff7f0e" fill-opacity="0.75" stroke="#ff7f0e" stroke-opacity="0.95" stroke-width="1">
    <circle cx="423" cy="186" r="6"/><circle cx="438" cy="166" r="6"/><circle cx="454" cy="178" r="6"/><circle cx="470" cy="149" r="6"/>
    <circle cx="486" cy="170" r="6"/><circle cx="502" cy="194" r="6"/><circle cx="519" cy="208" r="6"/><circle cx="535" cy="186" r="6"/>
    <circle cx="550" cy="160" r="6"/><circle cx="567" cy="177" r="6"/><circle cx="583" cy="194" r="6"/><circle cx="601" cy="172" r="6"/>
    <circle cx="412" cy="228" r="6"/><circle cx="429" cy="245" r="6"/><circle cx="445" cy="220" r="6"/><circle cx="461" cy="236" r="6"/>
    <circle cx="478" cy="214" r="6"/><circle cx="494" cy="227" r="6"/><circle cx="511" cy="247" r="6"/><circle cx="527" cy="223" r="6"/>
    <circle cx="543" cy="240" r="6"/><circle cx="559" cy="218" r="6"/><circle cx="575" cy="231" r="6"/><circle cx="592" cy="249" r="6"/>
    <circle cx="422" cy="284" r="6"/><circle cx="438" cy="300" r="6"/><circle cx="454" cy="275" r="6"/><circle cx="470" cy="289" r="6"/>
    <circle cx="487" cy="263" r="6"/><circle cx="503" cy="280" r="6"/><circle cx="519" cy="297" r="6"/><circle cx="535" cy="276" r="6"/>
    <circle cx="552" cy="291" r="6"/><circle cx="569" cy="269" r="6"/><circle cx="585" cy="286" r="6"/><circle cx="602" cy="308" r="6"/>
    <circle cx="454" cy="121" r="6"/><circle cx="478" cy="105" r="6"/><circle cx="505" cy="98" r="6"/><circle cx="561" cy="123" r="6"/>
  </g>
</svg>
