<?xml version="1.0" encoding="utf-8" standalone="no"?>
<!DOCTYPE svg PUBLIC "-//W3C//DTD SVG 1.1//EN"
  "http://www.w3.org/Graphics/SVG/1.1/DTD/svg11.dtd">
<svg xmlns:xlink="http://www.w3.org/1999/xlink" width="864pt" height="288pt" viewBox="0 0 864 288" xmlns="http://www.w3.org/2000/svg" version="1.1">
 <metadata>
  <rdf:RDF xmlns:dc="http://purl.org/dc/elements/1.1/" xmlns:cc="http://creativecommons.org/ns#" xmlns:rdf="http://www.w3.org/1999/02/22-rdf-syntax-ns#">
   <cc:Work>
    <dc:type rdf:resource="http://purl.org/dc/dcmitype/StillImage"/>
    <dc:date>2026-05-01T13:28:42.622511</dc:date>
    <dc:format>image/svg+xml</dc:format>
    <dc:creator>
     <cc:Agent>
      <dc:title>Matplotlib v3.10.8, https://matplotlib.org/</dc:title>
     </cc:Agent>
    </dc:creator>
   </cc:Work>
  </rdf:RDF>
 </metadata>
 <defs>
  <style type="text/css">*{stroke-linejoin: round; stroke-linecap: butt}</style>
 </defs>
 <g id="figure_1">
  <g id="patch_1">
   <path d="M 0 288 
L 864 288 
L 864 0 
L 0 0 
z
" style="fill: #ffffff"/>
  </g>
  <g id="axes_1">
   <g id="patch_2">
    <path d="M 47.72 246.04 
L 433.12 246.04 
L 433.12 26.88 
L 47.72 26.88 
z
" style="fill: #ffffff"/>
   </g>
   <g id="matplotlib.axis_1">
    <g id="xtick_1">
     <g id="line2d_1">
      <defs>
       <path id="md2f6e37398" d="M 0 0 
L 0 3.5 
" style="stroke: #000000; stroke-width: 0.8"/>
      </defs>
      <g>
       <use xlink:href="#md2f6e37398" x="47.72" y="246.04" style="stroke: #000000; stroke-width: 0.8"/>
      </g>
     </g>
     <g id="text_1">
      <!-- −3 -->
      <g transform="translate(40.348906 260.638438) scale(0.1 -0.1)">
       <defs>
        <path id="DejaVuSans-2212" d="M 678 2272 
L 4684 2272 
L 4684 1741 
L 678 1741 
L 678 2272 
z
" transform="scale(0.015625)"/>
        <path id="DejaVuSans-33" d="M 2597 2516 
Q 3050 2419 3304 2112 
Q 3559 1806 3559 1356 
Q 3559 666 3084 287 
Q 2609 -91 1734 -91 
Q 1441 -91 1130 -33 
Q 819 25 488 141 
L 488 750 
Q 750 597 1062 519 
Q 1375 441 1716 441 
Q 2309 441 2620 675 
Q 2931 909 2931 1356 
Q 2931 1769 2642 2001 
Q 2353 2234 1838 2234 
L 1294 2234 
L 1294 2753 
L 1863 2753 
Q 2328 2753 2575 2939 
Q 2822 3125 2822 3475 
Q 2822 3834 2567 4026 
Q 2313 4219 1838 4219 
Q 1578 4219 1281 4162 
Q 984 4106 628 3988 
L 628 4550 
Q 988 4650 1302 4700 
Q 1616 4750 1894 4750 
Q 2613 4750 3031 4423 
Q 3450 4097 3450 3541 
Q 3450 3153 3228 2886 
Q 3006 2619 2597 2516 
z
" transform="scale(0.015625)"/>
       </defs>
       <use xlink:href="#DejaVuSans-2212"/>
       <use xlink:href="#DejaVuSans-33" transform="translate(83.789062 0)"/>
      </g>
     </g>
    </g>
    <g id="xtick_2">
     <g id="line2d_2">
      <g>
       <use xlink:href="#md2f6e37398" x="111.953333" y="246.04" style="stroke: #000000; stroke-width: 0.8"/>
      </g>
     </g>
     <g id="text_2">
      <!-- −2 -->
      <g transform="translate(104.58224 260.638438) scale(0.1 -0.1)">
       <defs>
        <path id="DejaVuSans-32" d="M 1228 531 
L 3431 531 
L 3431 0 
L 469 0 
L 469 531 
Q 828 903 1448 1529 
Q 2069 2156 2228 2338 
Q 2531 2678 2651 2914 
Q 2772 3150 2772 3378 
Q 2772 3750 2511 3984 
Q 2250 4219 1831 4219 
Q 1534 4219 1204 4116 
Q 875 4013 500 3803 
L 500 4441 
Q 881 4594 1212 4672 
Q 1544 4750 1819 4750 
Q 2544 4750 2975 4387 
Q 3406 4025 3406 3419 
Q 3406 3131 3298 2873 
Q 3191 2616 2906 2266 
Q 2828 2175 2409 1742 
Q 1991 1309 1228 531 
z
" transform="scale(0.015625)"/>
       </defs>
       <use xlink:href="#DejaVuSans-2212"/>
       <use xlink:href="#DejaVuSans-32" transform="translate(83.789062 0)"/>
      </g>
     </g>
    </g>
    <g id="xtick_3">
     <g id="line2d_3">
      <g>
       <use xlink:href="#md2f6e37398" x="176.186667" y="246.04" style="stroke: #000000; stroke-width: 0.8"/>
      </g>
     </g>
     <g id="text_3">
      <!-- −1 -->
      <g transform="translate(168.815573 260.638438) scale(0.1 -0.1)">
       <defs>
        <path id="DejaVuSans-31" d="M 794 531 
L 1825 531 
L 1825 4091 
L 703 3866 
L 703 4441 
L 1819 4666 
L 2450 4666 
L 2450 531 
L 3481 531 
L 3481 0 
L 794 0 
L 794 531 
z
" transform="scale(0.015625)"/>
       </defs>
       <use xlink:href="#DejaVuSans-2212"/>
       <use xlink:href="#DejaVuSans-31" transform="translate(83.789062 0)"/>
      </g>
     </g>
    </g>
    <g id="xtick_4">
     <g id="line2d_4">
      <g>
       <use xlink:href="#md2f6e37398" x="240.42" y="246.04" style="stroke: #000000; stroke-width: 0.8"/>
      </g>
     </g>
     <g id="text_4">
      <!-- 0 -->
      <g transform="translate(237.23875 260.638438) scale(0.1 -0.1)">
       <defs>
        <path id="DejaVuSans-30" d="M 2034 4250 
Q 1547 4250 1301 3770 
Q 1056 3291 1056 2328 
Q 1056 1369 1301 889 
Q 1547 409 2034 409 
Q 2525 409 2770 889 
Q 3016 1369 3016 2328 
Q 3016 3291 2770 3770 
Q 2525 4250 2034 4250 
z
M 2034 4750 
Q 2819 4750 3233 4129 
Q 3647 3509 3647 2328 
Q 3647 1150 3233 529 
Q 2819 -91 2034 -91 
Q 1250 -91 836 529 
Q 422 1150 422 2328 
Q 422 3509 836 4129 
Q 1250 4750 2034 4750 
z
" transform="scale(0.015625)"/>
       </defs>
       <use xlink:href="#DejaVuSans-30"/>
      </g>
     </g>
    </g>
    <g id="xtick_5">
     <g id="line2d_5">
      <g>
       <use xlink:href="#md2f6e37398" x="304.653333" y="246.04" style="stroke: #000000; stroke-width: 0.8"/>
      </g>
     </g>
     <g id="text_5">
      <!-- 1 -->
      <g transform="translate(301.472083 260.638438) scale(0.1 -0.1)">
       <use xlink:href="#DejaVuSans-31"/>
      </g>
     </g>
    </g>
    <g id="xtick_6">
     <g id="line2d_6">
      <g>
       <use xlink:href="#md2f6e37398" x="368.886667" y="246.04" style="stroke: #000000; stroke-width: 0.8"/>
      </g>
     </g>
     <g id="text_6">
      <!-- 2 -->
      <g transform="translate(365.705417 260.638438) scale(0.1 -0.1)">
       <use xlink:href="#DejaVuSans-32"/>
      </g>
     </g>
    </g>
    <g id="xtick_7">
     <g id="line2d_7">
      <g>
       <use xlink:href="#md2f6e37398" x="433.12" y="246.04" style="stroke: #000000; stroke-width: 0.8"/>
      </g>
     </g>
     <g id="text_7">
      <!-- 3 -->
      <g transform="translate(429.93875 260.638438) scale(0.1 -0.1)">
       <use xlink:href="#DejaVuSans-33"/>
      </g>
     </g>
    </g>
    <g id="text_8">
     <!-- latent ability -->
     <g transform="translate(208.887188 274.316562) scale(0.1 -0.1)">
      <defs>
       <path id="DejaVuSans-6c" d="M 603 4863 
L 1178 4863 
L 1178 0 
L 603 0 
L 603 4863 
z
" transform="scale(0.015625)"/>
       <path id="DejaVuSans-61" d="M 2194 1759 
Q 1497 1759 1228 1600 
Q 959 1441 959 1056 
Q 959 750 1161 570 
Q 1363 391 1709 391 
Q 2188 391 2477 730 
Q 2766 1069 2766 1631 
L 2766 1759 
L 2194 1759 
z
M 3341 1997 
L 3341 0 
L 2766 0 
L 2766 531 
Q 2569 213 2275 61 
Q 1981 -91 1556 -91 
Q 1019 -91 701 211 
Q 384 513 384 1019 
Q 384 1609 779 1909 
Q 1175 2209 1959 2209 
L 2766 2209 
L 2766 2266 
Q 2766 2663 2505 2880 
Q 2244 3097 1772 3097 
Q 1472 3097 1187 3025 
Q 903 2953 641 2809 
L 641 3341 
Q 956 3463 1253 3523 
Q 1550 3584 1831 3584 
Q 2591 3584 2966 3190 
Q 3341 2797 3341 1997 
z
" transform="scale(0.015625)"/>
       <path id="DejaVuSans-74" d="M 1172 4494 
L 1172 3500 
L 2356 3500 
L 2356 3053 
L 1172 3053 
L 1172 1153 
Q 1172 725 1289 603 
Q 1406 481 1766 481 
L 2356 481 
L 2356 0 
L 1766 0 
Q 1100 0 847 248 
Q 594 497 594 1153 
L 594 3053 
L 172 3053 
L 172 3500 
L 594 3500 
L 594 4494 
L 1172 4494 
z
" transform="scale(0.015625)"/>
       <path id="DejaVuSans-65" d="M 3597 1894 
L 3597 1613 
L 953 1613 
Q 991 1019 1311 708 
Q 1631 397 2203 397 
Q 2534 397 2845 478 
Q 3156 559 3463 722 
L 3463 178 
Q 3153 47 2828 -22 
Q 2503 -91 2169 -91 
Q 1331 -91 842 396 
Q 353 884 353 1716 
Q 353 2575 817 3079 
Q 1281 3584 2069 3584 
Q 2775 3584 3186 3129 
Q 3597 2675 3597 1894 
z
M 3022 2063 
Q 3016 2534 2758 2815 
Q 2500 3097 2075 3097 
Q 1594 3097 1305 2825 
Q 1016 2553 972 2059 
L 3022 2063 
z
" transform="scale(0.015625)"/>
       <path id="DejaVuSans-6e" d="M 3513 2113 
L 3513 0 
L 2938 0 
L 2938 2094 
Q 2938 2591 2744 2837 
Q 2550 3084 2163 3084 
Q 1697 3084 1428 2787 
Q 1159 2491 1159 1978 
L 1159 0 
L 581 0 
L 581 3500 
L 1159 3500 
L 1159 2956 
Q 1366 3272 1645 3428 
Q 1925 3584 2291 3584 
Q 2894 3584 3203 3211 
Q 3513 2838 3513 2113 
z
" transform="scale(0.015625)"/>
       <path id="DejaVuSans-20" transform="scale(0.015625)"/>
       <path id="DejaVuSans-62" d="M 3116 1747 
Q 3116 2381 2855 2742 
Q 2594 3103 2138 3103 
Q 1681 3103 1420 2742 
Q 1159 2381 1159 1747 
Q 1159 1113 1420 752 
Q 1681 391 2138 391 
Q 2594 391 2855 752 
Q 3116 1113 3116 1747 
z
M 1159 2969 
Q 1341 3281 1617 3432 
Q 1894 3584 2278 3584 
Q 2916 3584 3314 3078 
Q 3713 2572 3713 1747 
Q 3713 922 3314 415 
Q 2916 -91 2278 -91 
Q 1894 -91 1617 61 
Q 1341 213 1159 525 
L 1159 0 
L 581 0 
L 581 4863 
L 1159 4863 
L 1159 2969 
z
" transform="scale(0.015625)"/>
       <path id="DejaVuSans-69" d="M 603 3500 
L 1178 3500 
L 1178 0 
L 603 0 
L 603 3500 
z
M 603 4863 
L 1178 4863 
L 1178 4134 
L 603 4134 
L 603 4863 
z
" transform="scale(0.015625)"/>
       <path id="DejaVuSans-79" d="M 2059 -325 
Q 1816 -950 1584 -1140 
Q 1353 -1331 966 -1331 
L 506 -1331 
L 506 -850 
L 844 -850 
Q 1081 -850 1212 -737 
Q 1344 -625 1503 -206 
L 1606 56 
L 191 3500 
L 800 3500 
L 1894 763 
L 2988 3500 
L 3597 3500 
L 2059 -325 
z
" transform="scale(0.015625)"/>
      </defs>
      <use xlink:href="#DejaVuSans-6c"/>
      <use xlink:href="#DejaVuSans-61" transform="translate(27.783203 0)"/>
      <use xlink:href="#DejaVuSans-74" transform="translate(89.0625 0)"/>
      <use xlink:href="#DejaVuSans-65" transform="translate(128.271484 0)"/>
      <use xlink:href="#DejaVuSans-6e" transform="translate(189.794922 0)"/>
      <use xlink:href="#DejaVuSans-74" transform="translate(253.173828 0)"/>
      <use xlink:href="#DejaVuSans-20" transform="translate(292.382812 0)"/>
      <use xlink:href="#DejaVuSans-61" transform="translate(324.169922 0)"/>
      <use xlink:href="#DejaVuSans-62" transform="translate(385.449219 0)"/>
      <use xlink:href="#DejaVuSans-69" transform="translate(448.925781 0)"/>
      <use xlink:href="#DejaVuSans-6c" transform="translate(476.708984 0)"/>
      <use xlink:href="#DejaVuSans-69" transform="translate(504.492188 0)"/>
      <use xlink:href="#DejaVuSans-74" transform="translate(532.275391 0)"/>
      <use xlink:href="#DejaVuSans-79" transform="translate(571.484375 0)"/>
     </g>
    </g>
   </g>
   <g id="matplotlib.axis_2">
    <g id="ytick_1">
     <g id="line2d_8">
      <defs>
       <path id="m2b6bdac9c5" d="M 0 0 
L -3.5 0 
" style="stroke: #000000; stroke-width: 0.8"/>
      </defs>
      <g>
       <use xlink:href="#m2b6bdac9c5" x="47.72" y="246.04" style="stroke: #000000; stroke-width: 0.8"/>
      </g>
     </g>
     <g id="text_9">
      <!-- 0.0 -->
      <g transform="translate(24.816875 249.839219) scale(0.1 -0.1)">
       <defs>
        <path id="DejaVuSans-2e" d="M 684 794 
L 1344 794 
L 1344 0 
L 684 0 
L 684 794 
z
" transform="scale(0.015625)"/>
       </defs>
       <use xlink:href="#DejaVuSans-30"/>
       <use xlink:href="#DejaVuSans-2e" transform="translate(63.623047 0)"/>
       <use xlink:href="#DejaVuSans-30" transform="translate(95.410156 0)"/>
      </g>
     </g>
    </g>
    <g id="ytick_2">
     <g id="line2d_9">
      <g>
       <use xlink:href="#m2b6bdac9c5" x="47.72" y="204.295238" style="stroke: #000000; stroke-width: 0.8"/>
      </g>
     </g>
     <g id="text_10">
      <!-- 0.2 -->
      <g transform="translate(24.816875 208.094457) scale(0.1 -0.1)">
       <use xlink:href="#DejaVuSans-30"/>
       <use xlink:href="#DejaVuSans-2e" transform="translate(63.623047 0)"/>
       <use xlink:href="#DejaVuSans-32" transform="translate(95.410156 0)"/>
      </g>
     </g>
    </g>
    <g id="ytick_3">
     <g id="line2d_10">
      <g>
       <use xlink:href="#m2b6bdac9c5" x="47.72" y="162.550476" style="stroke: #000000; stroke-width: 0.8"/>
      </g>
     </g>
     <g id="text_11">
      <!-- 0.4 -->
      <g transform="translate(24.816875 166.349695) scale(0.1 -0.1)">
       <defs>
        <path id="DejaVuSans-34" d="M 2419 4116 
L 825 1625 
L 2419 1625 
L 2419 4116 
z
M 2253 4666 
L 3047 4666 
L 3047 1625 
L 3713 1625 
L 3713 1100 
L 3047 1100 
L 3047 0 
L 2419 0 
L 2419 1100 
L 313 1100 
L 313 1709 
L 2253 4666 
z
" transform="scale(0.015625)"/>
       </defs>
       <use xlink:href="#DejaVuSans-30"/>
       <use xlink:href="#DejaVuSans-2e" transform="translate(63.623047 0)"/>
       <use xlink:href="#DejaVuSans-34" transform="translate(95.410156 0)"/>
      </g>
     </g>
    </g>
    <g id="ytick_4">
     <g id="line2d_11">
      <g>
       <use xlink:href="#m2b6bdac9c5" x="47.72" y="120.805714" style="stroke: #000000; stroke-width: 0.8"/>
      </g>
     </g>
     <g id="text_12">
      <!-- 0.6 -->
      <g transform="translate(24.816875 124.604933) scale(0.1 -0.1)">
       <defs>
        <path id="DejaVuSans-36" d="M 2113 2584 
Q 1688 2584 1439 2293 
Q 1191 2003 1191 1497 
Q 1191 994 1439 701 
Q 1688 409 2113 409 
Q 2538 409 2786 701 
Q 3034 994 3034 1497 
Q 3034 2003 2786 2293 
Q 2538 2584 2113 2584 
z
M 3366 4563 
L 3366 3988 
Q 3128 4100 2886 4159 
Q 2644 4219 2406 4219 
Q 1781 4219 1451 3797 
Q 1122 3375 1075 2522 
Q 1259 2794 1537 2939 
Q 1816 3084 2150 3084 
Q 2853 3084 3261 2657 
Q 3669 2231 3669 1497 
Q 3669 778 3244 343 
Q 2819 -91 2113 -91 
Q 1303 -91 875 529 
Q 447 1150 447 2328 
Q 447 3434 972 4092 
Q 1497 4750 2381 4750 
Q 2619 4750 2861 4703 
Q 3103 4656 3366 4563 
z
" transform="scale(0.015625)"/>
       </defs>
       <use xlink:href="#DejaVuSans-30"/>
       <use xlink:href="#DejaVuSans-2e" transform="translate(63.623047 0)"/>
       <use xlink:href="#DejaVuSans-36" transform="translate(95.410156 0)"/>
      </g>
     </g>
    </g>
    <g id="ytick_5">
     <g id="line2d_12">
      <g>
       <use xlink:href="#m2b6bdac9c5" x="47.72" y="79.060952" style="stroke: #000000; stroke-width: 0.8"/>
      </g>
     </g>
     <g id="text_13">
      <!-- 0.8 -->
      <g transform="translate(24.816875 82.860171) scale(0.1 -0.1)">
       <defs>
        <path id="DejaVuSans-38" d="M 2034 2216 
Q 1584 2216 1326 1975 
Q 1069 1734 1069 1313 
Q 1069 891 1326 650 
Q 1584 409 2034 409 
Q 2484 409 2743 651 
Q 3003 894 3003 1313 
Q 3003 1734 2745 1975 
Q 2488 2216 2034 2216 
z
M 1403 2484 
Q 997 2584 770 2862 
Q 544 3141 544 3541 
Q 544 4100 942 4425 
Q 1341 4750 2034 4750 
Q 2731 4750 3128 4425 
Q 3525 4100 3525 3541 
Q 3525 3141 3298 2862 
Q 3072 2584 2669 2484 
Q 3125 2378 3379 2068 
Q 3634 1759 3634 1313 
Q 3634 634 3220 271 
Q 2806 -91 2034 -91 
Q 1263 -91 848 271 
Q 434 634 434 1313 
Q 434 1759 690 2068 
Q 947 2378 1403 2484 
z
M 1172 3481 
Q 1172 3119 1398 2916 
Q 1625 2713 2034 2713 
Q 2441 2713 2670 2916 
Q 2900 3119 2900 3481 
Q 2900 3844 2670 4047 
Q 2441 4250 2034 4250 
Q 1625 4250 1398 4047 
Q 1172 3844 1172 3481 
z
" transform="scale(0.015625)"/>
       </defs>
       <use xlink:href="#DejaVuSans-30"/>
       <use xlink:href="#DejaVuSans-2e" transform="translate(63.623047 0)"/>
       <use xlink:href="#DejaVuSans-38" transform="translate(95.410156 0)"/>
      </g>
     </g>
    </g>
    <g id="ytick_6">
     <g id="line2d_13">
      <g>
       <use xlink:href="#m2b6bdac9c5" x="47.72" y="37.31619" style="stroke: #000000; stroke-width: 0.8"/>
      </g>
     </g>
     <g id="text_14">
      <!-- 1.0 -->
      <g transform="translate(24.816875 41.115409) scale(0.1 -0.1)">
       <use xlink:href="#DejaVuSans-31"/>
       <use xlink:href="#DejaVuSans-2e" transform="translate(63.623047 0)"/>
       <use xlink:href="#DejaVuSans-30" transform="translate(95.410156 0)"/>
      </g>
     </g>
    </g>
    <g id="text_15">
     <!-- probability of a correct response -->
     <g transform="translate(18.737188 217.588906) rotate(-90) scale(0.1 -0.1)">
      <defs>
       <path id="DejaVuSans-70" d="M 1159 525 
L 1159 -1331 
L 581 -1331 
L 581 3500 
L 1159 3500 
L 1159 2969 
Q 1341 3281 1617 3432 
Q 1894 3584 2278 3584 
Q 2916 3584 3314 3078 
Q 3713 2572 3713 1747 
Q 3713 922 3314 415 
Q 2916 -91 2278 -91 
Q 1894 -91 1617 61 
Q 1341 213 1159 525 
z
M 3116 1747 
Q 3116 2381 2855 2742 
Q 2594 3103 2138 3103 
Q 1681 3103 1420 2742 
Q 1159 2381 1159 1747 
Q 1159 1113 1420 752 
Q 1681 391 2138 391 
Q 2594 391 2855 752 
Q 3116 1113 3116 1747 
z
" transform="scale(0.015625)"/>
       <path id="DejaVuSans-72" d="M 2631 2963 
Q 2534 3019 2420 3045 
Q 2306 3072 2169 3072 
Q 1681 3072 1420 2755 
Q 1159 2438 1159 1844 
L 1159 0 
L 581 0 
L 581 3500 
L 1159 3500 
L 1159 2956 
Q 1341 3275 1631 3429 
Q 1922 3584 2338 3584 
Q 2397 3584 2469 3576 
Q 2541 3569 2628 3553 
L 2631 2963 
z
" transform="scale(0.015625)"/>
       <path id="DejaVuSans-6f" d="M 1959 3097 
Q 1497 3097 1228 2736 
Q 959 2375 959 1747 
Q 959 1119 1226 758 
Q 1494 397 1959 397 
Q 2419 397 2687 759 
Q 2956 1122 2956 1747 
Q 2956 2369 2687 2733 
Q 2419 3097 1959 3097 
z
M 1959 3584 
Q 2709 3584 3137 3096 
Q 3566 2609 3566 1747 
Q 3566 888 3137 398 
Q 2709 -91 1959 -91 
Q 1206 -91 779 398 
Q 353 888 353 1747 
Q 353 2609 779 3096 
Q 1206 3584 1959 3584 
z
" transform="scale(0.015625)"/>
       <path id="DejaVuSans-66" d="M 2375 4863 
L 2375 4384 
L 1825 4384 
Q 1516 4384 1395 4259 
Q 1275 4134 1275 3809 
L 1275 3500 
L 2222 3500 
L 2222 3053 
L 1275 3053 
L 1275 0 
L 697 0 
L 697 3053 
L 147 3053 
L 147 3500 
L 697 3500 
L 697 3744 
Q 697 4328 969 4595 
Q 1241 4863 1831 4863 
L 2375 4863 
z
" transform="scale(0.015625)"/>
       <path id="DejaVuSans-63" d="M 3122 3366 
L 3122 2828 
Q 2878 2963 2633 3030 
Q 2388 3097 2138 3097 
Q 1578 3097 1268 2742 
Q 959 2388 959 1747 
Q 959 1106 1268 751 
Q 1578 397 2138 397 
Q 2388 397 2633 464 
Q 2878 531 3122 666 
L 3122 134 
Q 2881 22 2623 -34 
Q 2366 -91 2075 -91 
Q 1284 -91 818 406 
Q 353 903 353 1747 
Q 353 2603 823 3093 
Q 1294 3584 2113 3584 
Q 2378 3584 2631 3529 
Q 2884 3475 3122 3366 
z
" transform="scale(0.015625)"/>
       <path id="DejaVuSans-73" d="M 2834 3397 
L 2834 2853 
Q 2591 2978 2328 3040 
Q 2066 3103 1784 3103 
Q 1356 3103 1142 2972 
Q 928 2841 928 2578 
Q 928 2378 1081 2264 
Q 1234 2150 1697 2047 
L 1894 2003 
Q 2506 1872 2764 1633 
Q 3022 1394 3022 966 
Q 3022 478 2636 193 
Q 2250 -91 1575 -91 
Q 1294 -91 989 -36 
Q 684 19 347 128 
L 347 722 
Q 666 556 975 473 
Q 1284 391 1588 391 
Q 1994 391 2212 530 
Q 2431 669 2431 922 
Q 2431 1156 2273 1281 
Q 2116 1406 1581 1522 
L 1381 1569 
Q 847 1681 609 1914 
Q 372 2147 372 2553 
Q 372 3047 722 3315 
Q 1072 3584 1716 3584 
Q 2034 3584 2315 3537 
Q 2597 3491 2834 3397 
z
" transform="scale(0.015625)"/>
      </defs>
      <use xlink:href="#DejaVuSans-70"/>
      <use xlink:href="#DejaVuSans-72" transform="translate(63.476562 0)"/>
      <use xlink:href="#DejaVuSans-6f" transform="translate(102.339844 0)"/>
      <use xlink:href="#DejaVuSans-62" transform="translate(163.521484 0)"/>
      <use xlink:href="#DejaVuSans-61" transform="translate(226.998047 0)"/>
      <use xlink:href="#DejaVuSans-62" transform="translate(288.277344 0)"/>
      <use xlink:href="#DejaVuSans-69" transform="translate(351.753906 0)"/>
      <use xlink:href="#DejaVuSans-6c" transform="translate(379.537109 0)"/>
      <use xlink:href="#DejaVuSans-69" transform="translate(407.320312 0)"/>
      <use xlink:href="#DejaVuSans-74" transform="translate(435.103516 0)"/>
      <use xlink:href="#DejaVuSans-79" transform="translate(474.3125 0)"/>
      <use xlink:href="#DejaVuSans-20" transform="translate(533.492188 0)"/>
      <use xlink:href="#DejaVuSans-6f" transform="translate(565.279297 0)"/>
      <use xlink:href="#DejaVuSans-66" transform="translate(626.460938 0)"/>
      <use xlink:href="#DejaVuSans-20" transform="translate(661.666016 0)"/>
      <use xlink:href="#DejaVuSans-61" transform="translate(693.453125 0)"/>
      <use xlink:href="#DejaVuSans-20" transform="translate(754.732422 0)"/>
      <use xlink:href="#DejaVuSans-63" transform="translate(786.519531 0)"/>
      <use xlink:href="#DejaVuSans-6f" transform="translate(841.5 0)"/>
      <use xlink:href="#DejaVuSans-72" transform="translate(902.681641 0)"/>
      <use xlink:href="#DejaVuSans-72" transform="translate(942.044922 0)"/>
      <use xlink:href="#DejaVuSans-65" transform="translate(980.908203 0)"/>
      <use xlink:href="#DejaVuSans-63" transform="translate(1042.431641 0)"/>
      <use xlink:href="#DejaVuSans-74" transform="translate(1097.412109 0)"/>
      <use xlink:href="#DejaVuSans-20" transform="translate(1136.621094 0)"/>
      <use xlink:href="#DejaVuSans-72" transform="translate(1168.408203 0)"/>
      <use xlink:href="#DejaVuSans-65" transform="translate(1207.271484 0)"/>
      <use xlink:href="#DejaVuSans-73" transform="translate(1268.794922 0)"/>
      <use xlink:href="#DejaVuSans-70" transform="translate(1320.894531 0)"/>
      <use xlink:href="#DejaVuSans-6f" transform="translate(1384.371094 0)"/>
      <use xlink:href="#DejaVuSans-6e" transform="translate(1445.552734 0)"/>
      <use xlink:href="#DejaVuSans-73" transform="translate(1508.931641 0)"/>
      <use xlink:href="#DejaVuSans-65" transform="translate(1561.03125 0)"/>
     </g>
    </g>
   </g>
   <g id="line2d_14">
    <path d="M 47.72 37.832286 
L 60.609632 38.256546 
L 69.632375 38.746012 
L 77.366154 39.361967 
L 83.81097 40.070989 
L 90.255786 41.021338 
L 95.411639 42.007465 
L 100.567492 43.248455 
L 104.434381 44.382922 
L 108.301271 45.725344 
L 112.168161 47.31014 
L 116.03505 49.175925 
L 119.90194 51.36541 
L 123.768829 53.925006 
L 126.346756 55.86128 
L 128.924682 57.998986 
L 131.502609 60.353258 
L 134.080535 62.938995 
L 136.658462 65.770487 
L 139.236388 68.860972 
L 141.814314 72.222126 
L 144.392241 75.8635 
L 146.970167 79.791913 
L 149.548094 84.010825 
L 153.414983 90.881515 
L 157.281873 98.382152 
L 161.148763 106.465005 
L 165.015652 115.054467 
L 170.171505 127.114226 
L 188.21699 170.249418 
L 192.08388 178.734256 
L 195.950769 186.693274 
L 199.817659 194.057083 
L 203.684548 200.784004 
L 206.262475 204.905931 
L 208.840401 208.738102 
L 211.418328 212.285163 
L 213.996254 215.554916 
L 216.574181 218.557684 
L 219.152107 221.305725 
L 221.730033 223.812681 
L 224.30796 226.09309 
L 226.885886 228.161968 
L 229.463813 230.034458 
L 233.330702 232.507631 
L 237.197592 234.621293 
L 241.064482 236.421085 
L 244.931371 237.948831 
L 248.798261 239.242213 
L 252.665151 240.334726 
L 257.821003 241.529288 
L 262.976856 242.478122 
L 269.421672 243.392198 
L 275.866488 244.073944 
L 283.600268 244.666056 
L 292.62301 245.136477 
L 304.223679 245.51347 
L 319.691237 245.783995 
L 344.181538 245.958368 
L 393.16214 246.031711 
L 433.12 246.038718 
L 433.12 246.038718 
" clip-path="url(#p25d3c96b2d)" style="fill: none; stroke: #1f77b4; stroke-width: 1.5; stroke-linecap: square"/>
   </g>
   <g id="line2d_15">
    <path d="M 47.72 37.341946 
L 90.255786 37.503824 
L 109.590234 37.778476 
L 122.479866 38.15868 
L 132.791572 38.676507 
L 140.525351 39.262802 
L 146.970167 39.937891 
L 153.414983 40.84311 
L 158.570836 41.782834 
L 163.726689 42.966048 
L 167.593579 44.048302 
L 171.460468 45.329684 
L 175.327358 46.84346 
L 179.194247 48.627079 
L 183.061137 50.722139 
L 186.928027 53.174085 
L 189.505953 55.030889 
L 192.08388 57.082824 
L 194.661806 59.345028 
L 197.239732 61.83254 
L 199.817659 64.559954 
L 202.395585 67.541004 
L 204.973512 70.788083 
L 207.551438 74.311699 
L 210.129365 78.119885 
L 212.707291 82.217577 
L 215.285217 86.605987 
L 219.152107 93.725591 
L 223.018997 101.459839 
L 226.885886 109.750226 
L 230.752776 118.510377 
L 235.908629 130.723943 
L 250.087224 164.845813 
L 253.954114 173.605965 
L 257.821003 181.896352 
L 261.687893 189.630599 
L 265.554783 196.750204 
L 269.421672 203.223818 
L 271.999599 207.176358 
L 274.577525 210.841434 
L 277.155452 214.225608 
L 279.733378 217.338228 
L 282.311304 220.190815 
L 284.889231 222.796497 
L 287.467157 225.169494 
L 290.045084 227.32467 
L 292.62301 229.277153 
L 296.4899 231.858734 
L 300.356789 234.067533 
L 304.223679 235.950144 
L 308.090569 237.549498 
L 311.957458 238.904444 
L 315.824348 240.049632 
L 320.980201 241.302493 
L 326.136054 242.29816 
L 331.291906 243.087599 
L 337.736722 243.846938 
L 345.470502 244.50691 
L 354.493244 245.031555 
L 366.093913 245.452203 
L 381.561472 245.754162 
L 403.473846 245.937189 
L 433.12 246.014245 
L 433.12 246.014245 
" clip-path="url(#p25d3c96b2d)" style="fill: none; stroke: #ff7f0e; stroke-width: 1.5; stroke-linecap: square"/>
   </g>
   <g id="line2d_16">
    <path d="M 47.72 37.317473 
L 144.392241 37.433317 
L 167.593579 37.66196 
L 183.061137 38.027015 
L 193.372843 38.464363 
L 202.395585 39.06109 
L 210.129365 39.811146 
L 216.574181 40.673315 
L 221.730033 41.568736 
L 226.885886 42.696729 
L 230.752776 43.729023 
L 234.619666 44.951931 
L 238.486555 46.397577 
L 242.353445 48.102241 
L 246.220334 50.106386 
L 250.087224 52.45444 
L 252.665151 54.234372 
L 255.243077 56.203167 
L 257.821003 58.375919 
L 260.39893 60.767745 
L 262.976856 63.393471 
L 265.554783 66.267245 
L 268.132709 69.40208 
L 270.710635 72.80934 
L 273.288562 76.498164 
L 275.866488 80.474853 
L 278.444415 84.742247 
L 282.311304 91.684447 
L 286.178194 99.252636 
L 290.045084 107.396024 
L 293.911973 116.035909 
L 299.067826 128.142348 
L 315.824348 168.301724 
L 319.691237 176.891185 
L 323.558127 184.974039 
L 327.425017 192.474675 
L 331.291906 199.345366 
L 333.869833 203.564277 
L 336.447759 207.492691 
L 339.025686 211.134065 
L 341.603612 214.495219 
L 344.181538 217.585703 
L 346.759465 220.417195 
L 349.337391 223.002932 
L 351.915318 225.357204 
L 354.493244 227.49491 
L 357.071171 229.431185 
L 360.93806 231.99078 
L 364.80495 234.180266 
L 368.671839 236.04605 
L 372.538729 237.630846 
L 376.405619 238.973269 
L 380.272508 240.107736 
L 385.428361 241.348726 
L 390.584214 242.334852 
L 395.740067 243.116661 
L 402.184883 243.868604 
L 409.918662 244.522104 
L 418.941405 245.041574 
L 430.542074 245.458055 
L 433.12 245.523905 
L 433.12 245.523905 
" clip-path="url(#p25d3c96b2d)" style="fill: none; stroke: #2ca02c; stroke-width: 1.5; stroke-linecap: square"/>
   </g>
   <g id="patch_3">
    <path d="M 47.72 246.04 
L 47.72 26.88 
" style="fill: none; stroke: #000000; stroke-width: 0.8; stroke-linejoin: miter; stroke-linecap: square"/>
   </g>
   <g id="patch_4">
    <path d="M 47.72 246.04 
L 433.12 246.04 
" style="fill: none; stroke: #000000; stroke-width: 0.8; stroke-linejoin: miter; stroke-linecap: square"/>
   </g>
   <g id="text_16">
    <!-- 2PL with negative discrimination -->
    <g transform="translate(142.4325 20.88) scale(0.12 -0.12)">
     <defs>
      <path id="DejaVuSans-50" d="M 1259 4147 
L 1259 2394 
L 2053 2394 
Q 2494 2394 2734 2622 
Q 2975 2850 2975 3272 
Q 2975 3691 2734 3919 
Q 2494 4147 2053 4147 
L 1259 4147 
z
M 628 4666 
L 2053 4666 
Q 2838 4666 3239 4311 
Q 3641 3956 3641 3272 
Q 3641 2581 3239 2228 
Q 2838 1875 2053 1875 
L 1259 1875 
L 1259 0 
L 628 0 
L 628 4666 
z
" transform="scale(0.015625)"/>
      <path id="DejaVuSans-4c" d="M 628 4666 
L 1259 4666 
L 1259 531 
L 3531 531 
L 3531 0 
L 628 0 
L 628 4666 
z
" transform="scale(0.015625)"/>
      <path id="DejaVuSans-77" d="M 269 3500 
L 844 3500 
L 1563 769 
L 2278 3500 
L 2956 3500 
L 3675 769 
L 4391 3500 
L 4966 3500 
L 4050 0 
L 3372 0 
L 2619 2869 
L 1863 0 
L 1184 0 
L 269 3500 
z
" transform="scale(0.015625)"/>
      <path id="DejaVuSans-68" d="M 3513 2113 
L 3513 0 
L 2938 0 
L 2938 2094 
Q 2938 2591 2744 2837 
Q 2550 3084 2163 3084 
Q 1697 3084 1428 2787 
Q 1159 2491 1159 1978 
L 1159 0 
L 581 0 
L 581 4863 
L 1159 4863 
L 1159 2956 
Q 1366 3272 1645 3428 
Q 1925 3584 2291 3584 
Q 2894 3584 3203 3211 
Q 3513 2838 3513 2113 
z
" transform="scale(0.015625)"/>
      <path id="DejaVuSans-67" d="M 2906 1791 
Q 2906 2416 2648 2759 
Q 2391 3103 1925 3103 
Q 1463 3103 1205 2759 
Q 947 2416 947 1791 
Q 947 1169 1205 825 
Q 1463 481 1925 481 
Q 2391 481 2648 825 
Q 2906 1169 2906 1791 
z
M 3481 434 
Q 3481 -459 3084 -895 
Q 2688 -1331 1869 -1331 
Q 1566 -1331 1297 -1286 
Q 1028 -1241 775 -1147 
L 775 -588 
Q 1028 -725 1275 -790 
Q 1522 -856 1778 -856 
Q 2344 -856 2625 -561 
Q 2906 -266 2906 331 
L 2906 616 
Q 2728 306 2450 153 
Q 2172 0 1784 0 
Q 1141 0 747 490 
Q 353 981 353 1791 
Q 353 2603 747 3093 
Q 1141 3584 1784 3584 
Q 2172 3584 2450 3431 
Q 2728 3278 2906 2969 
L 2906 3500 
L 3481 3500 
L 3481 434 
z
" transform="scale(0.015625)"/>
      <path id="DejaVuSans-76" d="M 191 3500 
L 800 3500 
L 1894 563 
L 2988 3500 
L 3597 3500 
L 2284 0 
L 1503 0 
L 191 3500 
z
" transform="scale(0.015625)"/>
      <path id="DejaVuSans-64" d="M 2906 2969 
L 2906 4863 
L 3481 4863 
L 3481 0 
L 2906 0 
L 2906 525 
Q 2725 213 2448 61 
Q 2172 -91 1784 -91 
Q 1150 -91 751 415 
Q 353 922 353 1747 
Q 353 2572 751 3078 
Q 1150 3584 1784 3584 
Q 2172 3584 2448 3432 
Q 2725 3281 2906 2969 
z
M 947 1747 
Q 947 1113 1208 752 
Q 1469 391 1925 391 
Q 2381 391 2643 752 
Q 2906 1113 2906 1747 
Q 2906 2381 2643 2742 
Q 2381 3103 1925 3103 
Q 1469 3103 1208 2742 
Q 947 2381 947 1747 
z
" transform="scale(0.015625)"/>
      <path id="DejaVuSans-6d" d="M 3328 2828 
Q 3544 3216 3844 3400 
Q 4144 3584 4550 3584 
Q 5097 3584 5394 3201 
Q 5691 2819 5691 2113 
L 5691 0 
L 5113 0 
L 5113 2094 
Q 5113 2597 4934 2840 
Q 4756 3084 4391 3084 
Q 3944 3084 3684 2787 
Q 3425 2491 3425 1978 
L 3425 0 
L 2847 0 
L 2847 2094 
Q 2847 2600 2669 2842 
Q 2491 3084 2119 3084 
Q 1678 3084 1418 2786 
Q 1159 2488 1159 1978 
L 1159 0 
L 581 0 
L 581 3500 
L 1159 3500 
L 1159 2956 
Q 1356 3278 1631 3431 
Q 1906 3584 2284 3584 
Q 2666 3584 2933 3390 
Q 3200 3197 3328 2828 
z
" transform="scale(0.015625)"/>
     </defs>
     <use xlink:href="#DejaVuSans-32"/>
     <use xlink:href="#DejaVuSans-50" transform="translate(63.623047 0)"/>
     <use xlink:href="#DejaVuSans-4c" transform="translate(123.925781 0)"/>
     <use xlink:href="#DejaVuSans-20" transform="translate(179.638672 0)"/>
     <use xlink:href="#DejaVuSans-77" transform="translate(211.425781 0)"/>
     <use xlink:href="#DejaVuSans-69" transform="translate(293.212891 0)"/>
     <use xlink:href="#DejaVuSans-74" transform="translate(320.996094 0)"/>
     <use xlink:href="#DejaVuSans-68" transform="translate(360.205078 0)"/>
     <use xlink:href="#DejaVuSans-20" transform="translate(423.583984 0)"/>
     <use xlink:href="#DejaVuSans-6e" transform="translate(455.371094 0)"/>
     <use xlink:href="#DejaVuSans-65" transform="translate(518.75 0)"/>
     <use xlink:href="#DejaVuSans-67" transform="translate(580.273438 0)"/>
     <use xlink:href="#DejaVuSans-61" transform="translate(643.75 0)"/>
     <use xlink:href="#DejaVuSans-74" transform="translate(705.029297 0)"/>
     <use xlink:href="#DejaVuSans-69" transform="translate(744.238281 0)"/>
     <use xlink:href="#DejaVuSans-76" transform="translate(772.021484 0)"/>
     <use xlink:href="#DejaVuSans-65" transform="translate(831.201172 0)"/>
     <use xlink:href="#DejaVuSans-20" transform="translate(892.724609 0)"/>
     <use xlink:href="#DejaVuSans-64" transform="translate(924.511719 0)"/>
     <use xlink:href="#DejaVuSans-69" transform="translate(987.988281 0)"/>
     <use xlink:href="#DejaVuSans-73" transform="translate(1015.771484 0)"/>
     <use xlink:href="#DejaVuSans-63" transform="translate(1067.871094 0)"/>
     <use xlink:href="#DejaVuSans-72" transform="translate(1122.851562 0)"/>
     <use xlink:href="#DejaVuSans-69" transform="translate(1163.964844 0)"/>
     <use xlink:href="#DejaVuSans-6d" transform="translate(1191.748047 0)"/>
     <use xlink:href="#DejaVuSans-69" transform="translate(1289.160156 0)"/>
     <use xlink:href="#DejaVuSans-6e" transform="translate(1316.943359 0)"/>
     <use xlink:href="#DejaVuSans-61" transform="translate(1380.322266 0)"/>
     <use xlink:href="#DejaVuSans-74" transform="translate(1441.601562 0)"/>
     <use xlink:href="#DejaVuSans-69" transform="translate(1480.810547 0)"/>
     <use xlink:href="#DejaVuSans-6f" transform="translate(1508.59375 0)"/>
     <use xlink:href="#DejaVuSans-6e" transform="translate(1569.775391 0)"/>
    </g>
   </g>
   <g id="legend_1">
    <g id="patch_5">
     <path d="M 54.72 160.394375 
L 260.923125 160.394375 
Q 262.923125 160.394375 262.923125 158.394375 
L 262.923125 114.525625 
Q 262.923125 112.525625 260.923125 112.525625 
L 54.72 112.525625 
Q 52.72 112.525625 52.72 114.525625 
L 52.72 158.394375 
Q 52.72 160.394375 54.72 160.394375 
z
" style="fill: #ffffff; opacity: 0.8; stroke: #cccccc; stroke-linejoin: miter"/>
    </g>
    <g id="line2d_17">
     <path d="M 56.72 120.624062 
L 66.72 120.624062 
L 76.72 120.624062 
" style="fill: none; stroke: #1f77b4; stroke-width: 1.5; stroke-linecap: square"/>
    </g>
    <g id="text_17">
     <!-- easy_item (disc=-3.0, diff=-1.0) -->
     <g transform="translate(84.72 124.124062) scale(0.1 -0.1)">
      <defs>
       <path id="DejaVuSans-5f" d="M 3263 -1063 
L 3263 -1509 
L -63 -1509 
L -63 -1063 
L 3263 -1063 
z
" transform="scale(0.015625)"/>
       <path id="DejaVuSans-28" d="M 1984 4856 
Q 1566 4138 1362 3434 
Q 1159 2731 1159 2009 
Q 1159 1288 1364 580 
Q 1569 -128 1984 -844 
L 1484 -844 
Q 1016 -109 783 600 
Q 550 1309 550 2009 
Q 550 2706 781 3412 
Q 1013 4119 1484 4856 
L 1984 4856 
z
" transform="scale(0.015625)"/>
       <path id="DejaVuSans-3d" d="M 678 2906 
L 4684 2906 
L 4684 2381 
L 678 2381 
L 678 2906 
z
M 678 1631 
L 4684 1631 
L 4684 1100 
L 678 1100 
L 678 1631 
z
" transform="scale(0.015625)"/>
       <path id="DejaVuSans-2d" d="M 313 2009 
L 1997 2009 
L 1997 1497 
L 313 1497 
L 313 2009 
z
" transform="scale(0.015625)"/>
       <path id="DejaVuSans-2c" d="M 750 794 
L 1409 794 
L 1409 256 
L 897 -744 
L 494 -744 
L 750 256 
L 750 794 
z
" transform="scale(0.015625)"/>
       <path id="DejaVuSans-29" d="M 513 4856 
L 1013 4856 
Q 1481 4119 1714 3412 
Q 1947 2706 1947 2009 
Q 1947 1309 1714 600 
Q 1481 -109 1013 -844 
L 513 -844 
Q 928 -128 1133 580 
Q 1338 1288 1338 2009 
Q 1338 2731 1133 3434 
Q 928 4138 513 4856 
z
" transform="scale(0.015625)"/>
      </defs>
      <use xlink:href="#DejaVuSans-65"/>
      <use xlink:href="#DejaVuSans-61" transform="translate(61.523438 0)"/>
      <use xlink:href="#DejaVuSans-73" transform="translate(122.802734 0)"/>
      <use xlink:href="#DejaVuSans-79" transform="translate(174.902344 0)"/>
      <use xlink:href="#DejaVuSans-5f" transform="translate(234.082031 0)"/>
      <use xlink:href="#DejaVuSans-69" transform="translate(284.082031 0)"/>
      <use xlink:href="#DejaVuSans-74" transform="translate(311.865234 0)"/>
      <use xlink:href="#DejaVuSans-65" transform="translate(351.074219 0)"/>
      <use xlink:href="#DejaVuSans-6d" transform="translate(412.597656 0)"/>
      <use xlink:href="#DejaVuSans-20" transform="translate(510.009766 0)"/>
      <use xlink:href="#DejaVuSans-28" transform="translate(541.796875 0)"/>
      <use xlink:href="#DejaVuSans-64" transform="translate(580.810547 0)"/>
      <use xlink:href="#DejaVuSans-69" transform="translate(644.287109 0)"/>
      <use xlink:href="#DejaVuSans-73" transform="translate(672.070312 0)"/>
      <use xlink:href="#DejaVuSans-63" transform="translate(724.169922 0)"/>
      <use xlink:href="#DejaVuSans-3d" transform="translate(779.150391 0)"/>
      <use xlink:href="#DejaVuSans-2d" transform="translate(862.939453 0)"/>
      <use xlink:href="#DejaVuSans-33" transform="translate(899.023438 0)"/>
      <use xlink:href="#DejaVuSans-2e" transform="translate(962.646484 0)"/>
      <use xlink:href="#DejaVuSans-30" transform="translate(994.433594 0)"/>
      <use xlink:href="#DejaVuSans-2c" transform="translate(1058.056641 0)"/>
      <use xlink:href="#DejaVuSans-20" transform="translate(1089.84375 0)"/>
      <use xlink:href="#DejaVuSans-64" transform="translate(1121.630859 0)"/>
      <use xlink:href="#DejaVuSans-69" transform="translate(1185.107422 0)"/>
      <use xlink:href="#DejaVuSans-66" transform="translate(1212.890625 0)"/>
      <use xlink:href="#DejaVuSans-66" transform="translate(1248.095703 0)"/>
      <use xlink:href="#DejaVuSans-3d" transform="translate(1283.300781 0)"/>
      <use xlink:href="#DejaVuSans-2d" transform="translate(1367.089844 0)"/>
      <use xlink:href="#DejaVuSans-31" transform="translate(1403.173828 0)"/>
      <use xlink:href="#DejaVuSans-2e" transform="translate(1466.796875 0)"/>
      <use xlink:href="#DejaVuSans-30" transform="translate(1498.583984 0)"/>
      <use xlink:href="#DejaVuSans-29" transform="translate(1562.207031 0)"/>
     </g>
    </g>
    <g id="line2d_18">
     <path d="M 56.72 135.580312 
L 66.72 135.580312 
L 76.72 135.580312 
" style="fill: none; stroke: #ff7f0e; stroke-width: 1.5; stroke-linecap: square"/>
    </g>
    <g id="text_18">
     <!-- medium_item (disc=-3.0, diff=0.0) -->
     <g transform="translate(84.72 139.080312) scale(0.1 -0.1)">
      <defs>
       <path id="DejaVuSans-75" d="M 544 1381 
L 544 3500 
L 1119 3500 
L 1119 1403 
Q 1119 906 1312 657 
Q 1506 409 1894 409 
Q 2359 409 2629 706 
Q 2900 1003 2900 1516 
L 2900 3500 
L 3475 3500 
L 3475 0 
L 2900 0 
L 2900 538 
Q 2691 219 2414 64 
Q 2138 -91 1772 -91 
Q 1169 -91 856 284 
Q 544 659 544 1381 
z
M 1991 3584 
L 1991 3584 
z
" transform="scale(0.015625)"/>
      </defs>
      <use xlink:href="#DejaVuSans-6d"/>
      <use xlink:href="#DejaVuSans-65" transform="translate(97.412109 0)"/>
      <use xlink:href="#DejaVuSans-64" transform="translate(158.935547 0)"/>
      <use xlink:href="#DejaVuSans-69" transform="translate(222.412109 0)"/>
      <use xlink:href="#DejaVuSans-75" transform="translate(250.195312 0)"/>
      <use xlink:href="#DejaVuSans-6d" transform="translate(313.574219 0)"/>
      <use xlink:href="#DejaVuSans-5f" transform="translate(410.986328 0)"/>
      <use xlink:href="#DejaVuSans-69" transform="translate(460.986328 0)"/>
      <use xlink:href="#DejaVuSans-74" transform="translate(488.769531 0)"/>
      <use xlink:href="#DejaVuSans-65" transform="translate(527.978516 0)"/>
      <use xlink:href="#DejaVuSans-6d" transform="translate(589.501953 0)"/>
      <use xlink:href="#DejaVuSans-20" transform="translate(686.914062 0)"/>
      <use xlink:href="#DejaVuSans-28" transform="translate(718.701172 0)"/>
      <use xlink:href="#DejaVuSans-64" transform="translate(757.714844 0)"/>
      <use xlink:href="#DejaVuSans-69" transform="translate(821.191406 0)"/>
      <use xlink:href="#DejaVuSans-73" transform="translate(848.974609 0)"/>
      <use xlink:href="#DejaVuSans-63" transform="translate(901.074219 0)"/>
      <use xlink:href="#DejaVuSans-3d" transform="translate(956.054688 0)"/>
      <use xlink:href="#DejaVuSans-2d" transform="translate(1039.84375 0)"/>
      <use xlink:href="#DejaVuSans-33" transform="translate(1075.927734 0)"/>
      <use xlink:href="#DejaVuSans-2e" transform="translate(1139.550781 0)"/>
      <use xlink:href="#DejaVuSans-30" transform="translate(1171.337891 0)"/>
      <use xlink:href="#DejaVuSans-2c" transform="translate(1234.960938 0)"/>
      <use xlink:href="#DejaVuSans-20" transform="translate(1266.748047 0)"/>
      <use xlink:href="#DejaVuSans-64" transform="translate(1298.535156 0)"/>
      <use xlink:href="#DejaVuSans-69" transform="translate(1362.011719 0)"/>
      <use xlink:href="#DejaVuSans-66" transform="translate(1389.794922 0)"/>
      <use xlink:href="#DejaVuSans-66" transform="translate(1425 0)"/>
      <use xlink:href="#DejaVuSans-3d" transform="translate(1460.205078 0)"/>
      <use xlink:href="#DejaVuSans-30" transform="translate(1543.994141 0)"/>
      <use xlink:href="#DejaVuSans-2e" transform="translate(1607.617188 0)"/>
      <use xlink:href="#DejaVuSans-30" transform="translate(1639.404297 0)"/>
      <use xlink:href="#DejaVuSans-29" transform="translate(1703.027344 0)"/>
     </g>
    </g>
    <g id="line2d_19">
     <path d="M 56.72 150.536562 
L 66.72 150.536562 
L 76.72 150.536562 
" style="fill: none; stroke: #2ca02c; stroke-width: 1.5; stroke-linecap: square"/>
    </g>
    <g id="text_19">
     <!-- hard_item (disc=-3.0, diff=1.0) -->
     <g transform="translate(84.72 154.036562) scale(0.1 -0.1)">
      <use xlink:href="#DejaVuSans-68"/>
      <use xlink:href="#DejaVuSans-61" transform="translate(63.378906 0)"/>
      <use xlink:href="#DejaVuSans-72" transform="translate(124.658203 0)"/>
      <use xlink:href="#DejaVuSans-64" transform="translate(164.021484 0)"/>
      <use xlink:href="#DejaVuSans-5f" transform="translate(227.498047 0)"/>
      <use xlink:href="#DejaVuSans-69" transform="translate(277.498047 0)"/>
      <use xlink:href="#DejaVuSans-74" transform="translate(305.28125 0)"/>
      <use xlink:href="#DejaVuSans-65" transform="translate(344.490234 0)"/>
      <use xlink:href="#DejaVuSans-6d" transform="translate(406.013672 0)"/>
      <use xlink:href="#DejaVuSans-20" transform="translate(503.425781 0)"/>
      <use xlink:href="#DejaVuSans-28" transform="translate(535.212891 0)"/>
      <use xlink:href="#DejaVuSans-64" transform="translate(574.226562 0)"/>
      <use xlink:href="#DejaVuSans-69" transform="translate(637.703125 0)"/>
      <use xlink:href="#DejaVuSans-73" transform="translate(665.486328 0)"/>
      <use xlink:href="#DejaVuSans-63" transform="translate(717.585938 0)"/>
      <use xlink:href="#DejaVuSans-3d" transform="translate(772.566406 0)"/>
      <use xlink:href="#DejaVuSans-2d" transform="translate(856.355469 0)"/>
      <use xlink:href="#DejaVuSans-33" transform="translate(892.439453 0)"/>
      <use xlink:href="#DejaVuSans-2e" transform="translate(956.0625 0)"/>
      <use xlink:href="#DejaVuSans-30" transform="translate(987.849609 0)"/>
      <use xlink:href="#DejaVuSans-2c" transform="translate(1051.472656 0)"/>
      <use xlink:href="#DejaVuSans-20" transform="translate(1083.259766 0)"/>
      <use xlink:href="#DejaVuSans-64" transform="translate(1115.046875 0)"/>
      <use xlink:href="#DejaVuSans-69" transform="translate(1178.523438 0)"/>
      <use xlink:href="#DejaVuSans-66" transform="translate(1206.306641 0)"/>
      <use xlink:href="#DejaVuSans-66" transform="translate(1241.511719 0)"/>
      <use xlink:href="#DejaVuSans-3d" transform="translate(1276.716797 0)"/>
      <use xlink:href="#DejaVuSans-31" transform="translate(1360.505859 0)"/>
      <use xlink:href="#DejaVuSans-2e" transform="translate(1424.128906 0)"/>
      <use xlink:href="#DejaVuSans-30" transform="translate(1455.916016 0)"/>
      <use xlink:href="#DejaVuSans-29" transform="translate(1519.539062 0)"/>
     </g>
    </g>
   </g>
  </g>
  <g id="axes_2">
   <g id="patch_6">
    <path d="M 464.65 246.04 
L 850.05 246.04 
L 850.05 26.88 
L 464.65 26.88 
z
" style="fill: #ffffff"/>
   </g>
   <g id="matplotlib.axis_3">
    <g id="xtick_8">
     <g id="line2d_20">
      <g>
       <use xlink:href="#md2f6e37398" x="464.65" y="246.04" style="stroke: #000000; stroke-width: 0.8"/>
      </g>
     </g>
     <g id="text_20">
      <!-- −3 -->
      <g transform="translate(457.278906 260.638438) scale(0.1 -0.1)">
       <use xlink:href="#DejaVuSans-2212"/>
       <use xlink:href="#DejaVuSans-33" transform="translate(83.789062 0)"/>
      </g>
     </g>
    </g>
    <g id="xtick_9">
     <g id="line2d_21">
      <g>
       <use xlink:href="#md2f6e37398" x="528.883333" y="246.04" style="stroke: #000000; stroke-width: 0.8"/>
      </g>
     </g>
     <g id="text_21">
      <!-- −2 -->
      <g transform="translate(521.51224 260.638438) scale(0.1 -0.1)">
       <use xlink:href="#DejaVuSans-2212"/>
       <use xlink:href="#DejaVuSans-32" transform="translate(83.789062 0)"/>
      </g>
     </g>
    </g>
    <g id="xtick_10">
     <g id="line2d_22">
      <g>
       <use xlink:href="#md2f6e37398" x="593.116667" y="246.04" style="stroke: #000000; stroke-width: 0.8"/>
      </g>
     </g>
     <g id="text_22">
      <!-- −1 -->
      <g transform="translate(585.745573 260.638438) scale(0.1 -0.1)">
       <use xlink:href="#DejaVuSans-2212"/>
       <use xlink:href="#DejaVuSans-31" transform="translate(83.789062 0)"/>
      </g>
     </g>
    </g>
    <g id="xtick_11">
     <g id="line2d_23">
      <g>
       <use xlink:href="#md2f6e37398" x="657.35" y="246.04" style="stroke: #000000; stroke-width: 0.8"/>
      </g>
     </g>
     <g id="text_23">
      <!-- 0 -->
      <g transform="translate(654.16875 260.638438) scale(0.1 -0.1)">
       <use xlink:href="#DejaVuSans-30"/>
      </g>
     </g>
    </g>
    <g id="xtick_12">
     <g id="line2d_24">
      <g>
       <use xlink:href="#md2f6e37398" x="721.583333" y="246.04" style="stroke: #000000; stroke-width: 0.8"/>
      </g>
     </g>
     <g id="text_24">
      <!-- 1 -->
      <g transform="translate(718.402083 260.638438) scale(0.1 -0.1)">
       <use xlink:href="#DejaVuSans-31"/>
      </g>
     </g>
    </g>
    <g id="xtick_13">
     <g id="line2d_25">
      <g>
       <use xlink:href="#md2f6e37398" x="785.816667" y="246.04" style="stroke: #000000; stroke-width: 0.8"/>
      </g>
     </g>
     <g id="text_25">
      <!-- 2 -->
      <g transform="translate(782.635417 260.638438) scale(0.1 -0.1)">
       <use xlink:href="#DejaVuSans-32"/>
      </g>
     </g>
    </g>
    <g id="xtick_14">
     <g id="line2d_26">
      <g>
       <use xlink:href="#md2f6e37398" x="850.05" y="246.04" style="stroke: #000000; stroke-width: 0.8"/>
      </g>
     </g>
     <g id="text_26">
      <!-- 3 -->
      <g transform="translate(846.86875 260.638438) scale(0.1 -0.1)">
       <use xlink:href="#DejaVuSans-33"/>
      </g>
     </g>
    </g>
    <g id="text_27">
     <!-- latent ability -->
     <g transform="translate(625.817187 274.316562) scale(0.1 -0.1)">
      <use xlink:href="#DejaVuSans-6c"/>
      <use xlink:href="#DejaVuSans-61" transform="translate(27.783203 0)"/>
      <use xlink:href="#DejaVuSans-74" transform="translate(89.0625 0)"/>
      <use xlink:href="#DejaVuSans-65" transform="translate(128.271484 0)"/>
      <use xlink:href="#DejaVuSans-6e" transform="translate(189.794922 0)"/>
      <use xlink:href="#DejaVuSans-74" transform="translate(253.173828 0)"/>
      <use xlink:href="#DejaVuSans-20" transform="translate(292.382812 0)"/>
      <use xlink:href="#DejaVuSans-61" transform="translate(324.169922 0)"/>
      <use xlink:href="#DejaVuSans-62" transform="translate(385.449219 0)"/>
      <use xlink:href="#DejaVuSans-69" transform="translate(448.925781 0)"/>
      <use xlink:href="#DejaVuSans-6c" transform="translate(476.708984 0)"/>
      <use xlink:href="#DejaVuSans-69" transform="translate(504.492188 0)"/>
      <use xlink:href="#DejaVuSans-74" transform="translate(532.275391 0)"/>
      <use xlink:href="#DejaVuSans-79" transform="translate(571.484375 0)"/>
     </g>
    </g>
   </g>
   <g id="matplotlib.axis_4">
    <g id="ytick_7">
     <g id="line2d_27">
      <g>
       <use xlink:href="#m2b6bdac9c5" x="464.65" y="246.04" style="stroke: #000000; stroke-width: 0.8"/>
      </g>
     </g>
    </g>
    <g id="ytick_8">
     <g id="line2d_28">
      <g>
       <use xlink:href="#m2b6bdac9c5" x="464.65" y="204.295238" style="stroke: #000000; stroke-width: 0.8"/>
      </g>
     </g>
    </g>
    <g id="ytick_9">
     <g id="line2d_29">
      <g>
       <use xlink:href="#m2b6bdac9c5" x="464.65" y="162.550476" style="stroke: #000000; stroke-width: 0.8"/>
      </g>
     </g>
    </g>
    <g id="ytick_10">
     <g id="line2d_30">
      <g>
       <use xlink:href="#m2b6bdac9c5" x="464.65" y="120.805714" style="stroke: #000000; stroke-width: 0.8"/>
      </g>
     </g>
    </g>
    <g id="ytick_11">
     <g id="line2d_31">
      <g>
       <use xlink:href="#m2b6bdac9c5" x="464.65" y="79.060952" style="stroke: #000000; stroke-width: 0.8"/>
      </g>
     </g>
    </g>
    <g id="ytick_12">
     <g id="line2d_32">
      <g>
       <use xlink:href="#m2b6bdac9c5" x="464.65" y="37.31619" style="stroke: #000000; stroke-width: 0.8"/>
      </g>
     </g>
    </g>
    <g id="text_28">
     <!-- probability of a correct response -->
     <g transform="translate(455.070312 217.588906) rotate(-90) scale(0.1 -0.1)">
      <use xlink:href="#DejaVuSans-70"/>
      <use xlink:href="#DejaVuSans-72" transform="translate(63.476562 0)"/>
      <use xlink:href="#DejaVuSans-6f" transform="translate(102.339844 0)"/>
      <use xlink:href="#DejaVuSans-62" transform="translate(163.521484 0)"/>
      <use xlink:href="#DejaVuSans-61" transform="translate(226.998047 0)"/>
      <use xlink:href="#DejaVuSans-62" transform="translate(288.277344 0)"/>
      <use xlink:href="#DejaVuSans-69" transform="translate(351.753906 0)"/>
      <use xlink:href="#DejaVuSans-6c" transform="translate(379.537109 0)"/>
      <use xlink:href="#DejaVuSans-69" transform="translate(407.320312 0)"/>
      <use xlink:href="#DejaVuSans-74" transform="translate(435.103516 0)"/>
      <use xlink:href="#DejaVuSans-79" transform="translate(474.3125 0)"/>
      <use xlink:href="#DejaVuSans-20" transform="translate(533.492188 0)"/>
      <use xlink:href="#DejaVuSans-6f" transform="translate(565.279297 0)"/>
      <use xlink:href="#DejaVuSans-66" transform="translate(626.460938 0)"/>
      <use xlink:href="#DejaVuSans-20" transform="translate(661.666016 0)"/>
      <use xlink:href="#DejaVuSans-61" transform="translate(693.453125 0)"/>
      <use xlink:href="#DejaVuSans-20" transform="translate(754.732422 0)"/>
      <use xlink:href="#DejaVuSans-63" transform="translate(786.519531 0)"/>
      <use xlink:href="#DejaVuSans-6f" transform="translate(841.5 0)"/>
      <use xlink:href="#DejaVuSans-72" transform="translate(902.681641 0)"/>
      <use xlink:href="#DejaVuSans-72" transform="translate(942.044922 0)"/>
      <use xlink:href="#DejaVuSans-65" transform="translate(980.908203 0)"/>
      <use xlink:href="#DejaVuSans-63" transform="translate(1042.431641 0)"/>
      <use xlink:href="#DejaVuSans-74" transform="translate(1097.412109 0)"/>
      <use xlink:href="#DejaVuSans-20" transform="translate(1136.621094 0)"/>
      <use xlink:href="#DejaVuSans-72" transform="translate(1168.408203 0)"/>
      <use xlink:href="#DejaVuSans-65" transform="translate(1207.271484 0)"/>
      <use xlink:href="#DejaVuSans-73" transform="translate(1268.794922 0)"/>
      <use xlink:href="#DejaVuSans-70" transform="translate(1320.894531 0)"/>
      <use xlink:href="#DejaVuSans-6f" transform="translate(1384.371094 0)"/>
      <use xlink:href="#DejaVuSans-6e" transform="translate(1445.552734 0)"/>
      <use xlink:href="#DejaVuSans-73" transform="translate(1508.931641 0)"/>
      <use xlink:href="#DejaVuSans-65" transform="translate(1561.03125 0)"/>
     </g>
    </g>
   </g>
   <g id="line2d_33">
    <path d="M 464.65 245.523905 
L 477.539632 245.099644 
L 486.562375 244.610179 
L 494.296154 243.994223 
L 500.74097 243.285201 
L 507.185786 242.334852 
L 512.341639 241.348726 
L 517.497492 240.107736 
L 521.364381 238.973269 
L 525.231271 237.630846 
L 529.098161 236.04605 
L 532.96505 234.180266 
L 536.83194 231.99078 
L 540.698829 229.431185 
L 543.276756 227.49491 
L 545.854682 225.357204 
L 548.432609 223.002932 
L 551.010535 220.417195 
L 553.588462 217.585703 
L 556.166388 214.495219 
L 558.744314 211.134065 
L 561.322241 207.492691 
L 563.900167 203.564277 
L 566.478094 199.345366 
L 570.344983 192.474675 
L 574.211873 184.974039 
L 578.078763 176.891185 
L 581.945652 168.301724 
L 587.101505 156.241965 
L 605.14699 113.106773 
L 609.01388 104.621935 
L 612.880769 96.662916 
L 616.747659 89.299108 
L 620.614548 82.572187 
L 623.192475 78.450259 
L 625.770401 74.618089 
L 628.348328 71.071027 
L 630.926254 67.801275 
L 633.504181 64.798506 
L 636.082107 62.050465 
L 638.660033 59.54351 
L 641.23796 57.263101 
L 643.815886 55.194222 
L 646.393813 53.321733 
L 650.260702 50.848559 
L 654.127592 48.734897 
L 657.994482 46.935105 
L 661.861371 45.40736 
L 665.728261 44.113977 
L 669.595151 43.021464 
L 674.751003 41.826902 
L 679.906856 40.878068 
L 686.351672 39.963993 
L 692.796488 39.282246 
L 700.530268 38.690134 
L 709.55301 38.219714 
L 721.153679 37.84272 
L 736.621237 37.572196 
L 761.111538 37.397823 
L 810.09214 37.32448 
L 850.05 37.317473 
L 850.05 37.317473 
" clip-path="url(#pe00586000a)" style="fill: none; stroke: #1f77b4; stroke-width: 1.5; stroke-linecap: square"/>
   </g>
   <g id="line2d_34">
    <path d="M 464.65 246.014245 
L 507.185786 245.852367 
L 526.520234 245.577715 
L 539.409866 245.19751 
L 549.721572 244.679683 
L 557.455351 244.093389 
L 563.900167 243.418299 
L 570.344983 242.513081 
L 575.500836 241.573356 
L 580.656689 240.390142 
L 584.523579 239.307889 
L 588.390468 238.026506 
L 592.257358 236.51273 
L 596.124247 234.729112 
L 599.991137 232.634052 
L 603.858027 230.182106 
L 606.435953 228.325302 
L 609.01388 226.273367 
L 611.591806 224.011163 
L 614.169732 221.523651 
L 616.747659 218.796236 
L 619.325585 215.815186 
L 621.903512 212.568107 
L 624.481438 209.044491 
L 627.059365 205.236305 
L 629.637291 201.138614 
L 632.215217 196.750204 
L 636.082107 189.630599 
L 639.948997 181.896352 
L 643.815886 173.605965 
L 647.682776 164.845813 
L 652.838629 152.632248 
L 667.017224 118.510377 
L 670.884114 109.750226 
L 674.751003 101.459839 
L 678.617893 93.725591 
L 682.484783 86.605987 
L 686.351672 80.132373 
L 688.929599 76.179833 
L 691.507525 72.514757 
L 694.085452 69.130583 
L 696.663378 66.017963 
L 699.241304 63.165375 
L 701.819231 60.559693 
L 704.397157 58.186696 
L 706.975084 56.03152 
L 709.55301 54.079037 
L 713.4199 51.497456 
L 717.286789 49.288658 
L 721.153679 47.406047 
L 725.020569 45.806692 
L 728.887458 44.451746 
L 732.754348 43.306559 
L 737.910201 42.053697 
L 743.066054 41.058031 
L 748.221906 40.268591 
L 754.666722 39.509253 
L 762.400502 38.84928 
L 771.423244 38.324635 
L 783.023913 37.903988 
L 798.491472 37.602028 
L 820.403846 37.419001 
L 850.05 37.341946 
L 850.05 37.341946 
" clip-path="url(#pe00586000a)" style="fill: none; stroke: #ff7f0e; stroke-width: 1.5; stroke-linecap: square"/>
   </g>
   <g id="line2d_35">
    <path d="M 464.65 246.038718 
L 561.322241 245.922873 
L 584.523579 245.694231 
L 599.991137 245.329175 
L 610.302843 244.891828 
L 619.325585 244.2951 
L 627.059365 243.545045 
L 633.504181 242.682876 
L 638.660033 241.787454 
L 643.815886 240.659461 
L 647.682776 239.627168 
L 651.549666 238.404259 
L 655.416555 236.958614 
L 659.283445 235.25395 
L 663.150334 233.249804 
L 667.017224 230.901751 
L 669.595151 229.121819 
L 672.173077 227.153023 
L 674.751003 224.980272 
L 677.32893 222.588446 
L 679.906856 219.96272 
L 682.484783 217.088946 
L 685.062709 213.95411 
L 687.640635 210.54685 
L 690.218562 206.858027 
L 692.796488 202.881338 
L 695.374415 198.613944 
L 699.241304 191.671743 
L 703.108194 184.103555 
L 706.975084 175.960166 
L 710.841973 167.320281 
L 715.997826 155.213842 
L 732.754348 115.054467 
L 736.621237 106.465005 
L 740.488127 98.382152 
L 744.355017 90.881515 
L 748.221906 84.010825 
L 750.799833 79.791913 
L 753.377759 75.8635 
L 755.955686 72.222126 
L 758.533612 68.860972 
L 761.111538 65.770487 
L 763.689465 62.938995 
L 766.267391 60.353258 
L 768.845318 57.998986 
L 771.423244 55.86128 
L 774.001171 53.925006 
L 777.86806 51.36541 
L 781.73495 49.175925 
L 785.601839 47.31014 
L 789.468729 45.725344 
L 793.335619 44.382922 
L 797.202508 43.248455 
L 802.358361 42.007465 
L 807.514214 41.021338 
L 812.670067 40.23953 
L 819.114883 39.487586 
L 826.848662 38.834086 
L 835.871405 38.314616 
L 847.472074 37.898136 
L 850.05 37.832286 
L 850.05 37.832286 
" clip-path="url(#pe00586000a)" style="fill: none; stroke: #2ca02c; stroke-width: 1.5; stroke-linecap: square"/>
   </g>
   <g id="patch_7">
    <path d="M 464.65 246.04 
L 464.65 26.88 
" style="fill: none; stroke: #000000; stroke-width: 0.8; stroke-linejoin: miter; stroke-linecap: square"/>
   </g>
   <g id="patch_8">
    <path d="M 464.65 246.04 
L 850.05 246.04 
" style="fill: none; stroke: #000000; stroke-width: 0.8; stroke-linejoin: miter; stroke-linecap: square"/>
   </g>
   <g id="text_29">
    <!-- 2PL with positive discrimination -->
    <g transform="translate(562.07 20.88) scale(0.12 -0.12)">
     <use xlink:href="#DejaVuSans-32"/>
     <use xlink:href="#DejaVuSans-50" transform="translate(63.623047 0)"/>
     <use xlink:href="#DejaVuSans-4c" transform="translate(123.925781 0)"/>
     <use xlink:href="#DejaVuSans-20" transform="translate(179.638672 0)"/>
     <use xlink:href="#DejaVuSans-77" transform="translate(211.425781 0)"/>
     <use xlink:href="#DejaVuSans-69" transform="translate(293.212891 0)"/>
     <use xlink:href="#DejaVuSans-74" transform="translate(320.996094 0)"/>
     <use xlink:href="#DejaVuSans-68" transform="translate(360.205078 0)"/>
     <use xlink:href="#DejaVuSans-20" transform="translate(423.583984 0)"/>
     <use xlink:href="#DejaVuSans-70" transform="translate(455.371094 0)"/>
     <use xlink:href="#DejaVuSans-6f" transform="translate(518.847656 0)"/>
     <use xlink:href="#DejaVuSans-73" transform="translate(580.029297 0)"/>
     <use xlink:href="#DejaVuSans-69" transform="translate(632.128906 0)"/>
     <use xlink:href="#DejaVuSans-74" transform="translate(659.912109 0)"/>
     <use xlink:href="#DejaVuSans-69" transform="translate(699.121094 0)"/>
     <use xlink:href="#DejaVuSans-76" transform="translate(726.904297 0)"/>
     <use xlink:href="#DejaVuSans-65" transform="translate(786.083984 0)"/>
     <use xlink:href="#DejaVuSans-20" transform="translate(847.607422 0)"/>
     <use xlink:href="#DejaVuSans-64" transform="translate(879.394531 0)"/>
     <use xlink:href="#DejaVuSans-69" transform="translate(942.871094 0)"/>
     <use xlink:href="#DejaVuSans-73" transform="translate(970.654297 0)"/>
     <use xlink:href="#DejaVuSans-63" transform="translate(1022.753906 0)"/>
     <use xlink:href="#DejaVuSans-72" transform="translate(1077.734375 0)"/>
     <use xlink:href="#DejaVuSans-69" transform="translate(1118.847656 0)"/>
     <use xlink:href="#DejaVuSans-6d" transform="translate(1146.630859 0)"/>
     <use xlink:href="#DejaVuSans-69" transform="translate(1244.042969 0)"/>
     <use xlink:href="#DejaVuSans-6e" transform="translate(1271.826172 0)"/>
     <use xlink:href="#DejaVuSans-61" transform="translate(1335.205078 0)"/>
     <use xlink:href="#DejaVuSans-74" transform="translate(1396.484375 0)"/>
     <use xlink:href="#DejaVuSans-69" transform="translate(1435.693359 0)"/>
     <use xlink:href="#DejaVuSans-6f" transform="translate(1463.476562 0)"/>
     <use xlink:href="#DejaVuSans-6e" transform="translate(1524.658203 0)"/>
    </g>
   </g>
   <g id="legend_2">
    <g id="patch_9">
     <path d="M 640.454687 160.394375 
L 843.05 160.394375 
Q 845.05 160.394375 845.05 158.394375 
L 845.05 114.525625 
Q 845.05 112.525625 843.05 112.525625 
L 640.454687 112.525625 
Q 638.454687 112.525625 638.454687 114.525625 
L 638.454687 158.394375 
Q 638.454687 160.394375 640.454687 160.394375 
z
" style="fill: #ffffff; opacity: 0.8; stroke: #cccccc; stroke-linejoin: miter"/>
    </g>
    <g id="line2d_36">
     <path d="M 642.454687 120.624062 
L 652.454687 120.624062 
L 662.454687 120.624062 
" style="fill: none; stroke: #1f77b4; stroke-width: 1.5; stroke-linecap: square"/>
    </g>
    <g id="text_30">
     <!-- easy_item (disc=3.0, diff=-1.0) -->
     <g transform="translate(670.454687 124.124062) scale(0.1 -0.1)">
      <use xlink:href="#DejaVuSans-65"/>
      <use xlink:href="#DejaVuSans-61" transform="translate(61.523438 0)"/>
      <use xlink:href="#DejaVuSans-73" transform="translate(122.802734 0)"/>
      <use xlink:href="#DejaVuSans-79" transform="translate(174.902344 0)"/>
      <use xlink:href="#DejaVuSans-5f" transform="translate(234.082031 0)"/>
      <use xlink:href="#DejaVuSans-69" transform="translate(284.082031 0)"/>
      <use xlink:href="#DejaVuSans-74" transform="translate(311.865234 0)"/>
      <use xlink:href="#DejaVuSans-65" transform="translate(351.074219 0)"/>
      <use xlink:href="#DejaVuSans-6d" transform="translate(412.597656 0)"/>
      <use xlink:href="#DejaVuSans-20" transform="translate(510.009766 0)"/>
      <use xlink:href="#DejaVuSans-28" transform="translate(541.796875 0)"/>
      <use xlink:href="#DejaVuSans-64" transform="translate(580.810547 0)"/>
      <use xlink:href="#DejaVuSans-69" transform="translate(644.287109 0)"/>
      <use xlink:href="#DejaVuSans-73" transform="translate(672.070312 0)"/>
      <use xlink:href="#DejaVuSans-63" transform="translate(724.169922 0)"/>
      <use xlink:href="#DejaVuSans-3d" transform="translate(779.150391 0)"/>
      <use xlink:href="#DejaVuSans-33" transform="translate(862.939453 0)"/>
      <use xlink:href="#DejaVuSans-2e" transform="translate(926.5625 0)"/>
      <use xlink:href="#DejaVuSans-30" transform="translate(958.349609 0)"/>
      <use xlink:href="#DejaVuSans-2c" transform="translate(1021.972656 0)"/>
      <use xlink:href="#DejaVuSans-20" transform="translate(1053.759766 0)"/>
      <use xlink:href="#DejaVuSans-64" transform="translate(1085.546875 0)"/>
      <use xlink:href="#DejaVuSans-69" transform="translate(1149.023438 0)"/>
      <use xlink:href="#DejaVuSans-66" transform="translate(1176.806641 0)"/>
      <use xlink:href="#DejaVuSans-66" transform="translate(1212.011719 0)"/>
      <use xlink:href="#DejaVuSans-3d" transform="translate(1247.216797 0)"/>
      <use xlink:href="#DejaVuSans-2d" transform="translate(1331.005859 0)"/>
      <use xlink:href="#DejaVuSans-31" transform="translate(1367.089844 0)"/>
      <use xlink:href="#DejaVuSans-2e" transform="translate(1430.712891 0)"/>
      <use xlink:href="#DejaVuSans-30" transform="translate(1462.5 0)"/>
      <use xlink:href="#DejaVuSans-29" transform="translate(1526.123047 0)"/>
     </g>
    </g>
    <g id="line2d_37">
     <path d="M 642.454687 135.580312 
L 652.454687 135.580312 
L 662.454687 135.580312 
" style="fill: none; stroke: #ff7f0e; stroke-width: 1.5; stroke-linecap: square"/>
    </g>
    <g id="text_31">
     <!-- medium_item (disc=3.0, diff=0.0) -->
     <g transform="translate(670.454687 139.080312) scale(0.1 -0.1)">
      <use xlink:href="#DejaVuSans-6d"/>
      <use xlink:href="#DejaVuSans-65" transform="translate(97.412109 0)"/>
      <use xlink:href="#DejaVuSans-64" transform="translate(158.935547 0)"/>
      <use xlink:href="#DejaVuSans-69" transform="translate(222.412109 0)"/>
      <use xlink:href="#DejaVuSans-75" transform="translate(250.195312 0)"/>
      <use xlink:href="#DejaVuSans-6d" transform="translate(313.574219 0)"/>
      <use xlink:href="#DejaVuSans-5f" transform="translate(410.986328 0)"/>
      <use xlink:href="#DejaVuSans-69" transform="translate(460.986328 0)"/>
      <use xlink:href="#DejaVuSans-74" transform="translate(488.769531 0)"/>
      <use xlink:href="#DejaVuSans-65" transform="translate(527.978516 0)"/>
      <use xlink:href="#DejaVuSans-6d" transform="translate(589.501953 0)"/>
      <use xlink:href="#DejaVuSans-20" transform="translate(686.914062 0)"/>
      <use xlink:href="#DejaVuSans-28" transform="translate(718.701172 0)"/>
      <use xlink:href="#DejaVuSans-64" transform="translate(757.714844 0)"/>
      <use xlink:href="#DejaVuSans-69" transform="translate(821.191406 0)"/>
      <use xlink:href="#DejaVuSans-73" transform="translate(848.974609 0)"/>
      <use xlink:href="#DejaVuSans-63" transform="translate(901.074219 0)"/>
      <use xlink:href="#DejaVuSans-3d" transform="translate(956.054688 0)"/>
      <use xlink:href="#DejaVuSans-33" transform="translate(1039.84375 0)"/>
      <use xlink:href="#DejaVuSans-2e" transform="translate(1103.466797 0)"/>
      <use xlink:href="#DejaVuSans-30" transform="translate(1135.253906 0)"/>
      <use xlink:href="#DejaVuSans-2c" transform="translate(1198.876953 0)"/>
      <use xlink:href="#DejaVuSans-20" transform="translate(1230.664062 0)"/>
      <use xlink:href="#DejaVuSans-64" transform="translate(1262.451172 0)"/>
      <use xlink:href="#DejaVuSans-69" transform="translate(1325.927734 0)"/>
      <use xlink:href="#DejaVuSans-66" transform="translate(1353.710938 0)"/>
      <use xlink:href="#DejaVuSans-66" transform="translate(1388.916016 0)"/>
      <use xlink:href="#DejaVuSans-3d" transform="translate(1424.121094 0)"/>
      <use xlink:href="#DejaVuSans-30" transform="translate(1507.910156 0)"/>
      <use xlink:href="#DejaVuSans-2e" transform="translate(1571.533203 0)"/>
      <use xlink:href="#DejaVuSans-30" transform="translate(1603.320312 0)"/>
      <use xlink:href="#DejaVuSans-29" transform="translate(1666.943359 0)"/>
     </g>
    </g>
    <g id="line2d_38">
     <path d="M 642.454687 150.536562 
L 652.454687 150.536562 
L 662.454687 150.536562 
" style="fill: none; stroke: #2ca02c; stroke-width: 1.5; stroke-linecap: square"/>
    </g>
    <g id="text_32">
     <!-- hard_item (disc=3.0, diff=1.0) -->
     <g transform="translate(670.454687 154.036562) scale(0.1 -0.1)">
      <use xlink:href="#DejaVuSans-68"/>
      <use xlink:href="#DejaVuSans-61" transform="translate(63.378906 0)"/>
      <use xlink:href="#DejaVuSans-72" transform="translate(124.658203 0)"/>
      <use xlink:href="#DejaVuSans-64" transform="translate(164.021484 0)"/>
      <use xlink:href="#DejaVuSans-5f" transform="translate(227.498047 0)"/>
      <use xlink:href="#DejaVuSans-69" transform="translate(277.498047 0)"/>
      <use xlink:href="#DejaVuSans-74" transform="translate(305.28125 0)"/>
      <use xlink:href="#DejaVuSans-65" transform="translate(344.490234 0)"/>
      <use xlink:href="#DejaVuSans-6d" transform="translate(406.013672 0)"/>
      <use xlink:href="#DejaVuSans-20" transform="translate(503.425781 0)"/>
      <use xlink:href="#DejaVuSans-28" transform="translate(535.212891 0)"/>
      <use xlink:href="#DejaVuSans-64" transform="translate(574.226562 0)"/>
      <use xlink:href="#DejaVuSans-69" transform="translate(637.703125 0)"/>
      <use xlink:href="#DejaVuSans-73" transform="translate(665.486328 0)"/>
      <use xlink:href="#DejaVuSans-63" transform="translate(717.585938 0)"/>
      <use xlink:href="#DejaVuSans-3d" transform="translate(772.566406 0)"/>
      <use xlink:href="#DejaVuSans-33" transform="translate(856.355469 0)"/>
      <use xlink:href="#DejaVuSans-2e" transform="translate(919.978516 0)"/>
      <use xlink:href="#DejaVuSans-30" transform="translate(951.765625 0)"/>
      <use xlink:href="#DejaVuSans-2c" transform="translate(1015.388672 0)"/>
      <use xlink:href="#DejaVuSans-20" transform="translate(1047.175781 0)"/>
      <use xlink:href="#DejaVuSans-64" transform="translate(1078.962891 0)"/>
      <use xlink:href="#DejaVuSans-69" transform="translate(1142.439453 0)"/>
      <use xlink:href="#DejaVuSans-66" transform="translate(1170.222656 0)"/>
      <use xlink:href="#DejaVuSans-66" transform="translate(1205.427734 0)"/>
      <use xlink:href="#DejaVuSans-3d" transform="translate(1240.632812 0)"/>
      <use xlink:href="#DejaVuSans-31" transform="translate(1324.421875 0)"/>
      <use xlink:href="#DejaVuSans-2e" transform="translate(1388.044922 0)"/>
      <use xlink:href="#DejaVuSans-30" transform="translate(1419.832031 0)"/>
      <use xlink:href="#DejaVuSans-29" transform="translate(1483.455078 0)"/>
     </g>
    </g>
   </g>
  </g>
 </g>
 <defs>
  <clipPath id="p25d3c96b2d">
   <rect x="47.72" y="26.88" width="385.4" height="219.16"/>
  </clipPath>
  <clipPath id="pe00586000a">
   <rect x="464.65" y="26.88" width="385.4" height="219.16"/>
  </clipPath>
 </defs>
</svg>
