<?xml version="1.0" encoding="utf-8" standalone="no"?>
<!DOCTYPE svg PUBLIC "-//W3C//DTD SVG 1.1//EN"
  "http://www.w3.org/Graphics/SVG/1.1/DTD/svg11.dtd">
<svg xmlns:xlink="http://www.w3.org/1999/xlink" width="1055.38125pt" height="392.514375pt" viewBox="0 0 1055.38125 392.514375" xmlns="http://www.w3.org/2000/svg" version="1.1">
 <metadata>
  <rdf:RDF xmlns:dc="http://purl.org/dc/elements/1.1/" xmlns:cc="http://creativecommons.org/ns#" xmlns:rdf="http://www.w3.org/1999/02/22-rdf-syntax-ns#">
   <cc:Work>
    <dc:type rdf:resource="http://purl.org/dc/dcmitype/StillImage"/>
    <dc:date>2026-04-20T15:07:24.652520</dc:date>
    <dc:format>image/svg+xml</dc:format>
    <dc:creator>
     <cc:Agent>
      <dc:title>Matplotlib v3.10.8, https://matplotlib.org/</dc:title>
     </cc:Agent>
    </dc:creator>
   </cc:Work>
  </rdf:RDF>
 </metadata>
 <defs>
  <style type="text/css">*{stroke-linejoin: round; stroke-linecap: butt}</style>
 </defs>
 <g id="figure_1">
  <g id="patch_1">
   <path d="M 0 392.514375 
L 1055.38125 392.514375 
L 1055.38125 0 
L 0 0 
z
" style="fill: #ffffff"/>
  </g>
  <g id="axes_1">
   <g id="patch_2">
    <path d="M 43.78125 354.958125 
L 500.326705 354.958125 
L 500.326705 22.318125 
L 43.78125 22.318125 
z
" style="fill: #ffffff"/>
   </g>
   <g id="matplotlib.axis_1">
    <g id="xtick_1">
     <g id="line2d_1">
      <defs>
       <path id="m80a5fe3f40" d="M 0 0 
L 0 3.5 
" style="stroke: #000000; stroke-width: 0.8"/>
      </defs>
      <g>
       <use xlink:href="#m80a5fe3f40" x="60.298201" y="354.958125" style="stroke: #000000; stroke-width: 0.8"/>
      </g>
     </g>
     <g id="text_1">
      <!-- 0.0 -->
      <g transform="translate(52.346638 369.556562) scale(0.1 -0.1)">
       <defs>
        <path id="DejaVuSans-30" d="M 2034 4250 
Q 1547 4250 1301 3770 
Q 1056 3291 1056 2328 
Q 1056 1369 1301 889 
Q 1547 409 2034 409 
Q 2525 409 2770 889 
Q 3016 1369 3016 2328 
Q 3016 3291 2770 3770 
Q 2525 4250 2034 4250 
z
M 2034 4750 
Q 2819 4750 3233 4129 
Q 3647 3509 3647 2328 
Q 3647 1150 3233 529 
Q 2819 -91 2034 -91 
Q 1250 -91 836 529 
Q 422 1150 422 2328 
Q 422 3509 836 4129 
Q 1250 4750 2034 4750 
z
" transform="scale(0.015625)"/>
        <path id="DejaVuSans-2e" d="M 684 794 
L 1344 794 
L 1344 0 
L 684 0 
L 684 794 
z
" transform="scale(0.015625)"/>
       </defs>
       <use xlink:href="#DejaVuSans-30"/>
       <use xlink:href="#DejaVuSans-2e" transform="translate(63.623047 0)"/>
       <use xlink:href="#DejaVuSans-30" transform="translate(95.410156 0)"/>
      </g>
     </g>
    </g>
    <g id="xtick_2">
     <g id="line2d_2">
      <g>
       <use xlink:href="#m80a5fe3f40" x="145.000511" y="354.958125" style="stroke: #000000; stroke-width: 0.8"/>
      </g>
     </g>
     <g id="text_2">
      <!-- 0.2 -->
      <g transform="translate(137.048949 369.556562) scale(0.1 -0.1)">
       <defs>
        <path id="DejaVuSans-32" d="M 1228 531 
L 3431 531 
L 3431 0 
L 469 0 
L 469 531 
Q 828 903 1448 1529 
Q 2069 2156 2228 2338 
Q 2531 2678 2651 2914 
Q 2772 3150 2772 3378 
Q 2772 3750 2511 3984 
Q 2250 4219 1831 4219 
Q 1534 4219 1204 4116 
Q 875 4013 500 3803 
L 500 4441 
Q 881 4594 1212 4672 
Q 1544 4750 1819 4750 
Q 2544 4750 2975 4387 
Q 3406 4025 3406 3419 
Q 3406 3131 3298 2873 
Q 3191 2616 2906 2266 
Q 2828 2175 2409 1742 
Q 1991 1309 1228 531 
z
" transform="scale(0.015625)"/>
       </defs>
       <use xlink:href="#DejaVuSans-30"/>
       <use xlink:href="#DejaVuSans-2e" transform="translate(63.623047 0)"/>
       <use xlink:href="#DejaVuSans-32" transform="translate(95.410156 0)"/>
      </g>
     </g>
    </g>
    <g id="xtick_3">
     <g id="line2d_3">
      <g>
       <use xlink:href="#m80a5fe3f40" x="229.702822" y="354.958125" style="stroke: #000000; stroke-width: 0.8"/>
      </g>
     </g>
     <g id="text_3">
      <!-- 0.4 -->
      <g transform="translate(221.751259 369.556562) scale(0.1 -0.1)">
       <defs>
        <path id="DejaVuSans-34" d="M 2419 4116 
L 825 1625 
L 2419 1625 
L 2419 4116 
z
M 2253 4666 
L 3047 4666 
L 3047 1625 
L 3713 1625 
L 3713 1100 
L 3047 1100 
L 3047 0 
L 2419 0 
L 2419 1100 
L 313 1100 
L 313 1709 
L 2253 4666 
z
" transform="scale(0.015625)"/>
       </defs>
       <use xlink:href="#DejaVuSans-30"/>
       <use xlink:href="#DejaVuSans-2e" transform="translate(63.623047 0)"/>
       <use xlink:href="#DejaVuSans-34" transform="translate(95.410156 0)"/>
      </g>
     </g>
    </g>
    <g id="xtick_4">
     <g id="line2d_4">
      <g>
       <use xlink:href="#m80a5fe3f40" x="314.405133" y="354.958125" style="stroke: #000000; stroke-width: 0.8"/>
      </g>
     </g>
     <g id="text_4">
      <!-- 0.6 -->
      <g transform="translate(306.45357 369.556562) scale(0.1 -0.1)">
       <defs>
        <path id="DejaVuSans-36" d="M 2113 2584 
Q 1688 2584 1439 2293 
Q 1191 2003 1191 1497 
Q 1191 994 1439 701 
Q 1688 409 2113 409 
Q 2538 409 2786 701 
Q 3034 994 3034 1497 
Q 3034 2003 2786 2293 
Q 2538 2584 2113 2584 
z
M 3366 4563 
L 3366 3988 
Q 3128 4100 2886 4159 
Q 2644 4219 2406 4219 
Q 1781 4219 1451 3797 
Q 1122 3375 1075 2522 
Q 1259 2794 1537 2939 
Q 1816 3084 2150 3084 
Q 2853 3084 3261 2657 
Q 3669 2231 3669 1497 
Q 3669 778 3244 343 
Q 2819 -91 2113 -91 
Q 1303 -91 875 529 
Q 447 1150 447 2328 
Q 447 3434 972 4092 
Q 1497 4750 2381 4750 
Q 2619 4750 2861 4703 
Q 3103 4656 3366 4563 
z
" transform="scale(0.015625)"/>
       </defs>
       <use xlink:href="#DejaVuSans-30"/>
       <use xlink:href="#DejaVuSans-2e" transform="translate(63.623047 0)"/>
       <use xlink:href="#DejaVuSans-36" transform="translate(95.410156 0)"/>
      </g>
     </g>
    </g>
    <g id="xtick_5">
     <g id="line2d_5">
      <g>
       <use xlink:href="#m80a5fe3f40" x="399.107443" y="354.958125" style="stroke: #000000; stroke-width: 0.8"/>
      </g>
     </g>
     <g id="text_5">
      <!-- 0.8 -->
      <g transform="translate(391.155881 369.556562) scale(0.1 -0.1)">
       <defs>
        <path id="DejaVuSans-38" d="M 2034 2216 
Q 1584 2216 1326 1975 
Q 1069 1734 1069 1313 
Q 1069 891 1326 650 
Q 1584 409 2034 409 
Q 2484 409 2743 651 
Q 3003 894 3003 1313 
Q 3003 1734 2745 1975 
Q 2488 2216 2034 2216 
z
M 1403 2484 
Q 997 2584 770 2862 
Q 544 3141 544 3541 
Q 544 4100 942 4425 
Q 1341 4750 2034 4750 
Q 2731 4750 3128 4425 
Q 3525 4100 3525 3541 
Q 3525 3141 3298 2862 
Q 3072 2584 2669 2484 
Q 3125 2378 3379 2068 
Q 3634 1759 3634 1313 
Q 3634 634 3220 271 
Q 2806 -91 2034 -91 
Q 1263 -91 848 271 
Q 434 634 434 1313 
Q 434 1759 690 2068 
Q 947 2378 1403 2484 
z
M 1172 3481 
Q 1172 3119 1398 2916 
Q 1625 2713 2034 2713 
Q 2441 2713 2670 2916 
Q 2900 3119 2900 3481 
Q 2900 3844 2670 4047 
Q 2441 4250 2034 4250 
Q 1625 4250 1398 4047 
Q 1172 3844 1172 3481 
z
" transform="scale(0.015625)"/>
       </defs>
       <use xlink:href="#DejaVuSans-30"/>
       <use xlink:href="#DejaVuSans-2e" transform="translate(63.623047 0)"/>
       <use xlink:href="#DejaVuSans-38" transform="translate(95.410156 0)"/>
      </g>
     </g>
    </g>
    <g id="xtick_6">
     <g id="line2d_6">
      <g>
       <use xlink:href="#m80a5fe3f40" x="483.809754" y="354.958125" style="stroke: #000000; stroke-width: 0.8"/>
      </g>
     </g>
     <g id="text_6">
      <!-- 1.0 -->
      <g transform="translate(475.858191 369.556562) scale(0.1 -0.1)">
       <defs>
        <path id="DejaVuSans-31" d="M 794 531 
L 1825 531 
L 1825 4091 
L 703 3866 
L 703 4441 
L 1819 4666 
L 2450 4666 
L 2450 531 
L 3481 531 
L 3481 0 
L 794 0 
L 794 531 
z
" transform="scale(0.015625)"/>
       </defs>
       <use xlink:href="#DejaVuSans-31"/>
       <use xlink:href="#DejaVuSans-2e" transform="translate(63.623047 0)"/>
       <use xlink:href="#DejaVuSans-30" transform="translate(95.410156 0)"/>
      </g>
     </g>
    </g>
    <g id="text_7">
     <!-- latent ability -->
     <g transform="translate(240.521165 383.234687) scale(0.1 -0.1)">
      <defs>
       <path id="DejaVuSans-6c" d="M 603 4863 
L 1178 4863 
L 1178 0 
L 603 0 
L 603 4863 
z
" transform="scale(0.015625)"/>
       <path id="DejaVuSans-61" d="M 2194 1759 
Q 1497 1759 1228 1600 
Q 959 1441 959 1056 
Q 959 750 1161 570 
Q 1363 391 1709 391 
Q 2188 391 2477 730 
Q 2766 1069 2766 1631 
L 2766 1759 
L 2194 1759 
z
M 3341 1997 
L 3341 0 
L 2766 0 
L 2766 531 
Q 2569 213 2275 61 
Q 1981 -91 1556 -91 
Q 1019 -91 701 211 
Q 384 513 384 1019 
Q 384 1609 779 1909 
Q 1175 2209 1959 2209 
L 2766 2209 
L 2766 2266 
Q 2766 2663 2505 2880 
Q 2244 3097 1772 3097 
Q 1472 3097 1187 3025 
Q 903 2953 641 2809 
L 641 3341 
Q 956 3463 1253 3523 
Q 1550 3584 1831 3584 
Q 2591 3584 2966 3190 
Q 3341 2797 3341 1997 
z
" transform="scale(0.015625)"/>
       <path id="DejaVuSans-74" d="M 1172 4494 
L 1172 3500 
L 2356 3500 
L 2356 3053 
L 1172 3053 
L 1172 1153 
Q 1172 725 1289 603 
Q 1406 481 1766 481 
L 2356 481 
L 2356 0 
L 1766 0 
Q 1100 0 847 248 
Q 594 497 594 1153 
L 594 3053 
L 172 3053 
L 172 3500 
L 594 3500 
L 594 4494 
L 1172 4494 
z
" transform="scale(0.015625)"/>
       <path id="DejaVuSans-65" d="M 3597 1894 
L 3597 1613 
L 953 1613 
Q 991 1019 1311 708 
Q 1631 397 2203 397 
Q 2534 397 2845 478 
Q 3156 559 3463 722 
L 3463 178 
Q 3153 47 2828 -22 
Q 2503 -91 2169 -91 
Q 1331 -91 842 396 
Q 353 884 353 1716 
Q 353 2575 817 3079 
Q 1281 3584 2069 3584 
Q 2775 3584 3186 3129 
Q 3597 2675 3597 1894 
z
M 3022 2063 
Q 3016 2534 2758 2815 
Q 2500 3097 2075 3097 
Q 1594 3097 1305 2825 
Q 1016 2553 972 2059 
L 3022 2063 
z
" transform="scale(0.015625)"/>
       <path id="DejaVuSans-6e" d="M 3513 2113 
L 3513 0 
L 2938 0 
L 2938 2094 
Q 2938 2591 2744 2837 
Q 2550 3084 2163 3084 
Q 1697 3084 1428 2787 
Q 1159 2491 1159 1978 
L 1159 0 
L 581 0 
L 581 3500 
L 1159 3500 
L 1159 2956 
Q 1366 3272 1645 3428 
Q 1925 3584 2291 3584 
Q 2894 3584 3203 3211 
Q 3513 2838 3513 2113 
z
" transform="scale(0.015625)"/>
       <path id="DejaVuSans-20" transform="scale(0.015625)"/>
       <path id="DejaVuSans-62" d="M 3116 1747 
Q 3116 2381 2855 2742 
Q 2594 3103 2138 3103 
Q 1681 3103 1420 2742 
Q 1159 2381 1159 1747 
Q 1159 1113 1420 752 
Q 1681 391 2138 391 
Q 2594 391 2855 752 
Q 3116 1113 3116 1747 
z
M 1159 2969 
Q 1341 3281 1617 3432 
Q 1894 3584 2278 3584 
Q 2916 3584 3314 3078 
Q 3713 2572 3713 1747 
Q 3713 922 3314 415 
Q 2916 -91 2278 -91 
Q 1894 -91 1617 61 
Q 1341 213 1159 525 
L 1159 0 
L 581 0 
L 581 4863 
L 1159 4863 
L 1159 2969 
z
" transform="scale(0.015625)"/>
       <path id="DejaVuSans-69" d="M 603 3500 
L 1178 3500 
L 1178 0 
L 603 0 
L 603 3500 
z
M 603 4863 
L 1178 4863 
L 1178 4134 
L 603 4134 
L 603 4863 
z
" transform="scale(0.015625)"/>
       <path id="DejaVuSans-79" d="M 2059 -325 
Q 1816 -950 1584 -1140 
Q 1353 -1331 966 -1331 
L 506 -1331 
L 506 -850 
L 844 -850 
Q 1081 -850 1212 -737 
Q 1344 -625 1503 -206 
L 1606 56 
L 191 3500 
L 800 3500 
L 1894 763 
L 2988 3500 
L 3597 3500 
L 2059 -325 
z
" transform="scale(0.015625)"/>
      </defs>
      <use xlink:href="#DejaVuSans-6c"/>
      <use xlink:href="#DejaVuSans-61" transform="translate(27.783203 0)"/>
      <use xlink:href="#DejaVuSans-74" transform="translate(89.0625 0)"/>
      <use xlink:href="#DejaVuSans-65" transform="translate(128.271484 0)"/>
      <use xlink:href="#DejaVuSans-6e" transform="translate(189.794922 0)"/>
      <use xlink:href="#DejaVuSans-74" transform="translate(253.173828 0)"/>
      <use xlink:href="#DejaVuSans-20" transform="translate(292.382812 0)"/>
      <use xlink:href="#DejaVuSans-61" transform="translate(324.169922 0)"/>
      <use xlink:href="#DejaVuSans-62" transform="translate(385.449219 0)"/>
      <use xlink:href="#DejaVuSans-69" transform="translate(448.925781 0)"/>
      <use xlink:href="#DejaVuSans-6c" transform="translate(476.708984 0)"/>
      <use xlink:href="#DejaVuSans-69" transform="translate(504.492188 0)"/>
      <use xlink:href="#DejaVuSans-74" transform="translate(532.275391 0)"/>
      <use xlink:href="#DejaVuSans-79" transform="translate(571.484375 0)"/>
     </g>
    </g>
   </g>
   <g id="matplotlib.axis_2">
    <g id="ytick_1">
     <g id="line2d_7">
      <defs>
       <path id="mee0a4661b7" d="M 0 0 
L -3.5 0 
" style="stroke: #000000; stroke-width: 0.8"/>
      </defs>
      <g>
       <use xlink:href="#mee0a4661b7" x="43.78125" y="354.958125" style="stroke: #000000; stroke-width: 0.8"/>
      </g>
     </g>
     <g id="text_8">
      <!-- 0.0 -->
      <g transform="translate(20.878125 358.757344) scale(0.1 -0.1)">
       <use xlink:href="#DejaVuSans-30"/>
       <use xlink:href="#DejaVuSans-2e" transform="translate(63.623047 0)"/>
       <use xlink:href="#DejaVuSans-30" transform="translate(95.410156 0)"/>
      </g>
     </g>
    </g>
    <g id="ytick_2">
     <g id="line2d_8">
      <g>
       <use xlink:href="#mee0a4661b7" x="43.78125" y="291.598125" style="stroke: #000000; stroke-width: 0.8"/>
      </g>
     </g>
     <g id="text_9">
      <!-- 0.2 -->
      <g transform="translate(20.878125 295.397344) scale(0.1 -0.1)">
       <use xlink:href="#DejaVuSans-30"/>
       <use xlink:href="#DejaVuSans-2e" transform="translate(63.623047 0)"/>
       <use xlink:href="#DejaVuSans-32" transform="translate(95.410156 0)"/>
      </g>
     </g>
    </g>
    <g id="ytick_3">
     <g id="line2d_9">
      <g>
       <use xlink:href="#mee0a4661b7" x="43.78125" y="228.238125" style="stroke: #000000; stroke-width: 0.8"/>
      </g>
     </g>
     <g id="text_10">
      <!-- 0.4 -->
      <g transform="translate(20.878125 232.037344) scale(0.1 -0.1)">
       <use xlink:href="#DejaVuSans-30"/>
       <use xlink:href="#DejaVuSans-2e" transform="translate(63.623047 0)"/>
       <use xlink:href="#DejaVuSans-34" transform="translate(95.410156 0)"/>
      </g>
     </g>
    </g>
    <g id="ytick_4">
     <g id="line2d_10">
      <g>
       <use xlink:href="#mee0a4661b7" x="43.78125" y="164.878125" style="stroke: #000000; stroke-width: 0.8"/>
      </g>
     </g>
     <g id="text_11">
      <!-- 0.6 -->
      <g transform="translate(20.878125 168.677344) scale(0.1 -0.1)">
       <use xlink:href="#DejaVuSans-30"/>
       <use xlink:href="#DejaVuSans-2e" transform="translate(63.623047 0)"/>
       <use xlink:href="#DejaVuSans-36" transform="translate(95.410156 0)"/>
      </g>
     </g>
    </g>
    <g id="ytick_5">
     <g id="line2d_11">
      <g>
       <use xlink:href="#mee0a4661b7" x="43.78125" y="101.518125" style="stroke: #000000; stroke-width: 0.8"/>
      </g>
     </g>
     <g id="text_12">
      <!-- 0.8 -->
      <g transform="translate(20.878125 105.317344) scale(0.1 -0.1)">
       <use xlink:href="#DejaVuSans-30"/>
       <use xlink:href="#DejaVuSans-2e" transform="translate(63.623047 0)"/>
       <use xlink:href="#DejaVuSans-38" transform="translate(95.410156 0)"/>
      </g>
     </g>
    </g>
    <g id="ytick_6">
     <g id="line2d_12">
      <g>
       <use xlink:href="#mee0a4661b7" x="43.78125" y="38.158125" style="stroke: #000000; stroke-width: 0.8"/>
      </g>
     </g>
     <g id="text_13">
      <!-- 1.0 -->
      <g transform="translate(20.878125 41.957344) scale(0.1 -0.1)">
       <use xlink:href="#DejaVuSans-31"/>
       <use xlink:href="#DejaVuSans-2e" transform="translate(63.623047 0)"/>
       <use xlink:href="#DejaVuSans-30" transform="translate(95.410156 0)"/>
      </g>
     </g>
    </g>
    <g id="text_14">
     <!-- probability of a correct response -->
     <g transform="translate(14.798437 269.767031) rotate(-90) scale(0.1 -0.1)">
      <defs>
       <path id="DejaVuSans-70" d="M 1159 525 
L 1159 -1331 
L 581 -1331 
L 581 3500 
L 1159 3500 
L 1159 2969 
Q 1341 3281 1617 3432 
Q 1894 3584 2278 3584 
Q 2916 3584 3314 3078 
Q 3713 2572 3713 1747 
Q 3713 922 3314 415 
Q 2916 -91 2278 -91 
Q 1894 -91 1617 61 
Q 1341 213 1159 525 
z
M 3116 1747 
Q 3116 2381 2855 2742 
Q 2594 3103 2138 3103 
Q 1681 3103 1420 2742 
Q 1159 2381 1159 1747 
Q 1159 1113 1420 752 
Q 1681 391 2138 391 
Q 2594 391 2855 752 
Q 3116 1113 3116 1747 
z
" transform="scale(0.015625)"/>
       <path id="DejaVuSans-72" d="M 2631 2963 
Q 2534 3019 2420 3045 
Q 2306 3072 2169 3072 
Q 1681 3072 1420 2755 
Q 1159 2438 1159 1844 
L 1159 0 
L 581 0 
L 581 3500 
L 1159 3500 
L 1159 2956 
Q 1341 3275 1631 3429 
Q 1922 3584 2338 3584 
Q 2397 3584 2469 3576 
Q 2541 3569 2628 3553 
L 2631 2963 
z
" transform="scale(0.015625)"/>
       <path id="DejaVuSans-6f" d="M 1959 3097 
Q 1497 3097 1228 2736 
Q 959 2375 959 1747 
Q 959 1119 1226 758 
Q 1494 397 1959 397 
Q 2419 397 2687 759 
Q 2956 1122 2956 1747 
Q 2956 2369 2687 2733 
Q 2419 3097 1959 3097 
z
M 1959 3584 
Q 2709 3584 3137 3096 
Q 3566 2609 3566 1747 
Q 3566 888 3137 398 
Q 2709 -91 1959 -91 
Q 1206 -91 779 398 
Q 353 888 353 1747 
Q 353 2609 779 3096 
Q 1206 3584 1959 3584 
z
" transform="scale(0.015625)"/>
       <path id="DejaVuSans-66" d="M 2375 4863 
L 2375 4384 
L 1825 4384 
Q 1516 4384 1395 4259 
Q 1275 4134 1275 3809 
L 1275 3500 
L 2222 3500 
L 2222 3053 
L 1275 3053 
L 1275 0 
L 697 0 
L 697 3053 
L 147 3053 
L 147 3500 
L 697 3500 
L 697 3744 
Q 697 4328 969 4595 
Q 1241 4863 1831 4863 
L 2375 4863 
z
" transform="scale(0.015625)"/>
       <path id="DejaVuSans-63" d="M 3122 3366 
L 3122 2828 
Q 2878 2963 2633 3030 
Q 2388 3097 2138 3097 
Q 1578 3097 1268 2742 
Q 959 2388 959 1747 
Q 959 1106 1268 751 
Q 1578 397 2138 397 
Q 2388 397 2633 464 
Q 2878 531 3122 666 
L 3122 134 
Q 2881 22 2623 -34 
Q 2366 -91 2075 -91 
Q 1284 -91 818 406 
Q 353 903 353 1747 
Q 353 2603 823 3093 
Q 1294 3584 2113 3584 
Q 2378 3584 2631 3529 
Q 2884 3475 3122 3366 
z
" transform="scale(0.015625)"/>
       <path id="DejaVuSans-73" d="M 2834 3397 
L 2834 2853 
Q 2591 2978 2328 3040 
Q 2066 3103 1784 3103 
Q 1356 3103 1142 2972 
Q 928 2841 928 2578 
Q 928 2378 1081 2264 
Q 1234 2150 1697 2047 
L 1894 2003 
Q 2506 1872 2764 1633 
Q 3022 1394 3022 966 
Q 3022 478 2636 193 
Q 2250 -91 1575 -91 
Q 1294 -91 989 -36 
Q 684 19 347 128 
L 347 722 
Q 666 556 975 473 
Q 1284 391 1588 391 
Q 1994 391 2212 530 
Q 2431 669 2431 922 
Q 2431 1156 2273 1281 
Q 2116 1406 1581 1522 
L 1381 1569 
Q 847 1681 609 1914 
Q 372 2147 372 2553 
Q 372 3047 722 3315 
Q 1072 3584 1716 3584 
Q 2034 3584 2315 3537 
Q 2597 3491 2834 3397 
z
" transform="scale(0.015625)"/>
      </defs>
      <use xlink:href="#DejaVuSans-70"/>
      <use xlink:href="#DejaVuSans-72" transform="translate(63.476562 0)"/>
      <use xlink:href="#DejaVuSans-6f" transform="translate(102.339844 0)"/>
      <use xlink:href="#DejaVuSans-62" transform="translate(163.521484 0)"/>
      <use xlink:href="#DejaVuSans-61" transform="translate(226.998047 0)"/>
      <use xlink:href="#DejaVuSans-62" transform="translate(288.277344 0)"/>
      <use xlink:href="#DejaVuSans-69" transform="translate(351.753906 0)"/>
      <use xlink:href="#DejaVuSans-6c" transform="translate(379.537109 0)"/>
      <use xlink:href="#DejaVuSans-69" transform="translate(407.320312 0)"/>
      <use xlink:href="#DejaVuSans-74" transform="translate(435.103516 0)"/>
      <use xlink:href="#DejaVuSans-79" transform="translate(474.3125 0)"/>
      <use xlink:href="#DejaVuSans-20" transform="translate(533.492188 0)"/>
      <use xlink:href="#DejaVuSans-6f" transform="translate(565.279297 0)"/>
      <use xlink:href="#DejaVuSans-66" transform="translate(626.460938 0)"/>
      <use xlink:href="#DejaVuSans-20" transform="translate(661.666016 0)"/>
      <use xlink:href="#DejaVuSans-61" transform="translate(693.453125 0)"/>
      <use xlink:href="#DejaVuSans-20" transform="translate(754.732422 0)"/>
      <use xlink:href="#DejaVuSans-63" transform="translate(786.519531 0)"/>
      <use xlink:href="#DejaVuSans-6f" transform="translate(841.5 0)"/>
      <use xlink:href="#DejaVuSans-72" transform="translate(902.681641 0)"/>
      <use xlink:href="#DejaVuSans-72" transform="translate(942.044922 0)"/>
      <use xlink:href="#DejaVuSans-65" transform="translate(980.908203 0)"/>
      <use xlink:href="#DejaVuSans-63" transform="translate(1042.431641 0)"/>
      <use xlink:href="#DejaVuSans-74" transform="translate(1097.412109 0)"/>
      <use xlink:href="#DejaVuSans-20" transform="translate(1136.621094 0)"/>
      <use xlink:href="#DejaVuSans-72" transform="translate(1168.408203 0)"/>
      <use xlink:href="#DejaVuSans-65" transform="translate(1207.271484 0)"/>
      <use xlink:href="#DejaVuSans-73" transform="translate(1268.794922 0)"/>
      <use xlink:href="#DejaVuSans-70" transform="translate(1320.894531 0)"/>
      <use xlink:href="#DejaVuSans-6f" transform="translate(1384.371094 0)"/>
      <use xlink:href="#DejaVuSans-6e" transform="translate(1445.552734 0)"/>
      <use xlink:href="#DejaVuSans-73" transform="translate(1508.931641 0)"/>
      <use xlink:href="#DejaVuSans-65" transform="translate(1561.03125 0)"/>
     </g>
    </g>
   </g>
   <g id="line2d_13">
    <path d="M 64.533316 58.108084 
L 67.309512 62.115825 
L 70.085708 66.850858 
L 72.861905 72.412265 
L 75.638101 78.899186 
L 78.414297 86.404807 
L 81.190493 95.008414 
L 83.966689 104.765734 
L 86.742885 115.698186 
L 89.519081 127.782226 
L 92.295277 140.940477 
L 95.071474 155.036666 
L 99.235768 177.499859 
L 110.340552 238.670996 
L 113.116748 252.732329 
L 115.892945 265.848996 
L 118.669141 277.887158 
L 121.445337 288.771768 
L 124.221533 298.481308 
L 126.997729 307.038814 
L 129.773925 314.501179 
L 132.550121 320.948435 
L 135.326318 326.474155 
L 138.102514 331.177581 
L 140.87871 335.15769 
L 143.654906 338.50905 
L 146.431102 341.319218 
L 149.207298 343.667343 
L 151.983494 345.623654 
L 154.759691 347.249554 
L 157.535887 348.59811 
L 160.312083 349.714748 
L 163.088279 350.638065 
L 167.252573 351.730406 
L 171.416867 352.548675 
L 175.581162 353.160691 
L 181.133554 353.742941 
L 188.074044 354.213781 
L 196.402633 354.545069 
L 208.895515 354.787512 
L 229.716986 354.919073 
L 285.240909 354.95736 
L 479.574638 354.958125 
L 479.574638 354.958125 
" clip-path="url(#p253f8d1f76)" style="fill: none; stroke: #1f77b4; stroke-width: 1.5; stroke-linecap: square"/>
   </g>
   <g id="line2d_14">
    <path d="M 64.533316 38.158256 
L 158.923985 38.262918 
L 175.581162 38.498882 
L 185.297848 38.835619 
L 192.238338 39.26432 
L 197.790731 39.794619 
L 203.343123 40.577191 
L 207.507417 41.398691 
L 211.671711 42.49532 
L 214.447907 43.422237 
L 217.224104 44.543201 
L 220.0003 45.896938 
L 222.776496 47.529024 
L 225.552692 49.492688 
L 228.328888 51.84951 
L 231.105084 54.669902 
L 233.88128 58.033191 
L 236.657477 62.027096 
L 239.433673 66.746305 
L 242.209869 72.289847 
L 244.986065 78.756917 
L 247.762261 86.240893 
L 250.538457 94.821437 
L 253.314653 104.554862 
L 256.090849 115.463398 
L 258.867046 127.524515 
L 261.643242 140.662002 
L 264.419438 154.740804 
L 268.583732 177.186677 
L 279.688517 238.375446 
L 282.464713 252.454248 
L 285.240909 265.591735 
L 288.017105 277.652852 
L 290.793301 288.561388 
L 293.569497 298.294813 
L 296.345693 306.875357 
L 299.12189 314.359333 
L 301.898086 320.826403 
L 304.674282 326.369945 
L 307.450478 331.089154 
L 310.226674 335.083059 
L 313.00287 338.446348 
L 315.779066 341.26674 
L 318.555263 343.623562 
L 321.331459 345.587226 
L 324.107655 347.219312 
L 326.883851 348.573049 
L 329.660047 349.694013 
L 332.436243 350.62093 
L 336.600537 351.717559 
L 340.764832 352.539059 
L 344.929126 353.153504 
L 350.481518 353.738073 
L 357.422008 354.210795 
L 365.750597 354.54341 
L 378.243479 354.786826 
L 399.06495 354.918916 
L 454.588873 354.957357 
L 479.574638 354.957994 
L 479.574638 354.957994 
" clip-path="url(#p253f8d1f76)" style="fill: none; stroke: #ff7f0e; stroke-width: 1.5; stroke-linecap: square"/>
   </g>
   <g id="line2d_15">
    <path d="M 64.533316 38.158125 
L 328.271949 38.262498 
L 344.929126 38.497519 
L 354.645812 38.832911 
L 361.586303 39.259905 
L 367.138695 39.788099 
L 372.691087 40.567575 
L 376.855381 41.385844 
L 381.019676 42.478185 
L 383.795872 43.401502 
L 386.572068 44.51814 
L 389.348264 45.866696 
L 392.12446 47.492596 
L 394.900656 49.448907 
L 397.676852 51.797032 
L 400.453049 54.6072 
L 403.229245 57.95856 
L 406.005441 61.938669 
L 408.781637 66.642095 
L 411.557833 72.167815 
L 414.334029 78.615071 
L 417.110225 86.077436 
L 419.886422 94.634942 
L 422.662618 104.344482 
L 425.438814 115.229092 
L 428.21501 127.267254 
L 430.991206 140.383921 
L 433.767402 154.445254 
L 437.931696 176.873649 
L 449.036481 238.079584 
L 451.812677 252.175773 
L 454.588873 265.334024 
L 457.365069 277.418064 
L 460.141265 288.350516 
L 462.917462 298.107836 
L 465.693658 306.711443 
L 468.469854 314.217064 
L 471.24605 320.703985 
L 474.022246 326.265392 
L 476.798442 331.000425 
L 479.574638 335.008166 
L 479.574638 335.008166 
" clip-path="url(#p253f8d1f76)" style="fill: none; stroke: #2ca02c; stroke-width: 1.5; stroke-linecap: square"/>
   </g>
   <g id="patch_3">
    <path d="M 43.78125 354.958125 
L 43.78125 22.318125 
" style="fill: none; stroke: #000000; stroke-width: 0.8; stroke-linejoin: miter; stroke-linecap: square"/>
   </g>
   <g id="patch_4">
    <path d="M 43.78125 354.958125 
L 500.326705 354.958125 
" style="fill: none; stroke: #000000; stroke-width: 0.8; stroke-linejoin: miter; stroke-linecap: square"/>
   </g>
   <g id="text_15">
    <!-- 2PL view (-) -->
    <g transform="translate(236.798352 16.318125) scale(0.12 -0.12)">
     <defs>
      <path id="DejaVuSans-50" d="M 1259 4147 
L 1259 2394 
L 2053 2394 
Q 2494 2394 2734 2622 
Q 2975 2850 2975 3272 
Q 2975 3691 2734 3919 
Q 2494 4147 2053 4147 
L 1259 4147 
z
M 628 4666 
L 2053 4666 
Q 2838 4666 3239 4311 
Q 3641 3956 3641 3272 
Q 3641 2581 3239 2228 
Q 2838 1875 2053 1875 
L 1259 1875 
L 1259 0 
L 628 0 
L 628 4666 
z
" transform="scale(0.015625)"/>
      <path id="DejaVuSans-4c" d="M 628 4666 
L 1259 4666 
L 1259 531 
L 3531 531 
L 3531 0 
L 628 0 
L 628 4666 
z
" transform="scale(0.015625)"/>
      <path id="DejaVuSans-76" d="M 191 3500 
L 800 3500 
L 1894 563 
L 2988 3500 
L 3597 3500 
L 2284 0 
L 1503 0 
L 191 3500 
z
" transform="scale(0.015625)"/>
      <path id="DejaVuSans-77" d="M 269 3500 
L 844 3500 
L 1563 769 
L 2278 3500 
L 2956 3500 
L 3675 769 
L 4391 3500 
L 4966 3500 
L 4050 0 
L 3372 0 
L 2619 2869 
L 1863 0 
L 1184 0 
L 269 3500 
z
" transform="scale(0.015625)"/>
      <path id="DejaVuSans-28" d="M 1984 4856 
Q 1566 4138 1362 3434 
Q 1159 2731 1159 2009 
Q 1159 1288 1364 580 
Q 1569 -128 1984 -844 
L 1484 -844 
Q 1016 -109 783 600 
Q 550 1309 550 2009 
Q 550 2706 781 3412 
Q 1013 4119 1484 4856 
L 1984 4856 
z
" transform="scale(0.015625)"/>
      <path id="DejaVuSans-2d" d="M 313 2009 
L 1997 2009 
L 1997 1497 
L 313 1497 
L 313 2009 
z
" transform="scale(0.015625)"/>
      <path id="DejaVuSans-29" d="M 513 4856 
L 1013 4856 
Q 1481 4119 1714 3412 
Q 1947 2706 1947 2009 
Q 1947 1309 1714 600 
Q 1481 -109 1013 -844 
L 513 -844 
Q 928 -128 1133 580 
Q 1338 1288 1338 2009 
Q 1338 2731 1133 3434 
Q 928 4138 513 4856 
z
" transform="scale(0.015625)"/>
     </defs>
     <use xlink:href="#DejaVuSans-32"/>
     <use xlink:href="#DejaVuSans-50" transform="translate(63.623047 0)"/>
     <use xlink:href="#DejaVuSans-4c" transform="translate(123.925781 0)"/>
     <use xlink:href="#DejaVuSans-20" transform="translate(179.638672 0)"/>
     <use xlink:href="#DejaVuSans-76" transform="translate(211.425781 0)"/>
     <use xlink:href="#DejaVuSans-69" transform="translate(270.605469 0)"/>
     <use xlink:href="#DejaVuSans-65" transform="translate(298.388672 0)"/>
     <use xlink:href="#DejaVuSans-77" transform="translate(359.912109 0)"/>
     <use xlink:href="#DejaVuSans-20" transform="translate(441.699219 0)"/>
     <use xlink:href="#DejaVuSans-28" transform="translate(473.486328 0)"/>
     <use xlink:href="#DejaVuSans-2d" transform="translate(512.5 0)"/>
     <use xlink:href="#DejaVuSans-29" transform="translate(548.583984 0)"/>
    </g>
   </g>
   <g id="legend_1">
    <g id="patch_5">
     <path d="M 280.76108 212.5725 
L 493.326705 212.5725 
Q 495.326705 212.5725 495.326705 210.5725 
L 495.326705 166.70375 
Q 495.326705 164.70375 493.326705 164.70375 
L 280.76108 164.70375 
Q 278.76108 164.70375 278.76108 166.70375 
L 278.76108 210.5725 
Q 278.76108 212.5725 280.76108 212.5725 
z
" style="fill: #ffffff; opacity: 0.8; stroke: #cccccc; stroke-linejoin: miter"/>
    </g>
    <g id="line2d_16">
     <path d="M 282.76108 172.802187 
L 292.76108 172.802187 
L 302.76108 172.802187 
" style="fill: none; stroke: #1f77b4; stroke-width: 1.5; stroke-linecap: square"/>
    </g>
    <g id="text_16">
     <!-- easy_item (disc=-30.0, diff=0.1) -->
     <g transform="translate(310.76108 176.302187) scale(0.1 -0.1)">
      <defs>
       <path id="DejaVuSans-5f" d="M 3263 -1063 
L 3263 -1509 
L -63 -1509 
L -63 -1063 
L 3263 -1063 
z
" transform="scale(0.015625)"/>
       <path id="DejaVuSans-6d" d="M 3328 2828 
Q 3544 3216 3844 3400 
Q 4144 3584 4550 3584 
Q 5097 3584 5394 3201 
Q 5691 2819 5691 2113 
L 5691 0 
L 5113 0 
L 5113 2094 
Q 5113 2597 4934 2840 
Q 4756 3084 4391 3084 
Q 3944 3084 3684 2787 
Q 3425 2491 3425 1978 
L 3425 0 
L 2847 0 
L 2847 2094 
Q 2847 2600 2669 2842 
Q 2491 3084 2119 3084 
Q 1678 3084 1418 2786 
Q 1159 2488 1159 1978 
L 1159 0 
L 581 0 
L 581 3500 
L 1159 3500 
L 1159 2956 
Q 1356 3278 1631 3431 
Q 1906 3584 2284 3584 
Q 2666 3584 2933 3390 
Q 3200 3197 3328 2828 
z
" transform="scale(0.015625)"/>
       <path id="DejaVuSans-64" d="M 2906 2969 
L 2906 4863 
L 3481 4863 
L 3481 0 
L 2906 0 
L 2906 525 
Q 2725 213 2448 61 
Q 2172 -91 1784 -91 
Q 1150 -91 751 415 
Q 353 922 353 1747 
Q 353 2572 751 3078 
Q 1150 3584 1784 3584 
Q 2172 3584 2448 3432 
Q 2725 3281 2906 2969 
z
M 947 1747 
Q 947 1113 1208 752 
Q 1469 391 1925 391 
Q 2381 391 2643 752 
Q 2906 1113 2906 1747 
Q 2906 2381 2643 2742 
Q 2381 3103 1925 3103 
Q 1469 3103 1208 2742 
Q 947 2381 947 1747 
z
" transform="scale(0.015625)"/>
       <path id="DejaVuSans-3d" d="M 678 2906 
L 4684 2906 
L 4684 2381 
L 678 2381 
L 678 2906 
z
M 678 1631 
L 4684 1631 
L 4684 1100 
L 678 1100 
L 678 1631 
z
" transform="scale(0.015625)"/>
       <path id="DejaVuSans-33" d="M 2597 2516 
Q 3050 2419 3304 2112 
Q 3559 1806 3559 1356 
Q 3559 666 3084 287 
Q 2609 -91 1734 -91 
Q 1441 -91 1130 -33 
Q 819 25 488 141 
L 488 750 
Q 750 597 1062 519 
Q 1375 441 1716 441 
Q 2309 441 2620 675 
Q 2931 909 2931 1356 
Q 2931 1769 2642 2001 
Q 2353 2234 1838 2234 
L 1294 2234 
L 1294 2753 
L 1863 2753 
Q 2328 2753 2575 2939 
Q 2822 3125 2822 3475 
Q 2822 3834 2567 4026 
Q 2313 4219 1838 4219 
Q 1578 4219 1281 4162 
Q 984 4106 628 3988 
L 628 4550 
Q 988 4650 1302 4700 
Q 1616 4750 1894 4750 
Q 2613 4750 3031 4423 
Q 3450 4097 3450 3541 
Q 3450 3153 3228 2886 
Q 3006 2619 2597 2516 
z
" transform="scale(0.015625)"/>
       <path id="DejaVuSans-2c" d="M 750 794 
L 1409 794 
L 1409 256 
L 897 -744 
L 494 -744 
L 750 256 
L 750 794 
z
" transform="scale(0.015625)"/>
      </defs>
      <use xlink:href="#DejaVuSans-65"/>
      <use xlink:href="#DejaVuSans-61" transform="translate(61.523438 0)"/>
      <use xlink:href="#DejaVuSans-73" transform="translate(122.802734 0)"/>
      <use xlink:href="#DejaVuSans-79" transform="translate(174.902344 0)"/>
      <use xlink:href="#DejaVuSans-5f" transform="translate(234.082031 0)"/>
      <use xlink:href="#DejaVuSans-69" transform="translate(284.082031 0)"/>
      <use xlink:href="#DejaVuSans-74" transform="translate(311.865234 0)"/>
      <use xlink:href="#DejaVuSans-65" transform="translate(351.074219 0)"/>
      <use xlink:href="#DejaVuSans-6d" transform="translate(412.597656 0)"/>
      <use xlink:href="#DejaVuSans-20" transform="translate(510.009766 0)"/>
      <use xlink:href="#DejaVuSans-28" transform="translate(541.796875 0)"/>
      <use xlink:href="#DejaVuSans-64" transform="translate(580.810547 0)"/>
      <use xlink:href="#DejaVuSans-69" transform="translate(644.287109 0)"/>
      <use xlink:href="#DejaVuSans-73" transform="translate(672.070312 0)"/>
      <use xlink:href="#DejaVuSans-63" transform="translate(724.169922 0)"/>
      <use xlink:href="#DejaVuSans-3d" transform="translate(779.150391 0)"/>
      <use xlink:href="#DejaVuSans-2d" transform="translate(862.939453 0)"/>
      <use xlink:href="#DejaVuSans-33" transform="translate(899.023438 0)"/>
      <use xlink:href="#DejaVuSans-30" transform="translate(962.646484 0)"/>
      <use xlink:href="#DejaVuSans-2e" transform="translate(1026.269531 0)"/>
      <use xlink:href="#DejaVuSans-30" transform="translate(1058.056641 0)"/>
      <use xlink:href="#DejaVuSans-2c" transform="translate(1121.679688 0)"/>
      <use xlink:href="#DejaVuSans-20" transform="translate(1153.466797 0)"/>
      <use xlink:href="#DejaVuSans-64" transform="translate(1185.253906 0)"/>
      <use xlink:href="#DejaVuSans-69" transform="translate(1248.730469 0)"/>
      <use xlink:href="#DejaVuSans-66" transform="translate(1276.513672 0)"/>
      <use xlink:href="#DejaVuSans-66" transform="translate(1311.71875 0)"/>
      <use xlink:href="#DejaVuSans-3d" transform="translate(1346.923828 0)"/>
      <use xlink:href="#DejaVuSans-30" transform="translate(1430.712891 0)"/>
      <use xlink:href="#DejaVuSans-2e" transform="translate(1494.335938 0)"/>
      <use xlink:href="#DejaVuSans-31" transform="translate(1526.123047 0)"/>
      <use xlink:href="#DejaVuSans-29" transform="translate(1589.746094 0)"/>
     </g>
    </g>
    <g id="line2d_17">
     <path d="M 282.76108 187.758437 
L 292.76108 187.758437 
L 302.76108 187.758437 
" style="fill: none; stroke: #ff7f0e; stroke-width: 1.5; stroke-linecap: square"/>
    </g>
    <g id="text_17">
     <!-- medium_item (disc=-30.0, diff=0.5) -->
     <g transform="translate(310.76108 191.258437) scale(0.1 -0.1)">
      <defs>
       <path id="DejaVuSans-75" d="M 544 1381 
L 544 3500 
L 1119 3500 
L 1119 1403 
Q 1119 906 1312 657 
Q 1506 409 1894 409 
Q 2359 409 2629 706 
Q 2900 1003 2900 1516 
L 2900 3500 
L 3475 3500 
L 3475 0 
L 2900 0 
L 2900 538 
Q 2691 219 2414 64 
Q 2138 -91 1772 -91 
Q 1169 -91 856 284 
Q 544 659 544 1381 
z
M 1991 3584 
L 1991 3584 
z
" transform="scale(0.015625)"/>
       <path id="DejaVuSans-35" d="M 691 4666 
L 3169 4666 
L 3169 4134 
L 1269 4134 
L 1269 2991 
Q 1406 3038 1543 3061 
Q 1681 3084 1819 3084 
Q 2600 3084 3056 2656 
Q 3513 2228 3513 1497 
Q 3513 744 3044 326 
Q 2575 -91 1722 -91 
Q 1428 -91 1123 -41 
Q 819 9 494 109 
L 494 744 
Q 775 591 1075 516 
Q 1375 441 1709 441 
Q 2250 441 2565 725 
Q 2881 1009 2881 1497 
Q 2881 1984 2565 2268 
Q 2250 2553 1709 2553 
Q 1456 2553 1204 2497 
Q 953 2441 691 2322 
L 691 4666 
z
" transform="scale(0.015625)"/>
      </defs>
      <use xlink:href="#DejaVuSans-6d"/>
      <use xlink:href="#DejaVuSans-65" transform="translate(97.412109 0)"/>
      <use xlink:href="#DejaVuSans-64" transform="translate(158.935547 0)"/>
      <use xlink:href="#DejaVuSans-69" transform="translate(222.412109 0)"/>
      <use xlink:href="#DejaVuSans-75" transform="translate(250.195312 0)"/>
      <use xlink:href="#DejaVuSans-6d" transform="translate(313.574219 0)"/>
      <use xlink:href="#DejaVuSans-5f" transform="translate(410.986328 0)"/>
      <use xlink:href="#DejaVuSans-69" transform="translate(460.986328 0)"/>
      <use xlink:href="#DejaVuSans-74" transform="translate(488.769531 0)"/>
      <use xlink:href="#DejaVuSans-65" transform="translate(527.978516 0)"/>
      <use xlink:href="#DejaVuSans-6d" transform="translate(589.501953 0)"/>
      <use xlink:href="#DejaVuSans-20" transform="translate(686.914062 0)"/>
      <use xlink:href="#DejaVuSans-28" transform="translate(718.701172 0)"/>
      <use xlink:href="#DejaVuSans-64" transform="translate(757.714844 0)"/>
      <use xlink:href="#DejaVuSans-69" transform="translate(821.191406 0)"/>
      <use xlink:href="#DejaVuSans-73" transform="translate(848.974609 0)"/>
      <use xlink:href="#DejaVuSans-63" transform="translate(901.074219 0)"/>
      <use xlink:href="#DejaVuSans-3d" transform="translate(956.054688 0)"/>
      <use xlink:href="#DejaVuSans-2d" transform="translate(1039.84375 0)"/>
      <use xlink:href="#DejaVuSans-33" transform="translate(1075.927734 0)"/>
      <use xlink:href="#DejaVuSans-30" transform="translate(1139.550781 0)"/>
      <use xlink:href="#DejaVuSans-2e" transform="translate(1203.173828 0)"/>
      <use xlink:href="#DejaVuSans-30" transform="translate(1234.960938 0)"/>
      <use xlink:href="#DejaVuSans-2c" transform="translate(1298.583984 0)"/>
      <use xlink:href="#DejaVuSans-20" transform="translate(1330.371094 0)"/>
      <use xlink:href="#DejaVuSans-64" transform="translate(1362.158203 0)"/>
      <use xlink:href="#DejaVuSans-69" transform="translate(1425.634766 0)"/>
      <use xlink:href="#DejaVuSans-66" transform="translate(1453.417969 0)"/>
      <use xlink:href="#DejaVuSans-66" transform="translate(1488.623047 0)"/>
      <use xlink:href="#DejaVuSans-3d" transform="translate(1523.828125 0)"/>
      <use xlink:href="#DejaVuSans-30" transform="translate(1607.617188 0)"/>
      <use xlink:href="#DejaVuSans-2e" transform="translate(1671.240234 0)"/>
      <use xlink:href="#DejaVuSans-35" transform="translate(1703.027344 0)"/>
      <use xlink:href="#DejaVuSans-29" transform="translate(1766.650391 0)"/>
     </g>
    </g>
    <g id="line2d_18">
     <path d="M 282.76108 202.714687 
L 292.76108 202.714687 
L 302.76108 202.714687 
" style="fill: none; stroke: #2ca02c; stroke-width: 1.5; stroke-linecap: square"/>
    </g>
    <g id="text_18">
     <!-- hard_item (disc=-30.0, diff=0.9) -->
     <g transform="translate(310.76108 206.214687) scale(0.1 -0.1)">
      <defs>
       <path id="DejaVuSans-68" d="M 3513 2113 
L 3513 0 
L 2938 0 
L 2938 2094 
Q 2938 2591 2744 2837 
Q 2550 3084 2163 3084 
Q 1697 3084 1428 2787 
Q 1159 2491 1159 1978 
L 1159 0 
L 581 0 
L 581 4863 
L 1159 4863 
L 1159 2956 
Q 1366 3272 1645 3428 
Q 1925 3584 2291 3584 
Q 2894 3584 3203 3211 
Q 3513 2838 3513 2113 
z
" transform="scale(0.015625)"/>
       <path id="DejaVuSans-39" d="M 703 97 
L 703 672 
Q 941 559 1184 500 
Q 1428 441 1663 441 
Q 2288 441 2617 861 
Q 2947 1281 2994 2138 
Q 2813 1869 2534 1725 
Q 2256 1581 1919 1581 
Q 1219 1581 811 2004 
Q 403 2428 403 3163 
Q 403 3881 828 4315 
Q 1253 4750 1959 4750 
Q 2769 4750 3195 4129 
Q 3622 3509 3622 2328 
Q 3622 1225 3098 567 
Q 2575 -91 1691 -91 
Q 1453 -91 1209 -44 
Q 966 3 703 97 
z
M 1959 2075 
Q 2384 2075 2632 2365 
Q 2881 2656 2881 3163 
Q 2881 3666 2632 3958 
Q 2384 4250 1959 4250 
Q 1534 4250 1286 3958 
Q 1038 3666 1038 3163 
Q 1038 2656 1286 2365 
Q 1534 2075 1959 2075 
z
" transform="scale(0.015625)"/>
      </defs>
      <use xlink:href="#DejaVuSans-68"/>
      <use xlink:href="#DejaVuSans-61" transform="translate(63.378906 0)"/>
      <use xlink:href="#DejaVuSans-72" transform="translate(124.658203 0)"/>
      <use xlink:href="#DejaVuSans-64" transform="translate(164.021484 0)"/>
      <use xlink:href="#DejaVuSans-5f" transform="translate(227.498047 0)"/>
      <use xlink:href="#DejaVuSans-69" transform="translate(277.498047 0)"/>
      <use xlink:href="#DejaVuSans-74" transform="translate(305.28125 0)"/>
      <use xlink:href="#DejaVuSans-65" transform="translate(344.490234 0)"/>
      <use xlink:href="#DejaVuSans-6d" transform="translate(406.013672 0)"/>
      <use xlink:href="#DejaVuSans-20" transform="translate(503.425781 0)"/>
      <use xlink:href="#DejaVuSans-28" transform="translate(535.212891 0)"/>
      <use xlink:href="#DejaVuSans-64" transform="translate(574.226562 0)"/>
      <use xlink:href="#DejaVuSans-69" transform="translate(637.703125 0)"/>
      <use xlink:href="#DejaVuSans-73" transform="translate(665.486328 0)"/>
      <use xlink:href="#DejaVuSans-63" transform="translate(717.585938 0)"/>
      <use xlink:href="#DejaVuSans-3d" transform="translate(772.566406 0)"/>
      <use xlink:href="#DejaVuSans-2d" transform="translate(856.355469 0)"/>
      <use xlink:href="#DejaVuSans-33" transform="translate(892.439453 0)"/>
      <use xlink:href="#DejaVuSans-30" transform="translate(956.0625 0)"/>
      <use xlink:href="#DejaVuSans-2e" transform="translate(1019.685547 0)"/>
      <use xlink:href="#DejaVuSans-30" transform="translate(1051.472656 0)"/>
      <use xlink:href="#DejaVuSans-2c" transform="translate(1115.095703 0)"/>
      <use xlink:href="#DejaVuSans-20" transform="translate(1146.882812 0)"/>
      <use xlink:href="#DejaVuSans-64" transform="translate(1178.669922 0)"/>
      <use xlink:href="#DejaVuSans-69" transform="translate(1242.146484 0)"/>
      <use xlink:href="#DejaVuSans-66" transform="translate(1269.929688 0)"/>
      <use xlink:href="#DejaVuSans-66" transform="translate(1305.134766 0)"/>
      <use xlink:href="#DejaVuSans-3d" transform="translate(1340.339844 0)"/>
      <use xlink:href="#DejaVuSans-30" transform="translate(1424.128906 0)"/>
      <use xlink:href="#DejaVuSans-2e" transform="translate(1487.751953 0)"/>
      <use xlink:href="#DejaVuSans-39" transform="translate(1519.539062 0)"/>
      <use xlink:href="#DejaVuSans-29" transform="translate(1583.162109 0)"/>
     </g>
    </g>
   </g>
  </g>
  <g id="axes_2">
   <g id="patch_6">
    <path d="M 591.635795 354.958125 
L 1048.18125 354.958125 
L 1048.18125 22.318125 
L 591.635795 22.318125 
z
" style="fill: #ffffff"/>
   </g>
   <g id="matplotlib.axis_3">
    <g id="xtick_7">
     <g id="line2d_19">
      <g>
       <use xlink:href="#m80a5fe3f40" x="608.152746" y="354.958125" style="stroke: #000000; stroke-width: 0.8"/>
      </g>
     </g>
     <g id="text_19">
      <!-- 0.0 -->
      <g transform="translate(600.201184 369.556562) scale(0.1 -0.1)">
       <use xlink:href="#DejaVuSans-30"/>
       <use xlink:href="#DejaVuSans-2e" transform="translate(63.623047 0)"/>
       <use xlink:href="#DejaVuSans-30" transform="translate(95.410156 0)"/>
      </g>
     </g>
    </g>
    <g id="xtick_8">
     <g id="line2d_20">
      <g>
       <use xlink:href="#m80a5fe3f40" x="692.855057" y="354.958125" style="stroke: #000000; stroke-width: 0.8"/>
      </g>
     </g>
     <g id="text_20">
      <!-- 0.2 -->
      <g transform="translate(684.903494 369.556562) scale(0.1 -0.1)">
       <use xlink:href="#DejaVuSans-30"/>
       <use xlink:href="#DejaVuSans-2e" transform="translate(63.623047 0)"/>
       <use xlink:href="#DejaVuSans-32" transform="translate(95.410156 0)"/>
      </g>
     </g>
    </g>
    <g id="xtick_9">
     <g id="line2d_21">
      <g>
       <use xlink:href="#m80a5fe3f40" x="777.557367" y="354.958125" style="stroke: #000000; stroke-width: 0.8"/>
      </g>
     </g>
     <g id="text_21">
      <!-- 0.4 -->
      <g transform="translate(769.605805 369.556562) scale(0.1 -0.1)">
       <use xlink:href="#DejaVuSans-30"/>
       <use xlink:href="#DejaVuSans-2e" transform="translate(63.623047 0)"/>
       <use xlink:href="#DejaVuSans-34" transform="translate(95.410156 0)"/>
      </g>
     </g>
    </g>
    <g id="xtick_10">
     <g id="line2d_22">
      <g>
       <use xlink:href="#m80a5fe3f40" x="862.259678" y="354.958125" style="stroke: #000000; stroke-width: 0.8"/>
      </g>
     </g>
     <g id="text_22">
      <!-- 0.6 -->
      <g transform="translate(854.308116 369.556562) scale(0.1 -0.1)">
       <use xlink:href="#DejaVuSans-30"/>
       <use xlink:href="#DejaVuSans-2e" transform="translate(63.623047 0)"/>
       <use xlink:href="#DejaVuSans-36" transform="translate(95.410156 0)"/>
      </g>
     </g>
    </g>
    <g id="xtick_11">
     <g id="line2d_23">
      <g>
       <use xlink:href="#m80a5fe3f40" x="946.961989" y="354.958125" style="stroke: #000000; stroke-width: 0.8"/>
      </g>
     </g>
     <g id="text_23">
      <!-- 0.8 -->
      <g transform="translate(939.010426 369.556562) scale(0.1 -0.1)">
       <use xlink:href="#DejaVuSans-30"/>
       <use xlink:href="#DejaVuSans-2e" transform="translate(63.623047 0)"/>
       <use xlink:href="#DejaVuSans-38" transform="translate(95.410156 0)"/>
      </g>
     </g>
    </g>
    <g id="xtick_12">
     <g id="line2d_24">
      <g>
       <use xlink:href="#m80a5fe3f40" x="1031.664299" y="354.958125" style="stroke: #000000; stroke-width: 0.8"/>
      </g>
     </g>
     <g id="text_24">
      <!-- 1.0 -->
      <g transform="translate(1023.712737 369.556562) scale(0.1 -0.1)">
       <use xlink:href="#DejaVuSans-31"/>
       <use xlink:href="#DejaVuSans-2e" transform="translate(63.623047 0)"/>
       <use xlink:href="#DejaVuSans-30" transform="translate(95.410156 0)"/>
      </g>
     </g>
    </g>
    <g id="text_25">
     <!-- latent ability -->
     <g transform="translate(788.37571 383.234687) scale(0.1 -0.1)">
      <use xlink:href="#DejaVuSans-6c"/>
      <use xlink:href="#DejaVuSans-61" transform="translate(27.783203 0)"/>
      <use xlink:href="#DejaVuSans-74" transform="translate(89.0625 0)"/>
      <use xlink:href="#DejaVuSans-65" transform="translate(128.271484 0)"/>
      <use xlink:href="#DejaVuSans-6e" transform="translate(189.794922 0)"/>
      <use xlink:href="#DejaVuSans-74" transform="translate(253.173828 0)"/>
      <use xlink:href="#DejaVuSans-20" transform="translate(292.382812 0)"/>
      <use xlink:href="#DejaVuSans-61" transform="translate(324.169922 0)"/>
      <use xlink:href="#DejaVuSans-62" transform="translate(385.449219 0)"/>
      <use xlink:href="#DejaVuSans-69" transform="translate(448.925781 0)"/>
      <use xlink:href="#DejaVuSans-6c" transform="translate(476.708984 0)"/>
      <use xlink:href="#DejaVuSans-69" transform="translate(504.492188 0)"/>
      <use xlink:href="#DejaVuSans-74" transform="translate(532.275391 0)"/>
      <use xlink:href="#DejaVuSans-79" transform="translate(571.484375 0)"/>
     </g>
    </g>
   </g>
   <g id="matplotlib.axis_4">
    <g id="ytick_7">
     <g id="line2d_25">
      <g>
       <use xlink:href="#mee0a4661b7" x="591.635795" y="354.958125" style="stroke: #000000; stroke-width: 0.8"/>
      </g>
     </g>
     <g id="text_26">
      <!-- 0.0 -->
      <g transform="translate(568.73267 358.757344) scale(0.1 -0.1)">
       <use xlink:href="#DejaVuSans-30"/>
       <use xlink:href="#DejaVuSans-2e" transform="translate(63.623047 0)"/>
       <use xlink:href="#DejaVuSans-30" transform="translate(95.410156 0)"/>
      </g>
     </g>
    </g>
    <g id="ytick_8">
     <g id="line2d_26">
      <g>
       <use xlink:href="#mee0a4661b7" x="591.635795" y="291.598125" style="stroke: #000000; stroke-width: 0.8"/>
      </g>
     </g>
     <g id="text_27">
      <!-- 0.2 -->
      <g transform="translate(568.73267 295.397344) scale(0.1 -0.1)">
       <use xlink:href="#DejaVuSans-30"/>
       <use xlink:href="#DejaVuSans-2e" transform="translate(63.623047 0)"/>
       <use xlink:href="#DejaVuSans-32" transform="translate(95.410156 0)"/>
      </g>
     </g>
    </g>
    <g id="ytick_9">
     <g id="line2d_27">
      <g>
       <use xlink:href="#mee0a4661b7" x="591.635795" y="228.238125" style="stroke: #000000; stroke-width: 0.8"/>
      </g>
     </g>
     <g id="text_28">
      <!-- 0.4 -->
      <g transform="translate(568.73267 232.037344) scale(0.1 -0.1)">
       <use xlink:href="#DejaVuSans-30"/>
       <use xlink:href="#DejaVuSans-2e" transform="translate(63.623047 0)"/>
       <use xlink:href="#DejaVuSans-34" transform="translate(95.410156 0)"/>
      </g>
     </g>
    </g>
    <g id="ytick_10">
     <g id="line2d_28">
      <g>
       <use xlink:href="#mee0a4661b7" x="591.635795" y="164.878125" style="stroke: #000000; stroke-width: 0.8"/>
      </g>
     </g>
     <g id="text_29">
      <!-- 0.6 -->
      <g transform="translate(568.73267 168.677344) scale(0.1 -0.1)">
       <use xlink:href="#DejaVuSans-30"/>
       <use xlink:href="#DejaVuSans-2e" transform="translate(63.623047 0)"/>
       <use xlink:href="#DejaVuSans-36" transform="translate(95.410156 0)"/>
      </g>
     </g>
    </g>
    <g id="ytick_11">
     <g id="line2d_29">
      <g>
       <use xlink:href="#mee0a4661b7" x="591.635795" y="101.518125" style="stroke: #000000; stroke-width: 0.8"/>
      </g>
     </g>
     <g id="text_30">
      <!-- 0.8 -->
      <g transform="translate(568.73267 105.317344) scale(0.1 -0.1)">
       <use xlink:href="#DejaVuSans-30"/>
       <use xlink:href="#DejaVuSans-2e" transform="translate(63.623047 0)"/>
       <use xlink:href="#DejaVuSans-38" transform="translate(95.410156 0)"/>
      </g>
     </g>
    </g>
    <g id="ytick_12">
     <g id="line2d_30">
      <g>
       <use xlink:href="#mee0a4661b7" x="591.635795" y="38.158125" style="stroke: #000000; stroke-width: 0.8"/>
      </g>
     </g>
     <g id="text_31">
      <!-- 1.0 -->
      <g transform="translate(568.73267 41.957344) scale(0.1 -0.1)">
       <use xlink:href="#DejaVuSans-31"/>
       <use xlink:href="#DejaVuSans-2e" transform="translate(63.623047 0)"/>
       <use xlink:href="#DejaVuSans-30" transform="translate(95.410156 0)"/>
      </g>
     </g>
    </g>
    <g id="text_32">
     <!-- probability of a correct response -->
     <g transform="translate(562.652983 269.767031) rotate(-90) scale(0.1 -0.1)">
      <use xlink:href="#DejaVuSans-70"/>
      <use xlink:href="#DejaVuSans-72" transform="translate(63.476562 0)"/>
      <use xlink:href="#DejaVuSans-6f" transform="translate(102.339844 0)"/>
      <use xlink:href="#DejaVuSans-62" transform="translate(163.521484 0)"/>
      <use xlink:href="#DejaVuSans-61" transform="translate(226.998047 0)"/>
      <use xlink:href="#DejaVuSans-62" transform="translate(288.277344 0)"/>
      <use xlink:href="#DejaVuSans-69" transform="translate(351.753906 0)"/>
      <use xlink:href="#DejaVuSans-6c" transform="translate(379.537109 0)"/>
      <use xlink:href="#DejaVuSans-69" transform="translate(407.320312 0)"/>
      <use xlink:href="#DejaVuSans-74" transform="translate(435.103516 0)"/>
      <use xlink:href="#DejaVuSans-79" transform="translate(474.3125 0)"/>
      <use xlink:href="#DejaVuSans-20" transform="translate(533.492188 0)"/>
      <use xlink:href="#DejaVuSans-6f" transform="translate(565.279297 0)"/>
      <use xlink:href="#DejaVuSans-66" transform="translate(626.460938 0)"/>
      <use xlink:href="#DejaVuSans-20" transform="translate(661.666016 0)"/>
      <use xlink:href="#DejaVuSans-61" transform="translate(693.453125 0)"/>
      <use xlink:href="#DejaVuSans-20" transform="translate(754.732422 0)"/>
      <use xlink:href="#DejaVuSans-63" transform="translate(786.519531 0)"/>
      <use xlink:href="#DejaVuSans-6f" transform="translate(841.5 0)"/>
      <use xlink:href="#DejaVuSans-72" transform="translate(902.681641 0)"/>
      <use xlink:href="#DejaVuSans-72" transform="translate(942.044922 0)"/>
      <use xlink:href="#DejaVuSans-65" transform="translate(980.908203 0)"/>
      <use xlink:href="#DejaVuSans-63" transform="translate(1042.431641 0)"/>
      <use xlink:href="#DejaVuSans-74" transform="translate(1097.412109 0)"/>
      <use xlink:href="#DejaVuSans-20" transform="translate(1136.621094 0)"/>
      <use xlink:href="#DejaVuSans-72" transform="translate(1168.408203 0)"/>
      <use xlink:href="#DejaVuSans-65" transform="translate(1207.271484 0)"/>
      <use xlink:href="#DejaVuSans-73" transform="translate(1268.794922 0)"/>
      <use xlink:href="#DejaVuSans-70" transform="translate(1320.894531 0)"/>
      <use xlink:href="#DejaVuSans-6f" transform="translate(1384.371094 0)"/>
      <use xlink:href="#DejaVuSans-6e" transform="translate(1445.552734 0)"/>
      <use xlink:href="#DejaVuSans-73" transform="translate(1508.931641 0)"/>
      <use xlink:href="#DejaVuSans-65" transform="translate(1561.03125 0)"/>
     </g>
    </g>
   </g>
   <g id="line2d_31">
    <path d="M 612.387862 335.008166 
L 615.164058 331.000425 
L 617.940254 326.265392 
L 620.71645 320.703985 
L 623.492646 314.217064 
L 626.268842 306.711443 
L 629.045038 298.107836 
L 631.821235 288.350516 
L 634.597431 277.418064 
L 637.373627 265.334024 
L 640.149823 252.175773 
L 642.926019 238.079584 
L 647.090313 215.616391 
L 658.195098 154.445254 
L 660.971294 140.383921 
L 663.74749 127.267254 
L 666.523686 115.229092 
L 669.299882 104.344482 
L 672.076078 94.634942 
L 674.852275 86.077436 
L 677.628471 78.615071 
L 680.404667 72.167815 
L 683.180863 66.642095 
L 685.957059 61.938669 
L 688.733255 57.95856 
L 691.509451 54.6072 
L 694.285648 51.797032 
L 697.061844 49.448907 
L 699.83804 47.492596 
L 702.614236 45.866696 
L 705.390432 44.51814 
L 708.166628 43.401502 
L 710.942824 42.478185 
L 715.107119 41.385844 
L 719.271413 40.567575 
L 723.435707 39.955559 
L 728.988099 39.373309 
L 735.92859 38.902469 
L 744.257178 38.571181 
L 756.750061 38.328738 
L 777.571532 38.197177 
L 833.095454 38.15889 
L 1027.429184 38.158125 
L 1027.429184 38.158125 
" clip-path="url(#pe05d551638)" style="fill: none; stroke: #1f77b4; stroke-width: 1.5; stroke-linecap: square"/>
   </g>
   <g id="line2d_32">
    <path d="M 612.387862 354.957994 
L 706.77853 354.853332 
L 723.435707 354.617368 
L 733.152393 354.280631 
L 740.092884 353.85193 
L 745.645276 353.321631 
L 751.197668 352.539059 
L 755.361963 351.717559 
L 759.526257 350.62093 
L 762.302453 349.694013 
L 765.078649 348.573049 
L 767.854845 347.219312 
L 770.631041 345.587226 
L 773.407237 343.623562 
L 776.183434 341.26674 
L 778.95963 338.446348 
L 781.735826 335.083059 
L 784.512022 331.089154 
L 787.288218 326.369945 
L 790.064414 320.826403 
L 792.84061 314.359333 
L 795.616807 306.875357 
L 798.393003 298.294813 
L 801.169199 288.561388 
L 803.945395 277.652852 
L 806.721591 265.591735 
L 809.497787 252.454248 
L 812.273983 238.375446 
L 816.438278 215.929573 
L 827.543062 154.740804 
L 830.319258 140.662002 
L 833.095454 127.524515 
L 835.871651 115.463398 
L 838.647847 104.554862 
L 841.424043 94.821437 
L 844.200239 86.240893 
L 846.976435 78.756917 
L 849.752631 72.289847 
L 852.528827 66.746305 
L 855.305023 62.027096 
L 858.08122 58.033191 
L 860.857416 54.669902 
L 863.633612 51.84951 
L 866.409808 49.492688 
L 869.186004 47.529024 
L 871.9622 45.896938 
L 874.738396 44.543201 
L 877.514593 43.422237 
L 880.290789 42.49532 
L 884.455083 41.398691 
L 888.619377 40.577191 
L 892.783671 39.962746 
L 898.336064 39.378177 
L 905.276554 38.905455 
L 913.605142 38.57284 
L 926.098025 38.329424 
L 946.919496 38.197334 
L 1002.443419 38.158893 
L 1027.429184 38.158256 
L 1027.429184 38.158256 
" clip-path="url(#pe05d551638)" style="fill: none; stroke: #ff7f0e; stroke-width: 1.5; stroke-linecap: square"/>
   </g>
   <g id="line2d_33">
    <path d="M 612.387862 354.958125 
L 876.126494 354.853752 
L 892.783671 354.618731 
L 902.500358 354.283339 
L 909.440848 353.856345 
L 914.99324 353.328151 
L 920.545633 352.548675 
L 924.709927 351.730406 
L 928.874221 350.638065 
L 931.650417 349.714748 
L 934.426613 348.59811 
L 937.202809 347.249554 
L 939.979006 345.623654 
L 942.755202 343.667343 
L 945.531398 341.319218 
L 948.307594 338.50905 
L 951.08379 335.15769 
L 953.859986 331.177581 
L 956.636182 326.474155 
L 959.412379 320.948435 
L 962.188575 314.501179 
L 964.964771 307.038814 
L 967.740967 298.481308 
L 970.517163 288.771768 
L 973.293359 277.887158 
L 976.069555 265.848996 
L 978.845752 252.732329 
L 981.621948 238.670996 
L 985.786242 216.242601 
L 996.891026 155.036666 
L 999.667223 140.940477 
L 1002.443419 127.782226 
L 1005.219615 115.698186 
L 1007.995811 104.765734 
L 1010.772007 95.008414 
L 1013.548203 86.404807 
L 1016.324399 78.899186 
L 1019.100595 72.412265 
L 1021.876792 66.850858 
L 1024.652988 62.115825 
L 1027.429184 58.108084 
L 1027.429184 58.108084 
" clip-path="url(#pe05d551638)" style="fill: none; stroke: #2ca02c; stroke-width: 1.5; stroke-linecap: square"/>
   </g>
   <g id="patch_7">
    <path d="M 591.635795 354.958125 
L 591.635795 22.318125 
" style="fill: none; stroke: #000000; stroke-width: 0.8; stroke-linejoin: miter; stroke-linecap: square"/>
   </g>
   <g id="patch_8">
    <path d="M 591.635795 354.958125 
L 1048.18125 354.958125 
" style="fill: none; stroke: #000000; stroke-width: 0.8; stroke-linejoin: miter; stroke-linecap: square"/>
   </g>
   <g id="text_33">
    <!-- 2PL view (+) -->
    <g transform="translate(781.789773 16.318125) scale(0.12 -0.12)">
     <defs>
      <path id="DejaVuSans-2b" d="M 2944 4013 
L 2944 2272 
L 4684 2272 
L 4684 1741 
L 2944 1741 
L 2944 0 
L 2419 0 
L 2419 1741 
L 678 1741 
L 678 2272 
L 2419 2272 
L 2419 4013 
L 2944 4013 
z
" transform="scale(0.015625)"/>
     </defs>
     <use xlink:href="#DejaVuSans-32"/>
     <use xlink:href="#DejaVuSans-50" transform="translate(63.623047 0)"/>
     <use xlink:href="#DejaVuSans-4c" transform="translate(123.925781 0)"/>
     <use xlink:href="#DejaVuSans-20" transform="translate(179.638672 0)"/>
     <use xlink:href="#DejaVuSans-76" transform="translate(211.425781 0)"/>
     <use xlink:href="#DejaVuSans-69" transform="translate(270.605469 0)"/>
     <use xlink:href="#DejaVuSans-65" transform="translate(298.388672 0)"/>
     <use xlink:href="#DejaVuSans-77" transform="translate(359.912109 0)"/>
     <use xlink:href="#DejaVuSans-20" transform="translate(441.699219 0)"/>
     <use xlink:href="#DejaVuSans-28" transform="translate(473.486328 0)"/>
     <use xlink:href="#DejaVuSans-2b" transform="translate(512.5 0)"/>
     <use xlink:href="#DejaVuSans-29" transform="translate(596.289062 0)"/>
    </g>
   </g>
   <g id="legend_2">
    <g id="patch_9">
     <path d="M 832.223437 212.5725 
L 1041.18125 212.5725 
Q 1043.18125 212.5725 1043.18125 210.5725 
L 1043.18125 166.70375 
Q 1043.18125 164.70375 1041.18125 164.70375 
L 832.223437 164.70375 
Q 830.223437 164.70375 830.223437 166.70375 
L 830.223437 210.5725 
Q 830.223437 212.5725 832.223437 212.5725 
z
" style="fill: #ffffff; opacity: 0.8; stroke: #cccccc; stroke-linejoin: miter"/>
    </g>
    <g id="line2d_34">
     <path d="M 834.223437 172.802187 
L 844.223437 172.802187 
L 854.223437 172.802187 
" style="fill: none; stroke: #1f77b4; stroke-width: 1.5; stroke-linecap: square"/>
    </g>
    <g id="text_34">
     <!-- easy_item (disc=30.0, diff=0.1) -->
     <g transform="translate(862.223437 176.302187) scale(0.1 -0.1)">
      <use xlink:href="#DejaVuSans-65"/>
      <use xlink:href="#DejaVuSans-61" transform="translate(61.523438 0)"/>
      <use xlink:href="#DejaVuSans-73" transform="translate(122.802734 0)"/>
      <use xlink:href="#DejaVuSans-79" transform="translate(174.902344 0)"/>
      <use xlink:href="#DejaVuSans-5f" transform="translate(234.082031 0)"/>
      <use xlink:href="#DejaVuSans-69" transform="translate(284.082031 0)"/>
      <use xlink:href="#DejaVuSans-74" transform="translate(311.865234 0)"/>
      <use xlink:href="#DejaVuSans-65" transform="translate(351.074219 0)"/>
      <use xlink:href="#DejaVuSans-6d" transform="translate(412.597656 0)"/>
      <use xlink:href="#DejaVuSans-20" transform="translate(510.009766 0)"/>
      <use xlink:href="#DejaVuSans-28" transform="translate(541.796875 0)"/>
      <use xlink:href="#DejaVuSans-64" transform="translate(580.810547 0)"/>
      <use xlink:href="#DejaVuSans-69" transform="translate(644.287109 0)"/>
      <use xlink:href="#DejaVuSans-73" transform="translate(672.070312 0)"/>
      <use xlink:href="#DejaVuSans-63" transform="translate(724.169922 0)"/>
      <use xlink:href="#DejaVuSans-3d" transform="translate(779.150391 0)"/>
      <use xlink:href="#DejaVuSans-33" transform="translate(862.939453 0)"/>
      <use xlink:href="#DejaVuSans-30" transform="translate(926.5625 0)"/>
      <use xlink:href="#DejaVuSans-2e" transform="translate(990.185547 0)"/>
      <use xlink:href="#DejaVuSans-30" transform="translate(1021.972656 0)"/>
      <use xlink:href="#DejaVuSans-2c" transform="translate(1085.595703 0)"/>
      <use xlink:href="#DejaVuSans-20" transform="translate(1117.382812 0)"/>
      <use xlink:href="#DejaVuSans-64" transform="translate(1149.169922 0)"/>
      <use xlink:href="#DejaVuSans-69" transform="translate(1212.646484 0)"/>
      <use xlink:href="#DejaVuSans-66" transform="translate(1240.429688 0)"/>
      <use xlink:href="#DejaVuSans-66" transform="translate(1275.634766 0)"/>
      <use xlink:href="#DejaVuSans-3d" transform="translate(1310.839844 0)"/>
      <use xlink:href="#DejaVuSans-30" transform="translate(1394.628906 0)"/>
      <use xlink:href="#DejaVuSans-2e" transform="translate(1458.251953 0)"/>
      <use xlink:href="#DejaVuSans-31" transform="translate(1490.039062 0)"/>
      <use xlink:href="#DejaVuSans-29" transform="translate(1553.662109 0)"/>
     </g>
    </g>
    <g id="line2d_35">
     <path d="M 834.223437 187.758437 
L 844.223437 187.758437 
L 854.223437 187.758437 
" style="fill: none; stroke: #ff7f0e; stroke-width: 1.5; stroke-linecap: square"/>
    </g>
    <g id="text_35">
     <!-- medium_item (disc=30.0, diff=0.5) -->
     <g transform="translate(862.223437 191.258437) scale(0.1 -0.1)">
      <use xlink:href="#DejaVuSans-6d"/>
      <use xlink:href="#DejaVuSans-65" transform="translate(97.412109 0)"/>
      <use xlink:href="#DejaVuSans-64" transform="translate(158.935547 0)"/>
      <use xlink:href="#DejaVuSans-69" transform="translate(222.412109 0)"/>
      <use xlink:href="#DejaVuSans-75" transform="translate(250.195312 0)"/>
      <use xlink:href="#DejaVuSans-6d" transform="translate(313.574219 0)"/>
      <use xlink:href="#DejaVuSans-5f" transform="translate(410.986328 0)"/>
      <use xlink:href="#DejaVuSans-69" transform="translate(460.986328 0)"/>
      <use xlink:href="#DejaVuSans-74" transform="translate(488.769531 0)"/>
      <use xlink:href="#DejaVuSans-65" transform="translate(527.978516 0)"/>
      <use xlink:href="#DejaVuSans-6d" transform="translate(589.501953 0)"/>
      <use xlink:href="#DejaVuSans-20" transform="translate(686.914062 0)"/>
      <use xlink:href="#DejaVuSans-28" transform="translate(718.701172 0)"/>
      <use xlink:href="#DejaVuSans-64" transform="translate(757.714844 0)"/>
      <use xlink:href="#DejaVuSans-69" transform="translate(821.191406 0)"/>
      <use xlink:href="#DejaVuSans-73" transform="translate(848.974609 0)"/>
      <use xlink:href="#DejaVuSans-63" transform="translate(901.074219 0)"/>
      <use xlink:href="#DejaVuSans-3d" transform="translate(956.054688 0)"/>
      <use xlink:href="#DejaVuSans-33" transform="translate(1039.84375 0)"/>
      <use xlink:href="#DejaVuSans-30" transform="translate(1103.466797 0)"/>
      <use xlink:href="#DejaVuSans-2e" transform="translate(1167.089844 0)"/>
      <use xlink:href="#DejaVuSans-30" transform="translate(1198.876953 0)"/>
      <use xlink:href="#DejaVuSans-2c" transform="translate(1262.5 0)"/>
      <use xlink:href="#DejaVuSans-20" transform="translate(1294.287109 0)"/>
      <use xlink:href="#DejaVuSans-64" transform="translate(1326.074219 0)"/>
      <use xlink:href="#DejaVuSans-69" transform="translate(1389.550781 0)"/>
      <use xlink:href="#DejaVuSans-66" transform="translate(1417.333984 0)"/>
      <use xlink:href="#DejaVuSans-66" transform="translate(1452.539062 0)"/>
      <use xlink:href="#DejaVuSans-3d" transform="translate(1487.744141 0)"/>
      <use xlink:href="#DejaVuSans-30" transform="translate(1571.533203 0)"/>
      <use xlink:href="#DejaVuSans-2e" transform="translate(1635.15625 0)"/>
      <use xlink:href="#DejaVuSans-35" transform="translate(1666.943359 0)"/>
      <use xlink:href="#DejaVuSans-29" transform="translate(1730.566406 0)"/>
     </g>
    </g>
    <g id="line2d_36">
     <path d="M 834.223437 202.714687 
L 844.223437 202.714687 
L 854.223437 202.714687 
" style="fill: none; stroke: #2ca02c; stroke-width: 1.5; stroke-linecap: square"/>
    </g>
    <g id="text_36">
     <!-- hard_item (disc=30.0, diff=0.9) -->
     <g transform="translate(862.223437 206.214687) scale(0.1 -0.1)">
      <use xlink:href="#DejaVuSans-68"/>
      <use xlink:href="#DejaVuSans-61" transform="translate(63.378906 0)"/>
      <use xlink:href="#DejaVuSans-72" transform="translate(124.658203 0)"/>
      <use xlink:href="#DejaVuSans-64" transform="translate(164.021484 0)"/>
      <use xlink:href="#DejaVuSans-5f" transform="translate(227.498047 0)"/>
      <use xlink:href="#DejaVuSans-69" transform="translate(277.498047 0)"/>
      <use xlink:href="#DejaVuSans-74" transform="translate(305.28125 0)"/>
      <use xlink:href="#DejaVuSans-65" transform="translate(344.490234 0)"/>
      <use xlink:href="#DejaVuSans-6d" transform="translate(406.013672 0)"/>
      <use xlink:href="#DejaVuSans-20" transform="translate(503.425781 0)"/>
      <use xlink:href="#DejaVuSans-28" transform="translate(535.212891 0)"/>
      <use xlink:href="#DejaVuSans-64" transform="translate(574.226562 0)"/>
      <use xlink:href="#DejaVuSans-69" transform="translate(637.703125 0)"/>
      <use xlink:href="#DejaVuSans-73" transform="translate(665.486328 0)"/>
      <use xlink:href="#DejaVuSans-63" transform="translate(717.585938 0)"/>
      <use xlink:href="#DejaVuSans-3d" transform="translate(772.566406 0)"/>
      <use xlink:href="#DejaVuSans-33" transform="translate(856.355469 0)"/>
      <use xlink:href="#DejaVuSans-30" transform="translate(919.978516 0)"/>
      <use xlink:href="#DejaVuSans-2e" transform="translate(983.601562 0)"/>
      <use xlink:href="#DejaVuSans-30" transform="translate(1015.388672 0)"/>
      <use xlink:href="#DejaVuSans-2c" transform="translate(1079.011719 0)"/>
      <use xlink:href="#DejaVuSans-20" transform="translate(1110.798828 0)"/>
      <use xlink:href="#DejaVuSans-64" transform="translate(1142.585938 0)"/>
      <use xlink:href="#DejaVuSans-69" transform="translate(1206.0625 0)"/>
      <use xlink:href="#DejaVuSans-66" transform="translate(1233.845703 0)"/>
      <use xlink:href="#DejaVuSans-66" transform="translate(1269.050781 0)"/>
      <use xlink:href="#DejaVuSans-3d" transform="translate(1304.255859 0)"/>
      <use xlink:href="#DejaVuSans-30" transform="translate(1388.044922 0)"/>
      <use xlink:href="#DejaVuSans-2e" transform="translate(1451.667969 0)"/>
      <use xlink:href="#DejaVuSans-39" transform="translate(1483.455078 0)"/>
      <use xlink:href="#DejaVuSans-29" transform="translate(1547.078125 0)"/>
     </g>
    </g>
   </g>
  </g>
 </g>
 <defs>
  <clipPath id="p253f8d1f76">
   <rect x="43.78125" y="22.318125" width="456.545455" height="332.64"/>
  </clipPath>
  <clipPath id="pe05d551638">
   <rect x="591.635795" y="22.318125" width="456.545455" height="332.64"/>
  </clipPath>
 </defs>
</svg>
